<svg xmlns="http://www.w3.org/2000/svg" xmlns:xlink="http://www.w3.org/1999/xlink" width="34" height="43" version="1.1" viewBox="0 0 34 43"><title>采集</title><desc>Created with Sketch.</desc><defs><linearGradient id="linearGradient-1" x1="50%" x2="50%" y1="0%" y2="100%"><stop offset="0%" stop-color="#FFF"/><stop offset="100%" stop-color="#FFF" stop-opacity=".8"/></linearGradient><path id="path-2" d="M29,0 C30.1045695,-2.02906125e-16 31,0.8954305 31,2 L31,34.3257828 C31,34.8780676 30.5522847,35.3257828 30,35.3257828 C29.8345109,35.3257828 29.6716086,35.2847123 29.5259002,35.2062539 L18.9481996,29.510569 C18.356247,29.1918253 17.643753,29.1918253 17.0518004,29.510569 L6.47409982,35.2062539 C5.98782906,35.468092 5.381367,35.2861534 5.1195289,34.7998827 C5.04107053,34.6541743 5,34.491272 5,34.3257828 L5,2 C5,0.8954305 5.8954305,2.02906125e-16 7,0 L29,0 Z M18,8 L15.9427516,12.1684405 L11.3426044,12.836881 L14.6713022,16.0815595 L13.8855032,20.663119 L18,18.5 L22.1144968,20.663119 L21.3286978,16.0815595 L24.6573956,12.836881 L20.0572484,12.1684405 L18,8 Z"/><filter id="filter-3" width="153.8%" height="137%" x="-26.9%" y="-13.9%" filterUnits="objectBoundingBox"><feOffset dx="0" dy="2" in="SourceAlpha" result="shadowOffsetOuter1"/><feGaussianBlur in="shadowOffsetOuter1" result="shadowBlurOuter1" stdDeviation="2"/><feColorMatrix in="shadowBlurOuter1" type="matrix" values="0 0 0 0 0 0 0 0 0 0 0 0 0 0 0 0 0 0 0.06 0"/></filter></defs><g id="设计稿" fill="none" fill-rule="evenodd" stroke="none" stroke-width="1"><g id="编组" transform="translate(-1.000000, 2.000000)"><rect id="矩形" width="36" height="36" x="0" y="0" fill="#D8D8D8" opacity="0"/><g id="形状结合"><use fill="#000" fill-opacity="1" filter="url(#filter-3)" xlink:href="#path-2"/><use fill="url(#linearGradient-1)" fill-rule="evenodd" xlink:href="#path-2"/></g></g></g></svg>