<svg xmlns="http://www.w3.org/2000/svg" xmlns:xlink="http://www.w3.org/1999/xlink" width="36" height="36" version="1.1" viewBox="0 0 36 36"><title>cpu</title><desc>Created with Sketch.</desc><g id="页面-1" fill="none" fill-rule="evenodd" stroke="none" stroke-width="1"><g id="高优先级" transform="translate(-1920.000000, -1150.000000)"><g id="cpu" transform="translate(1920.000000, 1150.000000)"><rect id="矩形备份-14" width="36" height="36" x="0" y="0"/><g id="编组" transform="translate(1.000000, 1.000000)"><path id="路径" fill="#FFF" fill-rule="nonzero" d="M21.9866667,23.8 L12.0133333,23.8 C11.016,23.8 10.2,22.9930667 10.2,21.9866667 L10.2,12.0133333 C10.2,11.016 11.0069333,10.2 12.0133333,10.2 L21.9866667,10.2 C22.984,10.2 23.8,11.0069333 23.8,12.0133333 L23.8,21.9866667 C23.8,22.984 22.984,23.8 21.9866667,23.8 Z"/><line id="路径" x1="17" x2="17" y1="5.829" y2="0" stroke="#FFF" stroke-linecap="round" stroke-width="1.5"/><line id="路径" x1="22.829" x2="22.829" y1="5.829" y2="0" stroke="#FFF" stroke-linecap="round" stroke-width="1.5"/><line id="路径" x1="11.171" x2="11.171" y1="5.829" y2="0" stroke="#FFF" stroke-linecap="round" stroke-width="1.5"/><line id="路径" x1="28.171" x2="34" y1="17" y2="17" stroke="#FFF" stroke-linecap="round" stroke-width="1.5"/><line id="路径" x1="28.171" x2="34" y1="22.829" y2="22.829" stroke="#FFF" stroke-linecap="round" stroke-width="1.5"/><line id="路径" x1="28.171" x2="34" y1="11.171" y2="11.171" stroke="#FFF" stroke-linecap="round" stroke-width="1.5"/><path id="路径" stroke="#FFF" stroke-width="1.5" d="M26.3095238,28.1714286 L7.69047619,28.1714286 C6.66642857,28.1714286 5.82857143,27.3335714 5.82857143,26.3095238 L5.82857143,7.69047619 C5.82857143,6.66642857 6.66642857,5.82857143 7.69047619,5.82857143 L26.3095238,5.82857143 C27.3335714,5.82857143 28.1714286,6.66642857 28.1714286,7.69047619 L28.1714286,26.3095238 C28.1714286,27.3335714 27.3335714,28.1714286 26.3095238,28.1714286 Z"/><line id="路径" x1="0" x2="5.829" y1="17" y2="17" stroke="#FFF" stroke-linecap="round" stroke-width="1.5"/><line id="路径" x1="0" x2="5.829" y1="22.829" y2="22.829" stroke="#FFF" stroke-linecap="round" stroke-width="1.5"/><line id="路径" x1="0" x2="5.829" y1="11.171" y2="11.171" stroke="#FFF" stroke-linecap="round" stroke-width="1.5"/><line id="路径" x1="17" x2="17" y1="34" y2="28.171" stroke="#FFF" stroke-linecap="round" stroke-width="1.5"/><line id="路径" x1="22.829" x2="22.829" y1="34" y2="28.171" stroke="#FFF" stroke-linecap="round" stroke-width="1.5"/><line id="路径" x1="11.171" x2="11.171" y1="34" y2="28.171" stroke="#FFF" stroke-linecap="round" stroke-width="1.5"/></g></g></g></g></svg>