<svg xmlns="http://www.w3.org/2000/svg" xmlns:xlink="http://www.w3.org/1999/xlink" width="36" height="26" version="1.1" viewBox="0 0 36 26"><title>docker-image</title><desc>Created with Sketch.</desc><g id="页面-1" fill="none" fill-rule="evenodd" stroke="none" stroke-width="1"><g id="模型图标库" transform="translate(-1070.000000, -1191.000000)"><g id="docker-image" transform="translate(1070.000000, 1186.000000)"><rect id="矩形" width="36" height="36" x="0" y="0"/><g id="编组-7" fill="#FFF" fill-rule="nonzero" transform="translate(0.200000, 5.000000)"><path id="形状结合" d="M28.3036036,5.93333333 C29.4261261,6.83232323 30.2279279,8.1399449 30.5486486,9.61101928 C30.6288288,9.85619835 30.6288288,10.1013774 30.6288288,10.3465565 C30.8693694,10.1831038 31.1099099,10.1831038 31.3504505,10.1013774 C32.7936937,9.85619835 34.2369369,10.1013774 35.6,11.0003673 C34.6378378,12.1445363 33.4351351,12.9617998 31.9918919,13.2887052 C31.3504505,13.4521579 30.6288288,13.5338843 29.9873874,13.5338843 C29.9072072,16.0674013 27.581982,19.4999082 23.8936937,22.1151515 C22.3702703,23.1775941 20.7666667,23.9948577 19.0828829,24.6486685 C17.2387387,25.3842057 15.2342342,25.7111111 13.2297297,25.7111111 C5.93333333,25.7111111 -5.68434189e-14,21.0527089 -5.68434189e-14,15.3318641 C-5.68434189e-14,14.9232323 -5.68434189e-14,14.4328742 0.0801801802,14.0242424 L0.0801801802,14.0242424 L8.73963964,14.0242424 C10.1828829,14.0242424 11.7063063,14.1059688 13.1495495,14.1059688 C15.7954955,14.1059688 18.3612613,14.1059688 21.0072072,13.9425161 C23.2522523,13.7790634 25.7378378,13.6156107 27.7423423,12.553168 C27.8225225,12.4714417 28.3036036,12.2262626 28.3036036,12.1445363 C28.3036036,12.0628099 28.0630631,11.8993572 28.0630631,11.8176309 C27.8225225,11.4089991 27.581982,10.918641 27.5018018,10.4282828 C27.3414414,8.87548209 27.581982,7.32268136 28.3036036,5.93333333 Z M10.4234234,17.7836547 C9.5820599,17.7836547 8.9,18.4788673 8.9,19.3364555 C8.9,20.1940436 9.5820599,20.8892562 10.4234234,20.8892562 C11.2647869,20.8892562 11.9468468,20.1940436 11.9468468,19.3364555 C11.9468468,18.4788673 11.2647869,17.7836547 10.4234234,17.7836547 Z M10.4234234,18.6009183 C10.821964,18.6009183 11.145045,18.9302295 11.145045,19.3364555 C11.145045,19.7426814 10.821964,20.0719927 10.4234234,20.0719927 C10.0248828,20.0719927 9.7018018,19.7426814 9.7018018,19.3364555 C9.7018018,18.9302295 10.0248828,18.6009183 10.4234234,18.6009183 Z"/><rect id="矩形" width="3.461" height="3.461" x="2.967" y="8.9"/><rect id="矩形" width="3.461" height="3.461" x="7.417" y="8.9"/><rect id="矩形" width="3.461" height="3.461" x="11.867" y="8.9"/><rect id="矩形" width="3.461" height="3.461" x="16.317" y="8.9"/><rect id="矩形" width="3.461" height="3.461" x="7.417" y="4.45"/><rect id="矩形" width="3.461" height="3.461" x="11.867" y="4.45"/><rect id="矩形" width="3.461" height="3.461" x="16.317" y="4.45"/><rect id="矩形" width="3.461" height="3.461" x="16.317" y="0"/><rect id="矩形" width="3.461" height="3.461" x="20.767" y="8.9"/></g></g></g></g></svg>