<svg xmlns="http://www.w3.org/2000/svg" xmlns:xlink="http://www.w3.org/1999/xlink" width="36" height="34" version="1.1" viewBox="0 0 36 34"><title>f5-profiles</title><desc>Created with Sketch.</desc><defs><linearGradient id="linearGradient-1" x1="50.023%" x2="50.023%" y1="-.003%" y2="58.447%"><stop offset="0%" stop-color="#FFF"/><stop offset="16.6%" stop-color="#FFF" stop-opacity=".99"/><stop offset="31.79%" stop-color="#FFF" stop-opacity=".452"/><stop offset="46.01%" stop-color="#FFF" stop-opacity=".209"/><stop offset="100%" stop-color="#FFF" stop-opacity="0"/></linearGradient></defs><g id="页面-1" fill="none" fill-rule="evenodd" stroke="none" stroke-width="1"><g id="中优先级" transform="translate(-2673.000000, -1179.000000)"><g id="f5-profiles" transform="translate(2673.000000, 1177.000000)"><polygon id="矩形备份-17" points="0 0 36 0 36 36 24.485 36 0 36"/><g transform="translate(0.000000, 2.000000)"><g id="编组"><path id="形状结合" fill="#FFF" fill-rule="nonzero" d="M32.9740541,5.10810811 C34.0443243,5.10810811 34.92,5.97405405 34.92,7.05405405 L34.9196064,11.7253638 C34.0048433,11.1330788 32.7730769,11.0409182 31.7207943,11.7213416 L29.3435135,13.2551351 L29.3445135,5.10713514 L32.9740541,5.10810811 Z M6.22651351,5.10713514 L6.22610415,13.1721351 L3.97682118,11.7208488 C2.69670093,10.8931015 1.15042703,11.2093932 0.233104149,12.1787675 L0.233513514,7.05405405 C0.233513514,5.98378378 1.09945946,5.10810811 2.17945946,5.10810811 L6.22651351,5.10713514 Z"/><g id="形状" fill="url(#linearGradient-1)" fill-rule="nonzero" transform="translate(4.864865, 0.000000)"><path d="M22.5243243,1.21621622 C23.6043243,1.21621622 24.4702703,2.09189189 24.4702703,3.16216216 L24.4702703,30.0940541 C24.4702703,31.1740541 23.5945946,32.04 22.5243243,32.04 L3.29837838,32.04 C2.21837838,32.04 1.35243243,31.1643243 1.35243243,30.0940541 L1.35243243,3.16216216 C1.35243243,2.08216216 2.22810811,1.21621622 3.29837838,1.21621622 L22.5243243,1.21621622 L22.5243243,1.21621622 Z M22.5243243,0.243243243 L3.29837838,0.243243243 C1.68324324,0.243243243 0.379459459,1.55675676 0.379459459,3.16216216 L0.379459459,30.0940541 C0.379459459,31.7091892 1.69297297,33.012973 3.29837838,33.012973 L22.5243243,33.012973 C24.1394595,33.012973 25.443297,31.6994595 25.443297,30.0940541 L25.443297,3.16216216 C25.452973,1.55675676 24.1394595,0.243243243 22.5243243,0.243243243 L22.5243243,0.243243243 Z"/></g><rect id="矩形" width="11.676" height="11.092" x="12.328" y="4.573"/><path id="路径" fill="#FFF" fill-rule="nonzero" d="M29.5783784,29.4324324 L3.43459459,12.5610811 C2.14054054,11.7243243 0.437837838,12.6583784 0.437837838,14.1956757 L0.437837838,31.067027 C0.437837838,32.1372973 1.30378378,33.012973 2.38378378,33.012973 L28.5275676,33.012973 C30.4637838,33.012973 31.2032432,30.4832432 29.5783784,29.4324324 Z"/><path id="路径" fill="#FFF" fill-rule="nonzero" d="M6.12,29.4324324 L32.2637838,12.5610811 C33.5578378,11.7243243 35.2605405,12.6583784 35.2605405,14.1956757 L35.2605405,31.067027 C35.2605405,32.1372973 34.3945946,33.012973 33.3145946,33.012973 L7.17081081,33.012973 C5.23459459,33.012973 4.49513514,30.4832432 6.12,29.4324324 Z"/></g><path id="路径" fill="#FFF" fill-rule="nonzero" d="M20.267027,6.32432432 C20.267027,6.05564526 20.0492196,5.83783784 19.7805405,5.83783784 C19.5118615,5.83783784 19.2940541,6.05564526 19.2940541,6.32432432 L19.2940541,9.11675676 C19.2940541,9.53754982 19.7004017,9.76329851 20.0511378,9.64638647 C21.1951695,9.10755106 22.5037149,9.51817208 23.0281766,10.5114709 C23.5138178,11.4279239 23.2064865,12.635297 22.3403465,13.217973 C21.3671944,13.8774611 19.9358787,13.5750705 19.2322729,12.515709 C19.0836222,12.2918979 18.7816823,12.2309683 18.5578712,12.379619 C18.3340601,12.5282696 18.2731305,12.8302096 18.4217811,13.0540207 C19.4213753,14.5590277 21.4602183,14.9897692 22.8848105,14.024343 C24.1614666,13.165505 24.6073939,11.4136478 23.8882399,10.0565345 C23.2404732,8.82970276 21.8133402,8.21835877 20.452155,8.49167659 L20.267027,8.53445592 L20.267027,6.32432432 Z"/><path id="路径" fill="#FFF" fill-rule="nonzero" d="M19.8097297,6.86640927 L23.6627027,6.86640927 C23.9313818,6.86640927 24.1491892,6.63615571 24.1491892,6.35212355 C24.1491892,6.0680914 23.9313818,5.83783784 23.6627027,5.83783784 L19.8097297,5.83783784 C19.5410507,5.83783784 19.3232432,6.0680914 19.3232432,6.35212355 C19.3232432,6.63615571 19.5410507,6.86640927 19.8097297,6.86640927 Z"/><path id="路径" fill="#FFF" fill-rule="nonzero" d="M12.1621622,6.86640927 L16.7351351,6.86640927 C17.0038142,6.86640927 17.2216216,6.63615571 17.2216216,6.35212355 C17.2216216,6.0680914 17.0038142,5.83783784 16.7351351,5.83783784 L12.1621622,5.83783784 C11.8934831,5.83783784 11.6756757,6.0680914 11.6756757,6.35212355 C11.6756757,6.63615571 11.8934831,6.86640927 12.1621622,6.86640927 Z"/><path id="路径" fill="#FFF" fill-rule="nonzero" d="M12.1621622,10.6707336 L16.7351351,10.6707336 C17.0038142,10.6707336 17.2216216,10.44048 17.2216216,10.1564479 C17.2216216,9.87241572 17.0038142,9.64216216 16.7351351,9.64216216 L12.1621622,9.64216216 C11.8934831,9.64216216 11.6756757,9.87241572 11.6756757,10.1564479 C11.6756757,10.44048 11.8934831,10.6707336 12.1621622,10.6707336 Z"/><path id="路径" fill="#FFF" fill-rule="nonzero" d="M11.6756757,6.32432432 L11.6756757,14.0497297 C11.6756757,14.3184088 11.9059292,14.5362162 12.1899614,14.5362162 C12.4739935,14.5362162 12.7042471,14.3184088 12.7042471,14.0497297 L12.7042471,6.32432432 C12.7042471,6.05564526 12.4739935,5.83783784 12.1899614,5.83783784 C11.9059292,5.83783784 11.6756757,6.05564526 11.6756757,6.32432432 Z"/></g></g></g></g></svg>