<svg xmlns="http://www.w3.org/2000/svg" xmlns:xlink="http://www.w3.org/1999/xlink" width="36" height="36" version="1.1" viewBox="0 0 36 36"><title>haproxy</title><desc>Created with Sketch.</desc><g id="页面-1" fill="none" fill-rule="evenodd" stroke="none" stroke-width="1"><g id="中优先级" transform="translate(-2362.000000, -1177.000000)"><g id="haproxy" transform="translate(2362.000000, 1177.000000)"><polygon id="矩形备份-17" points="0 0 36 0 36 36 24.485 36 0 36"/><g id="编组" fill="#FFF" fill-rule="nonzero"><rect id="矩形" width="5.653" height="5.653" x="15.587" y="20.929"/><rect id="矩形" width="5.653" height="5.653" x="9.934" y="15.276"/><rect id="矩形" width="5.653" height="5.653" x="15.587" y="9.623"/><rect id="矩形" width="5.653" height="5.653" x="21.24" y="15.276"/><rect id="矩形" width="2.831" height="2.831" x="21.24" y="6.791"/><rect id="矩形" width="2.831" height="2.831" x="12.756" y="6.791"/><rect id="矩形" width="2.831" height="2.831" x="21.24" y="26.591"/><rect id="矩形" width="2.831" height="2.831" x="12.756" y="26.591"/><polygon id="路径" points="9.934 12.444 9.934 15.276 7.103 15.276 7.103 12.444"/><polygon id="路径" points="9.934 20.929 9.934 23.76 7.103 23.76 7.103 20.929"/><polygon id="路径" points="29.734 12.444 29.734 15.276 26.903 15.276 26.903 12.444"/><polygon id="路径" points="29.734 20.929 29.734 23.76 26.903 23.76 26.903 20.929"/><rect id="矩形" width="1.411" height="1.411" x="15.587" y="3.259"/><rect id="矩形" width="1.411" height="1.411" x="11.345" y="4.67"/><rect id="矩形" width="1.411" height="1.411" x="24.071" y="4.67"/><rect id="矩形" width="1.411" height="1.411" x="19.829" y="3.259"/><rect id="矩形" width="1.411" height="1.411" x="31.943" y="15.412"/><rect id="矩形" width="1.411" height="1.411" x="30.522" y="11.034"/><rect id="矩形" width="1.411" height="1.411" x="5.225" y="11.034"/><rect id="矩形" width="1.411" height="1.411" x="3.658" y="15.276"/><rect id="矩形" width="1.411" height="1.411" x="3.658" y="19.518"/><rect id="矩形" width="1.411" height="1.411" x="5.41" y="24.003"/><rect id="矩形" width="1.411" height="1.411" x="31.943" y="19.518"/><rect id="矩形" width="1.411" height="1.411" x="30.435" y="23.925"/><rect id="矩形" width="1.411" height="1.411" x="15.587" y="31.446"/><rect id="矩形" width="1.411" height="1.411" x="11.043" y="29.646"/><rect id="矩形" width="1.411" height="1.411" x="24.071" y="30.123"/><rect id="矩形" width="1.411" height="1.411" x="19.829" y="31.583"/><rect id="矩形" width="1.411" height="1.411" x="7.706" y="7.502"/><rect id="矩形" width="1.411" height="1.411" x="7.686" y="27.292"/><rect id="矩形" width="1.411" height="1.411" x="28.002" y="27.165"/><rect id="矩形" width="1.411" height="1.411" x="28.012" y="7.657"/><rect id="矩形" width="1" height="1" x="1.138" y="20.929"/><rect id="矩形" width="1" height="1" x=".856" y="18.837"/><rect id="矩形" width="1" height="1" x="2.783" y="25.414"/><rect id="矩形" width="1" height="1" x="1.819" y="23.283"/><rect id="矩形" width="1" height="1" x="5.147" y="29.072"/><rect id="矩形" width="1" height="1" x="3.824" y="27.418"/><rect id="矩形" width="1" height="1" x="8.864" y="32.069"/><rect id="矩形" width="1" height="1" x="6.947" y="30.736"/><rect id="矩形" width="1" height="1" x="10.936" y="33.169"/><rect id="矩形" width="1" height="1" x="15.354" y="34.579"/><rect id="矩形" width="1" height="1" x="13.009" y="34.074"/><rect id="矩形" width="1" height="1" x="20.812" y="34.774"/><rect id="矩形" width="1" height="1" x="18.078" y="34.92"/><rect id="矩形" width="1" height="1" x="1.138" y="14.517"/><rect id="矩形" width="1" height="1" x=".856" y="16.609"/><rect id="矩形" width="1" height="1" x="2.783" y="10.031"/><rect id="矩形" width="1" height="1" x="1.819" y="12.162"/><rect id="矩形" width="1" height="1" x="5.147" y="6.383"/><rect id="矩形" width="1" height="1" x="3.824" y="8.027"/><rect id="矩形" width="1" height="1" x="8.864" y="3.376"/><rect id="矩形" width="1" height="1" x="6.947" y="4.709"/><rect id="矩形" width="1" height="1" x="10.936" y="2.277"/><rect id="矩形" width="1" height="1" x="15.354" y=".915"/><rect id="矩形" width="1" height="1" x="13.009" y="1.372"/><rect id="矩形" width="1" height="1" x="34.89" y="20.969" transform="translate(35.230086, 21.309276) rotate(-180.000000) translate(-35.230086, -21.309276)"/><rect id="矩形" width="1" height="1" x="35.166" y="18.881" transform="translate(35.506411, 19.221859) rotate(-180.000000) translate(-35.506411, -19.221859)"/><rect id="矩形" width="1" height="1" x="33.245" y="25.459" transform="translate(33.585373, 25.799741) rotate(-180.000000) translate(-33.585373, -25.799741)"/><rect id="矩形" width="1" height="1" x="34.2" y="23.325" transform="translate(34.540832, 23.665816) rotate(-180.000000) translate(-34.540832, -23.665816)"/><rect id="矩形" width="1" height="1" x="30.873" y="29.113" transform="translate(31.213362, 29.453741) rotate(-180.000000) translate(-31.213362, -29.453741)"/><rect id="矩形" width="1" height="1" x="32.202" y="27.458" transform="translate(32.542249, 27.798130) rotate(-180.000000) translate(-32.542249, -27.798130)"/><rect id="矩形" width="1" height="1" x="27.156" y="32.112" transform="translate(27.496508, 32.452930) rotate(-180.000000) translate(-27.496508, -32.452930)"/><rect id="矩形" width="1" height="1" x="29.082" y="30.779" transform="translate(29.422703, 31.119762) rotate(-180.000000) translate(-29.422703, -31.119762)"/><rect id="矩形" width="1" height="1" x="25.087" y="33.214" transform="translate(25.427578, 33.554822) rotate(-180.000000) translate(-25.427578, -33.554822)"/><rect id="矩形" width="1" height="1" x="23.016" y="34.119" transform="translate(23.356314, 34.459200) rotate(-180.000000) translate(-23.356314, -34.459200)"/><rect id="矩形" width="1" height="1" x="34.89" y="14.563" transform="translate(35.230086, 14.903124) rotate(-180.000000) translate(-35.230086, -14.903124)"/><rect id="矩形" width="1" height="1" x="35.166" y="16.65" transform="translate(35.506411, 16.990638) rotate(-180.000000) translate(-35.506411, -16.990638)"/><rect id="矩形" width="1" height="1" x="33.245" y="10.072" transform="translate(33.585373, 10.412757) rotate(-180.000000) translate(-33.585373, -10.412757)"/><rect id="矩形" width="1" height="1" x="34.2" y="12.206" transform="translate(34.540832, 12.546681) rotate(-180.000000) translate(-34.540832, -12.546681)"/><rect id="矩形" width="1" height="1" x="30.873" y="6.418" transform="translate(31.213362, 6.758757) rotate(-180.000000) translate(-31.213362, -6.758757)"/><rect id="矩形" width="1" height="1" x="32.202" y="8.074" transform="translate(32.542249, 8.414368) rotate(-180.000000) translate(-32.542249, -8.414368)"/><rect id="矩形" width="1" height="1" x="27.156" y="3.419" transform="translate(27.496508, 3.759470) rotate(-180.000000) translate(-27.496508, -3.759470)"/><rect id="矩形" width="1" height="1" x="29.082" y="4.752" transform="translate(29.422703, 5.092638) rotate(-180.000000) translate(-29.422703, -5.092638)"/><rect id="矩形" width="1" height="1" x="25.087" y="2.317" transform="translate(25.427578, 2.657676) rotate(-180.000000) translate(-25.427578, -2.657676)"/><rect id="矩形" width="1" height="1" x="20.687" y=".91" transform="translate(21.027114, 1.250076) rotate(-180.000000) translate(-21.027114, -1.250076)"/><rect id="矩形" width="1" height="1" x="23.016" y="1.413" transform="translate(23.356314, 1.753200) rotate(-180.000000) translate(-23.356314, -1.753200)"/><rect id="矩形" width="1" height="1" x="18.074" y=".57" transform="translate(18.414486, 0.910216) rotate(-180.000000) translate(-18.414486, -0.910216)"/></g></g></g></g></svg>