<svg xmlns="http://www.w3.org/2000/svg" xmlns:xlink="http://www.w3.org/1999/xlink" width="31" height="36" version="1.1" viewBox="0 0 31 36"><title>network-service</title><desc>Created with Sketch.</desc><g id="页面-1" fill="none" fill-rule="evenodd" stroke="none" stroke-width="1"><g id="低优先级" transform="translate(-506.000000, -1165.000000)"><g id="network-service" transform="translate(504.000000, 1165.000000)"><polygon id="矩形备份-18" points="0 0 36 0 36 36 24.485 36 0 36"/><g id="编组-6" fill="#FFF" transform="translate(2.000000, 0.000000)"><path id="形状结合" fill-rule="nonzero" d="M15.6,0.257142857 C24.073626,0.257142857 30.9428571,7.12637398 30.9428571,15.6 C30.9428571,21.8263238 27.2340611,27.1864119 21.9051499,29.5915833 L21.4219944,28.1154078 C26.1340184,25.9197088 29.4,21.1412598 29.4,15.6 C29.4,7.97847045 23.2215295,1.8 15.6,1.8 C7.97847045,1.8 1.8,7.97847045 1.8,15.6 C1.8,21.0729321 4.98593432,25.8017494 9.60436067,28.0330095 L9.12059913,29.5116151 C3.88526181,27.0690697 0.257142857,21.7582312 0.257142857,15.6 C0.257142857,7.12637398 7.12637398,0.257142857 15.6,0.257142857 Z"/><path id="形状结合" fill-rule="nonzero" d="M15.6,4.14285714 C21.9276053,4.14285714 27.0571429,9.27239472 27.0571429,15.6 C27.0571429,20.1003187 24.4624498,23.9946143 20.6874453,25.8685052 L20.2025563,24.3834788 C23.3603898,22.7253609 25.5142857,19.4142151 25.5142857,15.6 C25.5142857,10.1244912 21.0755088,5.68571429 15.6,5.68571429 C10.1244912,5.68571429 5.68571429,10.1244912 5.68571429,15.6 C5.68571429,19.3455867 7.76279828,22.6060444 10.8279706,24.2923775 L10.3409925,25.7815336 C6.65915938,23.8759171 4.14285714,20.0318155 4.14285714,15.6 C4.14285714,9.27239472 9.27239472,4.14285714 15.6,4.14285714 Z"/><polygon id="三角形" points="15.6 17.543 21.429 36 9.771 36"/><circle id="椭圆形" cx="15.6" cy="16.571" r="1.943"/></g></g></g></g></svg>