<svg xmlns="http://www.w3.org/2000/svg" xmlns:xlink="http://www.w3.org/1999/xlink" width="36" height="35" version="1.1" viewBox="0 0 36 35"><title>private-line</title><desc>Created with Sketch.</desc><g id="页面-1" fill="none" fill-rule="evenodd" stroke="none" stroke-width="1"><g id="低优先级" transform="translate(-621.000000, -1226.000000)"><g id="private-line" transform="translate(618.000000, 1222.000000)"><polygon id="矩形备份-19" points="3 4 39 4 39 40 27.485 40 3 40"/><g id="编组-11" stroke="#FFF" stroke-width="2" transform="translate(21.228770, 21.405240) rotate(-45.000000) translate(-21.228770, -21.405240) translate(5.228770, 7.905240)"><circle id="椭圆形" cx="7.529" cy="3.765" r="3.765"/><circle id="椭圆形" cx="24.471" cy="22.588" r="3.765"/><path id="路径" d="M27.2941176,13.1764706 L27.2941176,13.1764706 C29.8931047,13.1764706 32,11.0695753 32,8.47058824 C32,5.87160118 29.8931047,3.76470588 27.2941176,3.76470588"/><path id="路径" d="M4.70588235,13.1764706 C2.1068953,13.1764706 0,15.2833659 0,17.8823529 C0,20.48134 2.1068953,22.5882353 4.70588235,22.5882353 L4.70588235,22.5882353"/><line id="直线" x1="11.765" x2="27.294" y1="3.765" y2="3.765" stroke-linecap="round"/><line id="直线" x1="4.706" x2="27.294" y1="13.176" y2="13.176" stroke-linecap="round"/><line id="直线" x1="4.706" x2="20.706" y1="22.588" y2="22.588" stroke-linecap="round"/></g></g></g></g></svg>