<svg xmlns="http://www.w3.org/2000/svg" xmlns:xlink="http://www.w3.org/1999/xlink" width="32" height="36" version="1.1" viewBox="0 0 32 36"><title>sql-package</title><desc>Created with Sketch.</desc><g id="页面-1" fill="none" fill-rule="evenodd" stroke="none" stroke-width="1"><g id="模型图标库" transform="translate(-1182.000000, -1186.000000)"><g id="sql-package" transform="translate(1179.000000, 1186.000000)"><g id="SQL包"><rect id="矩形备份-2" width="36" height="36" x="0" y="0"/><g id="编组-63备份" fill="#FFF" fill-rule="nonzero" transform="translate(3.000000, 0.000000)"><g id="编组-8"><path id="形状结合" d="M29.697378,24.0132502 C30.8485379,25.1071668 31.5,26.3530441 31.5,27.675 C31.5,32.0242424 24.4484848,35.55 15.75,35.55 C7.05151519,35.55 0,32.0242424 0,27.675 C0,26.3530441 0.651462055,25.1071668 1.80262201,24.0132502 C5.07775956,26.291057 10.1496629,27.65 15.75,27.65 C21.3434032,27.65 26.4096802,26.29442 29.6843905,24.0214288 L29.697378,24.0132502 Z"/><path id="形状结合" d="M29.5764326,14.0005552 C30.8028032,15.1212763 31.5,16.4074284 31.5,17.775 C31.5,22.1242424 24.4484848,25.65 15.75,25.65 C7.05151519,25.65 0,22.1242424 0,17.775 C0,16.4074284 0.697196778,15.1212763 1.9235674,14.0005552 C5.13003342,16.3446474 10.1744151,17.75 15.75,17.75 C21.3074577,17.75 26.3371606,16.3537706 29.5455875,14.024739 L29.5764326,14.0005552 Z"/><ellipse id="椭圆形" cx="15.75" cy="7.875" rx="15.412" ry="7.875"/></g></g></g></g></g></g></svg>