<svg xmlns="http://www.w3.org/2000/svg" xmlns:xlink="http://www.w3.org/1999/xlink" width="17" height="16" version="1.1" viewBox="0 0 17 16"><title>F4911166-22BA-4626-BC09-BC3FD982FAFA</title><desc>Created with Sketch.</desc><defs><polygon id="path-1" points="0 15.82 15.862 15.82 15.862 .941 0 .941"/></defs><g id="迭代二" fill="none" fill-rule="evenodd" stroke="none" stroke-width="1"><g id="Easyops-5.0-IDC首页" transform="translate(-42.000000, -379.000000)"><g id="配线架管理" transform="translate(43.000000, 379.000000)"><path id="Stroke-1" stroke="#FFF" stroke-linecap="round" d="M14.8037647,15.1828706 L1.12376471,15.3494985 C0.796235294,15.3532235 0.525176471,15.0887529 0.521411765,14.7612235 L0.470548536,10.5984 C0.466823529,10.2708706 0.731294118,9.99981176 1.05882353,9.99604706 L14.7388235,9.8304 C15.0654118,9.82569412 15.3355294,10.0901647 15.3402353,10.4176941 L15.3910985,14.5805176 C15.3948235,14.9080471 15.1303529,15.1791059 14.8037647,15.1828706 Z"/><path id="Stroke-3" stroke="#FFF" stroke-linecap="round" d="M14.8037647,6.76508235 L1.12376471,6.93072941 C0.796235294,6.93543529 0.525176471,6.67096471 0.521411765,6.34343529 L0.470548536,2.17967059 C0.466823529,1.85308235 0.731294118,1.58202353 1.05882353,1.57825882 L14.7388235,1.41163089 C15.0654118,1.40790588 15.3355294,1.67237647 15.3402353,1.99990588 L15.3910985,6.16272941 C15.3948235,6.49025882 15.1303529,6.76131765 14.8037647,6.76508235 Z"/><mask id="mask-2" fill="#fff"><use xlink:href="#path-1"/></mask><polygon id="Fill-5" fill="#FFF" points="2.754 13.625 3.79 13.625 3.79 11.554 2.754 11.554" mask="url(#mask-2)"/><polygon id="Fill-7" fill="#FFF" points="5.86 13.625 6.896 13.625 6.896 11.554 5.86 11.554" mask="url(#mask-2)"/><polygon id="Fill-8" fill="#FFF" points="8.966 13.625 10.001 13.625 10.001 11.554 8.966 11.554" mask="url(#mask-2)"/><polygon id="Fill-9" fill="#FFF" points="12.072 13.625 13.107 13.625 13.107 11.554 12.072 11.554" mask="url(#mask-2)"/><polygon id="Fill-10" fill="#FFF" points="2.754 5.207 3.79 5.207 3.79 3.136 2.754 3.136" mask="url(#mask-2)"/><polygon id="Fill-11" fill="#FFF" points="5.86 5.207 6.896 5.207 6.896 3.136 5.86 3.136" mask="url(#mask-2)"/><polygon id="Fill-12" fill="#FFF" points="8.966 5.207 10.001 5.207 10.001 3.136 8.966 3.136" mask="url(#mask-2)"/><polygon id="Fill-13" fill="#FFF" points="12.072 5.207 13.107 5.207 13.107 3.136 12.072 3.136" mask="url(#mask-2)"/></g></g></g></svg>