<svg xmlns="http://www.w3.org/2000/svg" xmlns:xlink="http://www.w3.org/1999/xlink" width="17" height="14" version="1.1" viewBox="0 0 17 14"><title>6849E8A3-15E8-4620-9DCF-C41F0D23C271</title><desc>Created with Sketch.</desc><g id="页面-1" fill="none" fill-rule="evenodd" stroke="none" stroke-width="1"><g id="Easyops-5.0-IDC首页" transform="translate(-42.000000, -260.000000)"><g id="交换机管理" transform="translate(42.000000, 259.000000)"><g id="icon/交换机管理" transform="translate(1.000000, 2.000000)"><path id="Stroke-1" stroke="#FFF" stroke-linecap="round" d="M0.421221053,8.84210526 L2.69995789,0.773052632 C2.82374737,0.574315789 3.06795789,0.421052632 3.24901053,0.421052632 L12.5635368,0.421052632 C12.7454316,0.421052632 12.9888,0.574315789 13.1125895,0.773052632 L15.3913263,8.84210526"/><path id="Stroke-3" stroke="#FFF" stroke-linecap="round" stroke-linejoin="round" d="M0.421221053,8.84210526 L0.421221053,11.3658947 C0.421221053,11.8298947 0.801010526,12.2105263 1.26585263,12.2105263 L14.5509053,12.2105263 C15.0132211,12.2105263 15.3913263,11.8324211 15.3913263,11.3701053 L15.3913263,8.84210526 L0.421221053,8.84210526 Z"/><polyline id="Stroke-5" stroke="#FFF" stroke-linecap="round" points="5.609 3.238 6.594 3.238 9.55 6.851 10.535 6.851"/><polygon id="Fill-7" fill="#FFF" points="5.936 4.652 4.523 3.238 5.936 1.825"/><polyline id="Stroke-9" stroke="#FFF" stroke-linecap="round" points="10.269 3.238 9.284 3.238 6.328 6.851 5.343 6.851"/><polygon id="Fill-11" fill="#FFF" points="9.942 4.652 11.355 3.238 9.942 1.825"/></g></g></g></g></svg>