<svg xmlns="http://www.w3.org/2000/svg" xmlns:xlink="http://www.w3.org/1999/xlink" width="20" height="20" version="1.1" viewBox="0 0 20 20"><title>个人敏捷管理小产品图标</title><desc>Created with Sketch.</desc><g id="页面-1" fill="none" fill-rule="evenodd" stroke="none" stroke-width="1"><g id="Apple-TV备份-25" transform="translate(-805.000000, -597.000000)"><g id="个人敏捷管理小产品图标" transform="translate(804.000000, 596.000000)"><rect id="矩形" width="22" height="22" x="0" y="0" fill="#D8D8D8" fill-rule="nonzero" opacity="0"/><path id="椭圆形" fill="#FFF" fill-rule="nonzero" d="M11,2 C15.9705627,2 20,6.02943725 20,11 C20,15.9705627 15.9705627,20 11,20 C6.02943725,20 2,15.9705627 2,11 C2,6.02943725 6.02943725,2 11,2 Z M11,3 C6.581722,3 3,6.581722 3,11 C3,15.418278 6.581722,19 11,19 C15.418278,19 19,15.418278 19,11 C19,6.581722 15.418278,3 11,3 Z"/><circle id="椭圆形备份" cx="19.5" cy="10.5" r="1.5" fill="#FFF"/><circle id="椭圆形备份-2" cx="11" cy="19.5" r="1.5" fill="#FFF"/><path id="椭圆形" fill="#FFF" fill-rule="nonzero" d="M11.0002621,6 C12.1926951,6 13.159353,6.98497355 13.159353,8.2 C13.159353,9.41502645 12.1926951,10.4 11.0002621,10.4 C9.8078291,10.4 8.84117117,9.41502645 8.84117117,8.2 C8.84117117,6.98497355 9.8078291,6 11.0002621,6 Z"/><path id="路径-4" fill="#FFF" fill-rule="nonzero" d="M13.003457,11 C14.1080265,11 15.003457,11.8954305 15.003457,13 L15.003457,14.5 C15.003457,14.7761424 14.7795993,15 14.503457,15 L7.5,15 C7.22385763,15 7,14.7761424 7,14.5 L7,13 C7,11.8954305 7.8954305,11 9,11 L13.003457,11 Z"/><circle id="椭圆形备份-3" cx="2.5" cy="10.5" r="1.5" fill="#FFF"/><circle id="椭圆形" cx="11" cy="2.5" r="1.5" fill="#FFF"/></g></g></g></svg>