<svg xmlns="http://www.w3.org/2000/svg" xmlns:xlink="http://www.w3.org/1999/xlink" width="26" height="26" version="1.1" viewBox="0 0 26 26"><title>3EEF3884-16B4-4C86-B45F-DD8759E97ADD</title><g id="V1.0" fill="none" fill-rule="evenodd" stroke="none" stroke-width="1"><g id="工具列表页-A" transform="translate(-885.000000, -236.000000)"><g id="内容区" transform="translate(300.000000, 124.000000)"><g id="应用/电网项目" transform="translate(20.000000, 80.000000)"><g id="卡片/鼠标悬浮" transform="translate(532.000000, 0.000000)"><g id="logo" transform="translate(26.000000, 25.000000)"><g id="Icon-PowerShell" transform="translate(7.000000, 7.000000)"><rect id="矩形" width="19" height="19" x="4" y="3" fill="#3475BB" rx="1"/><path id="形状结合" fill="#27588D" d="M23,4 L23,21 C23,21.5522847 22.5522847,22 22,22 L5,22 C4.63845277,22 4.32171905,21.8081305 4.14606743,21.5206602 L22.5206602,3.14606743 C22.8081305,3.32171905 23,3.63845277 23,4 Z"/><path id="形状结合" fill="#1C426A" d="M13.5000674,12.1670674 L22.8545248,21.5196897 C22.6789935,21.8076986 22.3619539,22 22,22 L5,22 C4.63845277,22 4.32171905,21.8081305 4.14606743,21.5206602 L13.5000674,12.1670674 Z"/><path id="路径-2" stroke="#FFF" stroke-linecap="round" stroke-width="1.5" d="M9.83985062,6.5 L14.1745033,11.1507658 C14.3566536,11.3461997 14.352989,11.6503014 14.1661823,11.8412892 L9.83985062,16.2644534 L9.83985062,16.2644534"/><line id="路径-3" x1="14.5" x2="17.205" y1="16.5" y2="16.5" stroke="#FFF" stroke-linecap="round" stroke-width="1.5"/></g></g></g></g></g></g></g></svg>