<svg xmlns="http://www.w3.org/2000/svg" xmlns:xlink="http://www.w3.org/1999/xlink" width="32" height="32" version="1.1" viewBox="0 0 32 32"><title>9FB8E5F7-E06A-4895-AE34-55F0C094DA98</title><g id="页面-1" fill="none" fill-rule="evenodd" stroke="none" stroke-width="1"><g id="工具高危命令的三个小图标-" transform="translate(-153.000000, -185.000000)"><g id="编组" transform="translate(74.000000, 76.000000)"><g id="字符串" transform="translate(79.000000, 109.000000)"><rect id="矩形备份" width="32" height="32" x="0" y="0" fill="#D8D8D8" opacity="0"/><g transform="translate(0.000000, 6.000000)"><path id="路径" fill="#0071EB" fill-rule="nonzero" d="M32,6.6894347 L32,17.1429528 C31.9953192,18.7189483 30.6956544,19.9954028 29.0910021,20 L2.90899801,20 C1.30434565,19.9954028 0.00468085301,18.7189483 0,17.1429528 L0,2.85704726 C0,2.09925678 0.306243908,1.37245241 0.851826065,0.836613611 C1.39740822,0.300774809 2.13742834,0 2.90899801,0 L25.1984744,0 C26.0981671,0 26.9608841,0.351592613 27.5961051,0.977349279 L31.0113566,4.34064928 C31.6444222,4.96421609 32,5.80885486 32,6.6894347 L32,6.6894347 Z"/><g id="编组-4" fill="#FFF" transform="translate(6.000000, 4.000000)"><polygon id="路径" points="6 8.923 4.774 10 0 5.862 4.774 2 6 2.979 2.29 5.862"/><polygon id="路径备份" points="20 8.923 18.774 10 14 5.862 18.774 2 20 2.979 16.29 5.862" transform="translate(17.000000, 6.000000) scale(-1, 1) translate(-17.000000, -6.000000)"/><polygon id="路径" points="9.959 12 7.623 12 9.959 0 12.296 0"/></g></g></g></g></g></g></svg>