<svg xmlns="http://www.w3.org/2000/svg" xmlns:xlink="http://www.w3.org/1999/xlink" width="20" height="20" version="1.1" viewBox="0 0 20 20"><title>画板</title><desc>Created with Sketch.</desc><defs><linearGradient id="linearGradient-1" x1="0%" x2="100%" y1="50%" y2="50%"><stop offset="0%" stop-color="#1452CC"/><stop offset="100%" stop-color="#28C6CC"/></linearGradient></defs><g id="页面-1" fill="none" fill-rule="evenodd" stroke="none" stroke-width="1"><g id="画板"><g id="应用配置中心"><g id="编组-2" transform="translate(1.000000, 2.000000)"><path id="形状结合" stroke="#FFF" stroke-linecap="round" d="M7.67876321,5.12098233 C6.95656433,4.61754572 6.4,3.727095 6.4,2.78362573 C6.4,1.24627169 7.6536027,0 9.2,0 C10.7463973,0 12,1.24627169 12,2.78362573 C12,3.21065281 11.9032785,3.61522148 11.7304267,3.97686099 M7.67876321,5.12098233 L2.8,12.9239766"/><path id="形状结合" stroke="#FFF" stroke-linecap="round" d="M13.9734674,10.6197598 C14.3438706,10.4400374 14.7600879,10.3391813 15.2,10.3391813 C16.7463973,10.3391813 18,11.585453 18,13.122807 C18,14.6601611 16.7463973,15.9064327 15.2,15.9064327 C14.2487345,15.9064327 13.4082652,15.4348325 12.9022468,14.7139791 M9.2,2.78362573 L13.9734674,10.6197598"/><g id="编组" stroke="#FFF" transform="translate(-0.000000, 9.969711)"><path id="路径-3" d="M5.6,3.15309636 C5.66523927,3.15309636 8.86523927,3.15309636 15.2,3.15309636 C8.73476073,3.15309636 5.53476073,3.15309636 5.6,3.15309636 Z"/><path id="路径" stroke-linecap="round" d="M5.6,3.15309636 C5.54712461,4.62766138 4.31277997,5.53906127 2.8,5.53906127 C1.2536027,5.53906127 0,4.29278958 0,2.75543554 C0,1.35309697 1.04308066,0.192958232 2.4,-1.77635684e-14"/></g><ellipse id="椭圆形" cx="15.2" cy="13.123" fill="#FFF" rx="1.2" ry="1.193"/><ellipse id="椭圆形" cx="2.8" cy="12.725" fill="#FFF" rx="1.2" ry="1.193"/><ellipse id="椭圆形" cx="9.2" cy="2.784" fill="#FFF" rx="1.2" ry="1.193"/></g><rect id="矩形" width="20" height="20" x="0" y="0"/></g></g></g></svg>