<svg xmlns="http://www.w3.org/2000/svg" xmlns:xlink="http://www.w3.org/1999/xlink" width="20" height="20" version="1.1" viewBox="0 0 20 20"><title>画板备份 6</title><desc>Created with Sketch.</desc><defs><linearGradient id="linearGradient-1" x1="0%" x2="100%" y1="50%" y2="50%"><stop offset="0%" stop-color="#1452CC"/><stop offset="100%" stop-color="#28C6CC"/></linearGradient></defs><g id="页面-1" fill="none" fill-rule="evenodd" stroke="none" stroke-width="1"><g id="画板备份-6"><g id="配置包"><g id="#2" fill="#FFF" transform="translate(0.000000, 1.000000)"><path id="形状结合" d="M9.24390244,0 C9.79618719,8.7960173e-16 10.2439024,0.44771525 10.2439024,1 L10.2439024,1.88888889 L19,1.88888889 C19.5522847,1.88888889 20,2.33660414 20,2.88888889 L20,16 C20,16.5522847 19.5522847,17 19,17 L1,17 C0.44771525,17 1.04869017e-15,16.5522847 0,16 L0,1 C-6.76353751e-17,0.44771525 0.44771525,1.01453063e-16 1,0 L9.24390244,0 Z M19.0243902,4.05555556 L0.975609756,4.05555556 L0.975609756,16.0555556 L19.0243902,16.0555556 L19.0243902,4.05555556 Z M7.5,11 C8.16326249,11 8.72598043,11.4304824 8.92399612,12.0272895 L16.5277778,12.0277778 C16.7885789,12.0277778 17,12.2391989 17,12.5 C17,12.7608011 16.7885789,12.9722222 16.5277778,12.9722222 L8.92399612,12.9727105 C8.72598043,13.5695176 8.16326249,14 7.5,14 C6.83673751,14 6.27401957,13.5695176 6.07600388,12.9727105 L3.47222222,12.9722222 C3.21142109,12.9722222 3,12.7608011 3,12.5 C3,12.2391989 3.21142109,12.0277778 3.47222222,12.0277778 L6.07600388,12.0272895 C6.27401957,11.4304824 6.83673751,11 7.5,11 Z M13.5,7 C14.1632625,7 14.7259804,7.4304824 14.9239961,8.0272895 L16.5277778,8.02777778 C16.7885789,8.02777778 17,8.23919887 17,8.5 C17,8.76080113 16.7885789,8.97222222 16.5277778,8.97222222 L14.9239961,8.9727105 C14.7259804,9.5695176 14.1632625,10 13.5,10 C12.8367375,10 12.2740196,9.5695176 12.0760039,8.9727105 L3.47222222,8.97222222 C3.21142109,8.97222222 3,8.76080113 3,8.5 C3,8.23919887 3.21142109,8.02777778 3.47222222,8.02777778 L12.0760039,8.0272895 C12.2740196,7.4304824 12.8367375,7 13.5,7 Z"/></g><rect id="矩形" width="20" height="20" x="0" y="0"/></g></g></g></svg>