<svg xmlns="http://www.w3.org/2000/svg" xmlns:xlink="http://www.w3.org/1999/xlink" width="20" height="20" version="1.1" viewBox="0 0 20 20"><defs><polygon id="path-1" points="0 .271 8.319 .271 8.319 12 0 12"/><polygon id="path-3" points=".744 .541 16 .541 16 8.603 .744 8.603"/></defs><g fill="none" fill-rule="evenodd" stroke="none" stroke-width="1"><g><g><g><g><g transform="translate(-37.000000, -81.000000) translate(37.000000, 81.000000) translate(2.000000, 0.000000) translate(0.000000, 7.459400)"><mask id="mask-2" fill="#fff"><use xlink:href="#path-1"/></mask><path id="Fill-1" fill="#FFF" d="M0.0005,10.5028 L6.1475,0.2708 L8.3195,1.5438 L2.4485,11.9998 C2.4485,11.9998 -0.0525,10.5938 0.0005,10.5028" mask="url(#mask-2)"/></g><g transform="translate(-37.000000, -81.000000) translate(37.000000, 81.000000) translate(2.000000, 0.000000) translate(0.000000, 0.459400)"><mask id="mask-4" fill="#fff"><use xlink:href="#path-3"/></mask><path id="Fill-3" fill="#FFF" d="M9.3374,1.1668 C10.4554,1.6138 11.9134,2.9568 12.4414,3.0898 C12.6664,3.1468 12.8964,2.9658 13.0224,2.7518 L13.0654,2.6778 C13.1124,2.5968 13.2194,2.5688 13.3014,2.6168 L15.8364,4.1038 C15.9934,4.1958 16.0464,4.3988 15.9544,4.5558 L13.6774,8.4398 C13.5854,8.5968 13.3824,8.6498 13.2254,8.5578 L10.6894,7.0708 C10.6074,7.0228 10.5794,6.9168 10.6274,6.8358 L10.6714,6.7618 C10.8164,6.5118 10.5994,5.9918 10.5884,5.9918 C9.4794,6.0038 8.8514,7.4508 8.8514,7.4508 L6.8424,6.2728 C6.8424,6.2728 7.4594,4.6358 7.1354,3.6628 C6.2824,1.1068 0.7444,1.9588 0.7444,1.9588 C0.7444,1.9588 4.8964,-0.6102 9.3374,1.1668" mask="url(#mask-4)"/></g></g></g></g></g></g></svg>