<svg xmlns="http://www.w3.org/2000/svg" xmlns:xlink="http://www.w3.org/1999/xlink" width="22" height="22" version="1.1" viewBox="0 0 22 22"><title>BB8FE8D3-C64F-4AFB-AE9B-C91317B9AE21</title><g id="页面-1" fill="none" fill-rule="evenodd" stroke="none" stroke-width="1"><g id="r" fill-rule="nonzero" transform="translate(-1278.000000, -543.000000)"><g id="需求反馈" transform="translate(1278.000000, 543.000000)"><rect id="矩形" width="22" height="22" x="0" y="0" fill="#D8D8D8" opacity="0"/><path id="椭圆形" fill="#FFF" d="M11,2 C15.9705627,2 20,6.02943725 20,11 C20,15.9705627 15.9705627,20 11,20 C6.02943725,20 2,15.9705627 2,11 C2,6.02943725 6.02943725,2 11,2 Z M11,3 C6.581722,3 3,6.581722 3,11 C3,15.418278 6.581722,19 11,19 C15.418278,19 19,15.418278 19,11 C19,6.581722 15.418278,3 11,3 Z"/><path id="路径" fill="#FFF" d="M13.5716667,8.14575605 L9.3075,8.14575605 L9.3075,7 L6,9.0002182 L9.3075,11 L9.3075,9.95417848 L13.5714583,9.95417848 C13.9587202,9.95453938 14.2725721,10.2832517 14.2729167,10.6888501 L16,10.6888501 C16,9.28671176 14.910625,8.14575605 13.5716667,8.14575605 L13.5716667,8.14575605 Z"/><path id="路径" fill="#FFF" d="M16,13.9997818 L12.6925,12 L12.6925,13.0458215 L8.42833333,13.0458215 C8.04107142,13.0454606 7.72721959,12.7167482 7.726875,12.3111499 L6,12.3111499 C6,13.7135064 7.089375,14.8542439 8.42833333,14.8542439 L12.6922917,14.8542439 L12.6922917,16 L16,13.9997818 Z"/><circle id="椭圆形备份" cx="19.5" cy="10.5" r="1.5" fill="#FFF"/><circle id="椭圆形备份-2" cx="11" cy="19.5" r="1.5" fill="#FFF"/><circle id="椭圆形备份-3" cx="2.5" cy="10.5" r="1.5" fill="#FFF"/><circle id="椭圆形" cx="11" cy="2.5" r="1.5" fill="#FFF"/></g></g></g></svg>