<svg xmlns="http://www.w3.org/2000/svg" xmlns:xlink="http://www.w3.org/1999/xlink" width="22" height="22" version="1.1" viewBox="0 0 22 22"><title>微应用配置中心</title><g id="页面-1" fill="none" fill-rule="evenodd" stroke="none" stroke-width="1"><g id="Apple-TV备份-2" transform="translate(-903.000000, -482.000000)"><g id="微应用配置中心" transform="translate(903.000000, 482.000000)"><rect id="矩形" width="22" height="22" x="0" y="0"/><rect id="矩形" width="20" height="20" x="1" y="1" stroke="#FFF" rx="2"/><circle id="椭圆形" cx="11" cy="11" r="1" fill="#FFF"/><g id="编组-27" stroke="#FFF" transform="translate(3.000000, 3.000000)"><g id="编组-26" transform="translate(1.000000, 0.000000)"><circle id="椭圆形" cx="2" cy="2" r="2"/></g><g id="编组-26" stroke-linecap="round" transform="translate(0.000000, 4.000000)"><path id="直线-6" d="M3,0.5 L3,8.5 C3,10.1568542 1.65685425,11.5 -2.27151631e-13,11.5 L-2.27151631e-13,11.5 L-2.27151631e-13,11.5"/></g></g><g id="编组-27" stroke="#FFF" transform="translate(16.500000, 10.500000) rotate(-180.000000) translate(-16.500000, -10.500000) translate(14.000000, 2.500000)"><g id="编组-26" transform="translate(1.000000, 0.000000)"><circle id="椭圆形" cx="2" cy="2" r="2"/></g><g id="编组-26" stroke-linecap="round" transform="translate(0.000000, 4.000000)"><path id="直线-6" d="M3,0.5 L3,8.5 C3,10.1568542 1.65685425,11.5 -2.27151631e-13,11.5 L-2.27151631e-13,11.5 L-2.27151631e-13,11.5"/></g></g><line id="路径-19" x1="11" x2="11" y1="3" y2="7" stroke="#FFF" stroke-linecap="round"/><line id="路径-19备份" x1="11" x2="11" y1="14.5" y2="18.5" stroke="#FFF" stroke-linecap="round"/><path id="路径" fill-rule="nonzero" stroke="#FFF" stroke-linejoin="round" d="M11.8033824,7.42100819 C11.7005836,7.92614869 11.9384188,8.4054794 12.354147,8.64317151 C12.7033455,8.84282532 13.1375893,8.84924852 13.4985861,8.6466211 L13.4985861,8.6466211 L14.5199102,9.91793216 C14.0277102,10.0771348 13.7242491,10.5190261 13.7246145,10.9946147 C13.7249198,11.3921167 13.9374222,11.7658303 14.2948054,11.9702511 L14.2948054,11.9702511 L13.6975387,13.4948086 C13.3074283,13.1558188 12.7695662,13.1191011 12.3529209,13.3574966 C12.0049772,13.5565825 11.7817457,13.9249081 11.7786548,14.3360257 L11.7786548,14.3360257 L10.1723173,14.5787553 C10.2570114,14.1163442 10.0768508,13.7074032 9.76681949,13.4580035 C9.53759764,13.2736097 9.23740802,13.1763247 8.9196805,13.2084391 L8.9196805,13.2084391 L7.07772742,12.14755 C7.78492708,12.1251091 8.24578909,11.5888619 8.24662525,11.000845 C8.24719111,10.6029078 8.03701782,10.2280168 7.68181773,10.0197906 L7.68181773,10.0197906 L8.27039247,8.50400008 C8.66061281,8.84409484 9.19924636,8.88117792 9.61637922,8.64250341 C9.96438284,8.44338317 10.1876314,8.07496499 10.1906469,7.66376189 L10.1906469,7.66376189 Z"/></g></g></g></svg>