<svg xmlns="http://www.w3.org/2000/svg" xmlns:xlink="http://www.w3.org/1999/xlink" width="18" height="18" version="1.1" viewBox="0 0 18 18"><title>编组 6备份</title><desc>Created with Sketch.</desc><g id="f" fill="none" fill-rule="evenodd" stroke="none" stroke-width="1"><g id="编组-6备份" transform="translate(1.000000, 1.000000)"><g id="编组" transform="translate(4.528302, 5.132075)"><ellipse id="椭圆形" cx="3.019" cy="8" fill="#ADADAD" fill-opacity=".448" rx="2.415" ry="1"/><path id="形状结合" fill="#FFF" fill-rule="nonzero" d="M3.01886792,-2.48689958e-14 C3.74149401,-2.48689958e-14 4.48154438,0.264436754 5.0412293,0.743738297 C5.67526855,1.28670716 6.03773585,2.06202103 6.03773585,2.98556441 C6.03773585,4.26276217 5.12659425,5.7645922 3.33734292,7.53409496 L3.01886792,7.8490566 L2.70039293,7.53409496 C0.9111416,5.7645922 -1.070255e-13,4.26276217 -1.070255e-13,2.98556441 C-1.070255e-13,2.06202103 0.3624673,1.28671708 0.996506549,0.743738297 C1.55619147,0.264426828 2.29624184,-2.48689958e-14 3.01886792,-2.48689958e-14 Z M3.00784591,1.47543239 C2.35006289,1.47543239 1.8168239,2.00867138 1.8168239,2.6664544 C1.8168239,3.32423742 2.35006289,3.85747642 3.00784591,3.85747642 C3.66562893,3.85747642 4.19886792,3.32423742 4.19886792,2.6664544 C4.19886792,2.00867138 3.66562893,1.47543239 3.00784591,1.47543239 Z"/></g><path id="椭圆形" stroke="#FFF" stroke-dasharray="7" stroke-linecap="round" d="M7.54716981,16 C11.7153566,16 15.0943396,12.621017 15.0943396,8.45283019 C15.0943396,4.2846434 11.7153566,0.905660377 7.54716981,0.905660377 C3.37898302,0.905660377 0,4.2846434 0,8.45283019 C0,12.621017 3.37898302,16 7.54716981,16 Z"/><circle id="椭圆形" cx="6.509" cy="1.509" r="1.509" stroke="#FFF"/><circle id="椭圆形备份-2" cx="1.509" cy="11.509" r="1.509" stroke="#FFF"/><circle id="椭圆形备份-3" cx="14.491" cy="9.358" r="1.509" stroke="#FFF"/></g></g></svg>