<svg xmlns="http://www.w3.org/2000/svg" xmlns:xlink="http://www.w3.org/1999/xlink" width="20" height="20" version="1.1" viewBox="0 0 20 20"><title>画板</title><desc>Created with Sketch.</desc><defs><linearGradient id="linearGradient-1" x1="0%" x2="100%" y1="50%" y2="50%"><stop offset="0%" stop-color="#1452CC"/><stop offset="100%" stop-color="#28C6CC"/></linearGradient></defs><g id="页面-1" fill="none" fill-rule="evenodd" stroke="none" stroke-width="1"><g id="画板"><g id="编组"><path id="矩形" fill="#FFF" d="M9,3 L16,3 C16.5522847,3 17,3.44771525 17,4 L17,6 C17,6.55228475 16.5522847,7 16,7 L9,7 C8.44771525,7 8,6.55228475 8,6 L8,4 C8,3.44771525 8.44771525,3 9,3 Z"/><path id="矩形" fill="#FFF" d="M9,8 L16,8 C16.5522847,8 17,8.44771525 17,9 L17,16 C17,16.5522847 16.5522847,17 16,17 L9,17 C8.44771525,17 8,16.5522847 8,16 L8,9 C8,8.44771525 8.44771525,8 9,8 Z"/><rect id="矩形" width="4" height="14" x="3" y="3" fill="#FFF" rx="1"/><rect id="矩形" width="19" height="19" x=".5" y=".5" stroke="#FFF" rx="1"/></g></g></g></svg>