<svg xmlns="http://www.w3.org/2000/svg" xmlns:xlink="http://www.w3.org/1999/xlink" width="22" height="22" version="1.1" viewBox="0 0 22 22"><title>服务观测小产品</title><g id="页面-1" fill="none" fill-rule="evenodd" stroke="none" stroke-width="1"><g id="Apple-TV备份-2" transform="translate(-78.000000, -559.000000)"><g id="服务观测小产品" transform="translate(78.000000, 559.000000)"><rect id="矩形备份-33" width="22" height="22" x="0" y="0"/><g id="编组-18备份" transform="translate(1.000000, 1.000000)"><rect id="矩形" width="20" height="20" x="0" y="0" stroke="#FFF" stroke-linecap="round" stroke-linejoin="round" rx="2"/><g id="编组-17" transform="translate(4.545455, 2.272727)"><rect id="矩形" width="4.545" height="4.545" x="3.182" y="5.909" fill="#FFF" rx="2"/><rect id="矩形备份-29" width="3.636" height="3.636" x="9.091" y="0" fill="#FFF" rx=".5"/><rect id="矩形备份-30" width="3.636" height="3.636" x="10.455" y="12.273" fill="#FFF" rx=".5"/><line id="路径-17" x1="6.818" x2="11.364" y1="9.545" y2="13.182" stroke="#FFF"/><line id="路径-18" x1="6.455" x2="9.773" y1="7.227" y2="2.727" stroke="#FFF"/><line id="路径-3" x1=".455" x2="3.864" y1="3.182" y2="6.591" stroke="#FFF"/><line id="路径-4" x1=".227" x2="3.864" y1="11.591" y2="9.773" stroke="#FFF"/></g><rect id="矩形备份-25" width="3.636" height="3.636" x="2.727" y="12.273" fill="#FFF" rx=".5"/><rect id="矩形备份-31" width="3.636" height="3.636" x="1.818" y="2.273" fill="#FFF" rx=".5"/></g></g></g></g></svg>