<svg xmlns="http://www.w3.org/2000/svg" xmlns:xlink="http://www.w3.org/1999/xlink" width="22" height="20" version="1.1" viewBox="0 0 22 20"><title>91920A4E-7A1B-4722-A8A9-9C468B9CEBA7</title><desc>Created with Sketch.</desc><g id="迭代一" fill="none" fill-rule="evenodd" stroke="none" stroke-linecap="round" stroke-linejoin="round" stroke-width="1"><g id="Easyops5.0/工作空间列表" stroke="#FFF" transform="translate(-19.000000, -81.000000)"><g id="工作空间" transform="translate(20.000000, 81.000000)"><path id="Stroke-1" d="M19.8027,14.9183 L1.1977,14.9183 C0.8137,14.9183 0.4997,14.6053 0.4997,14.2213 L0.4997,1.1973 C0.4997,0.8143 0.8137,0.5003 1.1977,0.5003 L19.8027,0.5003 C20.1867,0.5003 20.4997,0.8143 20.4997,1.1973 L20.4997,14.2213 C20.4997,14.6053 20.1867,14.9183 19.8027,14.9183 Z"/><line id="Stroke-3" x1=".559" x2="20.442" y1="12.186" y2="12.186"/><line id="Stroke-5" x1="5.791" x2="15.209" y1="19.395" y2="19.395"/><line id="Stroke-7" x1="9.512" x2="9.512" y1="14.977" y2="19.395"/><line id="Stroke-9" x1="11.721" x2="11.721" y1="14.918" y2="19.337"/><line id="Stroke-11" x1="7.331" x2="16.804" y1="4.745" y2="4.745"/><line id="Stroke-13" x1="5.181" x2="4.134" y1="4.745" y2="4.745"/><line id="Stroke-15" x1="7.394" x2="16.867" y1="8.698" y2="8.698"/><line id="Stroke-17" x1="5.238" x2="4.191" y1="8.698" y2="8.698"/></g></g></g></svg>