<svg xmlns="http://www.w3.org/2000/svg" xmlns:xlink="http://www.w3.org/1999/xlink" width="16" height="16" version="1.1" viewBox="0 0 16 16"><title>7D156958-D51B-4E91-81E5-0DEED3D8DEFC</title><g id="页面-1" fill="none" fill-rule="evenodd" stroke="none" stroke-width="1"><g id="参数" fill-rule="nonzero"><rect id="矩形" width="16" height="16" x="0" y="0" fill="#000" opacity="0"/><polygon id="路径" fill="#999" points="14.166 10.97 10.925 10.97 10.251 9.755 7.426 10.938 8.097 11.608 7.178 14.82 3.966 15.739 1.673 13.447 2.592 10.235 5.804 9.316 6.689 10.2 9.78 8.905 9.304 8.049 10.114 6.59 9.952 6.752 6.064 4.529 6.064 5.13 3.143 6.751 .222 5.13 .222 1.888 3.143 .267 6.064 1.888 6.064 3.382 10.438 6.005 10.925 5.128 14.167 5.128 15.788 8.049 14.167 10.97"/></g></g></svg>