<svg xmlns="http://www.w3.org/2000/svg" xmlns:xlink="http://www.w3.org/1999/xlink" width="78" height="72" version="1.1" viewBox="0 0 78 72"><title>编组 3</title><desc>Created with Sketch.</desc><defs><polygon id="path-1" points="35.251 50.545 60.743 50.463 60.67 73.076 35.178 73.159"/></defs><g id="页面1" fill="none" fill-rule="evenodd" stroke="none" stroke-width="1" opacity=".724"><g id="编组-3" transform="translate(38.000000, 45.500000) rotate(-45.000000) translate(-38.000000, -45.500000) translate(-1.000000, 6.000000)"><polygon id="Fill-1" fill="#6BAAF4" points="64.585 52.661 42.583 29.1 44.702 26.209 66.704 49.77" transform="translate(54.643427, 39.434961) rotate(-315.000000) translate(-54.643427, -39.434961)"/><polygon id="Fill-2" fill="#6BAAF4" points="29.708 39.544 27.783 36.444 48.104 10.929 50.028 14.029" transform="translate(38.905719, 25.236141) rotate(-315.000000) translate(-38.905719, -25.236141)"/><path id="Fill-3" fill="#6BAAF4" d="M71.718003,28.3493831 L50.0303794,28.4193825 C48.9800942,28.422762 48.1314434,27.5597441 48.1348794,26.4917936 L48.1953868,7.74563343 C48.1988333,6.67768294 49.053072,5.80916949 50.1033571,5.80578005 L71.7909808,5.73578057 C72.8412659,5.73240108 73.6911914,6.59541491 73.6877553,7.66336541 L73.627248,26.4095256 C73.6238015,27.4774761 72.7682882,28.3459936 71.718003,28.3493831" transform="translate(60.911317, 17.077582) rotate(-315.000000) translate(-60.911317, -17.077582)"/><path id="Fill-6" fill="#6BAAF4" d="M22.2210358,35.4705088 C23.2747104,35.4705088 24.1301817,36.3347724 24.1301817,37.3992764 L24.1301817,56.0836478 C24.1301817,57.1481518 23.2747104,58.0111236 22.2210358,58.0111236 L0.463422664,58.0111236 C-0.590251932,58.0111236 -1.44444444,57.1481518 -1.44444444,56.0836478 L-1.44444444,37.3992764 C-1.44444444,36.3347724 -0.590251932,35.4705088 0.463422664,35.4705088 L22.2210358,35.4705088 Z M65.1209367,35.4705088 C66.1746113,35.4705088 67.0300825,36.3347724 67.0300825,37.3992764 L67.0300825,56.0836478 C67.0300825,57.1481518 66.1746113,58.0111236 65.1209367,58.0111236 L43.3633235,58.0111236 C42.3096489,58.0111236 41.4554564,57.1481518 41.4554564,56.0836478 L41.4554564,37.3992764 C41.4554564,36.3347724 42.3096489,35.4705088 43.3633235,35.4705088 L65.1209367,35.4705088 Z" transform="translate(32.792819, 46.740816) rotate(-315.000000) translate(-32.792819, -46.740816)"/><mask id="mask-2" fill="#fff"><use xlink:href="#path-1"/></mask></g></g></svg>