<svg xmlns="http://www.w3.org/2000/svg" xmlns:xlink="http://www.w3.org/1999/xlink" width="18" height="18" version="1.1" viewBox="0 0 18 18"><title>快速添加我备份</title><g id="数据录入" fill="none" fill-rule="evenodd" stroke="none" stroke-width="1"><g id="快速添加我备份" transform="translate(1.000000, 1.000000)"><path id="路径" stroke="#0071EB" stroke-linecap="round" d="M8.81610451,1.09459856 C8.26987678,0.960184492 7.69881994,0.888888889 7.11111111,0.888888889 C3.18375289,0.888888889 0,4.07264178 0,8 C0,11.9273582 3.18375289,15.1111111 7.11111111,15.1111111 C11.0384693,15.1111111 14.2222222,11.9273582 14.2222222,8"/><circle id="椭圆形" cx="7.111" cy="5.778" r="2.222" fill="#0071EB"/><path id="路径" fill="#0071EB" d="M11.5555556,11.5555556 C11.5555556,10.5327566 11.0157232,9.61082529 10.1515626,8.9621649 C9.35661498,8.36545753 8.28721129,8 7.11111111,8 C6.13498924,8 5.23236436,8.25174241 4.49914706,8.67849873 C3.38858398,9.32488259 2.66666667,10.3727739 2.66666667,11.5555556"/><line id="直线-9" x1="15.556" x2="15.556" y1="3.111" y2="3.111" stroke="#979797" stroke-linecap="square"/><line id="直线-10" x1="10.667" x2="15.111" y1="3.365" y2="3.365" stroke="#0071EB" stroke-linecap="round"/><line id="直线-10" x1="12.889" x2="12.889" y1="5.587" y2="1.143" stroke="#0071EB" stroke-linecap="round"/></g></g></svg>