<svg xmlns="http://www.w3.org/2000/svg" xmlns:xlink="http://www.w3.org/1999/xlink" width="15" height="16" version="1.1" viewBox="0 0 15 16"><title>4A60301D-EE88-4269-97DB-46FF2823AA3E</title><desc>Created with Sketch.</desc><g id="迭代一、二" fill="none" fill-rule="evenodd" stroke="none" stroke-width="1"><g id="Easyops-5.0-IDC首页" stroke="#FFF" transform="translate(-44.000000, -139.000000)"><g id="部署资源组" transform="translate(44.000000, 140.000000)"><polyline id="Stroke-1" stroke-linecap="round" points=".5 4.552 .5 .5 4.552 .5"/><polyline id="Stroke-3" stroke-linecap="round" points="14.5 4.552 14.5 .5 10.448 .5"/><polyline id="Stroke-5" stroke-linecap="round" points=".5 10.448 .5 14.5 4.552 14.5"/><polyline id="Stroke-7" stroke-linecap="round" points="14.5 10.448 14.5 14.5 10.448 14.5"/><path id="Stroke-9" d="M11.0352,8.207 L8.2072,11.036 C7.8162,11.426 7.1832,11.426 6.7932,11.036 L3.9652,8.207 C3.5742,7.816 3.5742,7.184 3.9652,6.793 L6.7932,3.964 C7.1832,3.574 7.8162,3.574 8.2072,3.964 L11.0352,6.793 C11.4262,7.184 11.4262,7.816 11.0352,8.207 Z"/></g></g></g></svg>