<svg xmlns="http://www.w3.org/2000/svg" xmlns:xlink="http://www.w3.org/1999/xlink" width="16" height="17" version="1.1" viewBox="0 0 16 17"><title>5CF8222E-CF69-44F0-BA87-A4A37E13D975</title><desc>Created with Sketch.</desc><g id="页面-1" fill="none" fill-rule="evenodd" stroke="none" stroke-width="1"><g id="Easyops-5.0-IDC首页" transform="translate(-43.000000, -299.000000)"><g id="服务器管理" transform="translate(43.000000, 299.000000)"><g id="icon/服务器管理"><path id="Stroke-1" stroke="#FFF" stroke-linecap="round" d="M14.415,12.9338 L1.2,12.9338 C0.884,12.9338 0.625,12.6748 0.625,12.3588 L0.625,8.3368 C0.625,8.0208 0.884,7.7628 1.2,7.7628 L14.415,7.7628 C14.731,7.7628 14.99,8.0208 14.99,8.3368 L14.99,12.3588 C14.99,12.6748 14.731,12.9338 14.415,12.9338 Z"/><path id="Fill-3" fill="#FFF" d="M7.0683,10.3483 C7.0683,10.6653 6.8113,10.9223 6.4933,10.9223 C6.1763,10.9223 5.9193,10.6653 5.9193,10.3483 C5.9193,10.0313 6.1763,9.7733 6.4933,9.7733 C6.8113,9.7733 7.0683,10.0313 7.0683,10.3483"/><path id="Fill-5" fill="#FFF" d="M8.9731,15.2897 C8.9731,15.9577 8.4311,16.4997 7.7631,16.4997 C7.0941,16.4997 6.5521,15.9577 6.5521,15.2897 C6.5521,14.6217 7.0941,14.0797 7.7631,14.0797 C8.4311,14.0797 8.9731,14.6217 8.9731,15.2897"/><path id="Fill-7" fill="#FFF" d="M9.6537,10.3483 C9.6537,10.6653 9.3967,10.9223 9.0797,10.9223 C8.7617,10.9223 8.5047,10.6653 8.5047,10.3483 C8.5047,10.0313 8.7617,9.7733 9.0797,9.7733 C9.3967,9.7733 9.6537,10.0313 9.6537,10.3483"/><path id="Stroke-9" stroke="#FFF" stroke-linecap="round" stroke-width=".807" d="M12.5268,10.0607 L12.5268,10.6357"/><path id="Stroke-11" stroke="#FFF" stroke-linecap="round" d="M14.415,5.6711 L1.2,5.6711 C0.884,5.6711 0.625,5.4121 0.625,5.0961 L0.625,1.0741 C0.625,0.7581 0.884,0.5001 1.2,0.5001 L14.415,0.5001 C14.731,0.5001 14.99,0.7581 14.99,1.0741 L14.99,5.0961 C14.99,5.4121 14.731,5.6711 14.415,5.6711 Z"/><path id="Fill-13" fill="#FFF" d="M7.0683,3.0856 C7.0683,3.4026 6.8113,3.6596 6.4933,3.6596 C6.1763,3.6596 5.9193,3.4026 5.9193,3.0856 C5.9193,2.7686 6.1763,2.5106 6.4933,2.5106 C6.8113,2.5106 7.0683,2.7686 7.0683,3.0856"/><path id="Fill-15" fill="#FFF" d="M9.6537,3.0856 C9.6537,3.4026 9.3967,3.6596 9.0797,3.6596 C8.7617,3.6596 8.5047,3.4026 8.5047,3.0856 C8.5047,2.7686 8.7617,2.5106 9.0797,2.5106 C9.3967,2.5106 9.6537,2.7686 9.6537,3.0856"/><path id="Stroke-17" stroke="#FFF" stroke-linecap="round" stroke-width=".807" d="M12.5268,2.798 L12.5268,3.373"/><path id="Stroke-19" stroke="#FFF" stroke-linecap="round" d="M0.4999,15.2897 L15.0249,15.2897"/><path id="Stroke-21" stroke="#FFF" stroke-linecap="square" d="M7.7626,15.2897 L7.7626,13.6757"/></g></g></g></g></svg>