<svg xmlns="http://www.w3.org/2000/svg" xmlns:xlink="http://www.w3.org/1999/xlink" width="52" height="52" version="1.1" viewBox="0 0 52 52"><title>access-switch</title><g id="页面-1" fill="none" fill-rule="evenodd" stroke="none" stroke-width="1"><g id="access-switch" fill-rule="nonzero"><g id="背景区域" fill="#D8D8D8" opacity="0"><rect id="矩形" width="52" height="52" x="0" y="0"/></g><g id="图形" transform="translate(2.000000, 6.000000)"><polygon id="路径-7" fill="#ABBCC4" points="23.967 39.299 23.967 30.99 47.934 15.818 47.934 24.373"/><polygon id="路径-7备份-2" fill="#D9E3EC" points="0 39.299 0 30.99 23.967 15.818 23.967 24.373" transform="translate(11.983471, 27.558470) scale(-1, 1) translate(-11.983471, -27.558470)"/><polygon id="路径-4" fill="#416480" points="23.967 30.99 47.934 15.818 23.967 .163 0 15.818"/><polygon id="路径-4备份" fill="#416480" stroke="#BAC9D1" stroke-width=".6" points="23.967 1.941 44.985 15.769 23.967 29.171 2.949 15.769"/></g><g id="编组-4" transform="translate(15.000000, 14.000000)"><polygon id="路径" fill="#23CCD1" points="12.147 .386 6 0 7.507 2.61 9.056 1.871 14.447 4 16 3.227 10.599 1.128" transform="translate(11.000000, 2.000000) scale(-1, 1) translate(-11.000000, -2.000000)"/><polygon id="路径" fill="#23CCD1" points="19.147 3.48 13 3 14.495 5.537 16.047 4.854 21.438 7 23 6.272 17.605 4.171" transform="translate(18.000000, 5.000000) scale(-1, 1) translate(-18.000000, -5.000000)"/><polygon id="路径" fill="#FFF" points="3.812 9.7 10 10 8.524 7.295 6.954 8.096 1.56 6 0 6.761 5.392 8.895" transform="translate(5.000000, 8.000000) scale(-1, 1) translate(-5.000000, -8.000000)"/><polygon id="路径" fill="#FFF" points="14.39 11.545 8.611 9 7.039 9.708 13.039 12.651 11.039 13.587 17 14 16.139 10.104" transform="translate(12.019425, 11.500000) scale(-1, 1) translate(-12.019425, -11.500000)"/></g></g></g></svg>