<svg xmlns="http://www.w3.org/2000/svg" xmlns:xlink="http://www.w3.org/1999/xlink" width="42" height="42" version="1.1" viewBox="0 0 42 42"><title>administrator</title><g id="页面-1" fill="none" fill-rule="evenodd" stroke="none" stroke-width="1"><g id="administrator"><g id="背景区域" fill="#D8D8D8" fill-rule="nonzero" opacity="0"><rect id="矩形" width="42" height="42" x="0" y="0"/></g><g id="底块" transform="translate(0.909091, 0.424242)"><polygon id="路径-7备份-2" fill="#416480" fill-rule="nonzero" points=".091 39.576 .091 5.576 34.091 5.576 34.091 39.576" transform="translate(17.090909, 22.575758) scale(-1, 1) translate(-17.090909, -22.575758)"/><g id="图标" fill-rule="nonzero" transform="translate(9.090909, 12.575758)"><circle id="椭圆形备份-28" cx="8.541" cy="4.811" r="4.811" fill="#3CD1D6"/><path id="路径备份-20" fill="#EFF3F8" d="M8.16216216,16.5405405 C8.16216216,13.9459459 10.1081081,11.7297297 12.7027027,11.4054054 C8.59459459,9.08108108 3.40540541,10.5405405 1.08108108,14.6486486 C0.378378378,15.9459459 0,17.3513514 0,18.8108108 C0,19.027027 4.48648649,19.0810811 8.86486486,19.0810811 C8.43243243,18.3243243 8.16216216,17.4594595 8.16216216,16.5405405 Z"/><path id="形状备份-4" fill="#EFF3F8" d="M16.0540541,16.2702703 C16.0540541,15.8918919 16.2702703,15.5135135 16.6486486,15.4054054 C16.5405405,15.0810811 16.4324324,14.7567568 16.2702703,14.4864865 C15.7837838,14.7027027 15.2432432,14.4864865 15.027027,14 C14.9189189,13.7297297 14.9189189,13.4594595 15.027027,13.2432432 C14.7567568,13.0810811 14.4324324,12.9189189 14.1081081,12.8648649 C13.9459459,13.3513514 13.4054054,13.5675676 12.9189189,13.4054054 C12.6486486,13.2972973 12.4864865,13.1351351 12.3783784,12.8648649 C12.0540541,12.972973 11.7297297,13.0810811 11.4594595,13.2432432 C11.6756757,13.7297297 11.4594595,14.2702703 10.972973,14.4864865 C10.7027027,14.5945946 10.4324324,14.5945946 10.2162162,14.4864865 C10.0540541,14.7567568 9.89189189,15.0810811 9.83783784,15.4054054 C10.2162162,15.5675676 10.4324324,15.8918919 10.4324324,16.2702703 C10.4324324,16.6486486 10.1621622,17.027027 9.83783784,17.1351351 C9.94594595,17.4594595 10.0540541,17.7837838 10.2162162,18.0540541 C10.7027027,17.8378378 11.2432432,18.0540541 11.4594595,18.5405405 C11.5675676,18.8108108 11.5675676,19.0810811 11.4594595,19.2972973 C11.7297297,19.4594595 12.0540541,19.6216216 12.3783784,19.6756757 C12.5405405,19.1891892 13.0810811,18.972973 13.5675676,19.1351351 C13.8378378,19.2432432 14,19.4054054 14.1081081,19.6756757 C14.4324324,19.5675676 14.7567568,19.4594595 15.027027,19.2972973 C14.8108108,18.8108108 15.027027,18.2702703 15.5135135,18.0540541 C15.7297297,17.9459459 16,17.9459459 16.2702703,18.0540541 C16.4324324,17.7837838 16.5945946,17.4594595 16.6486486,17.1351351 C16.2702703,16.972973 16.0540541,16.6486486 16.0540541,16.2702703 Z M13.2432432,17.1891892 C12.7027027,17.1891892 12.2702703,16.7567568 12.2702703,16.2702703 C12.2702703,15.7297297 12.7027027,15.2972973 13.1891892,15.2972973 C13.7297297,15.2972973 14.1621622,15.7297297 14.1621622,16.2162162 C14.1621622,16.2162162 14.1621622,16.2162162 14.1621622,16.2162162 C14.1621622,16.7567568 13.7297297,17.1891892 13.2432432,17.1891892 Z"/></g><polygon id="路径-7备份-6" fill="#EEF3F7" fill-rule="nonzero" points=".091 5.576 6.091 .576 40.091 .576 32.291 5.576" transform="translate(20.090909, 3.075758) rotate(180.000000) translate(-20.090909, -3.075758)"/><polygon id="路径-7备份-5" fill="#AFC0C8" fill-rule="nonzero" points="34.091 33.576 34.091 .576 40.091 5.576 40.091 39.576" transform="translate(37.090909, 20.075758) scale(-1, 1) translate(-37.090909, -20.075758)"/><polygon id="路径-7备份-4" stroke="#FFF" points="31.591 8.076 31.591 37.076 2.591 37.076 2.591 8.076" opacity=".25" transform="translate(17.090909, 22.575758) scale(-1, 1) translate(-17.090909, -22.575758)"/><polygon id="路径-7备份-4" stroke="#32526B" points="30.591 9.076 30.591 36.076 3.591 36.076 3.591 9.076" transform="translate(17.090909, 22.575758) scale(-1, 1) translate(-17.090909, -22.575758)"/></g></g></g></svg>