<svg xmlns="http://www.w3.org/2000/svg" xmlns:xlink="http://www.w3.org/1999/xlink" width="52" height="52" version="1.1" viewBox="0 0 52 52"><title>aggregation-switch</title><g id="页面-1" fill="none" fill-rule="evenodd" stroke="none" stroke-width="1"><g id="aggregation-switch" fill-rule="nonzero"><g id="背景区域" fill="#D8D8D8" opacity="0"><rect id="矩形" width="52" height="52" x="0" y="0"/></g><g id="图形" transform="translate(2.154270, 6.545455)"><polygon id="路径-7" fill="#ABBCC4" points="23.967 39.299 23.967 30.99 47.934 15.818 47.934 24.373"/><polygon id="路径-7备份-2" fill="#D9E3EC" points="0 39.299 0 30.99 23.967 15.818 23.967 24.373" transform="translate(11.983471, 27.558470) scale(-1, 1) translate(-11.983471, -27.558470)"/><polygon id="路径-4" fill="#416480" points="23.967 30.99 47.934 15.818 23.967 .163 0 15.818"/><polygon id="路径-4备份" fill="#416480" stroke="#BAC9D1" stroke-width=".6" points="23.967 1.941 44.985 15.769 23.967 29.171 2.949 15.769"/></g><g id="编组-5" transform="translate(9.730199, 11.000000)"><path id="椭圆形" fill="#FFF" d="M16.6136686,13.9914382 C18.9380866,14.0941392 21.0642067,12.8032721 21.2698011,11.0080809 C21.1353045,9.11765868 19.441017,8.01665432 17.0649951,8.01379637 C14.6461654,7.84239772 12.2732294,9.29324936 12.2857242,10.9616058 C12.0508632,12.8525718 14.4578787,14.1168667 16.6136686,13.9914382 Z"/><polygon id="路径-32" fill="#FFF" points="13.507 3.991 16.309 2.235 16.113 7 17.934 7 18.115 2.235 20.952 4.129 22.27 3.303 17.323 0 12.27 3.166" transform="translate(17.269801, 3.500000) rotate(-180.000000) translate(-17.269801, -3.500000)"/><polygon id="路径-32备份" fill="#FFF" points="13.271 17.925 15.733 16.424 15.719 22 17.617 22 17.617 16.424 19.895 17.925 21.27 17.03 16.791 14 12.27 17.03"/><polygon id="路径-32备份-2" fill="#FFF" points="24.029 9.805 26.559 8.066 26.243 15.973 28.121 15.973 28.421 8.131 30.356 10.026 31.715 8.609 27.616 5.38 22.933 7.939" transform="translate(27.323769, 10.676599) rotate(-92.000000) translate(-27.323769, -10.676599)"/><polygon id="路径-32备份-3" fill="#FFF" points="3.276 9.94 5.4 8.361 5.53 15.802 7.408 15.802 7.263 8.329 9.09 9.792 10.45 8.914 6.426 4.84 2 9.061" transform="translate(6.224904, 10.320732) rotate(91.000000) translate(-6.224904, -10.320732)"/><path id="椭圆形" fill="#23CCD1" d="M16.7209884,12 C18.160392,12 19.2698011,11.2329764 19.2698011,10.4473989 C19.2698011,9.66182149 18.2532896,9 16.813886,9 C15.3744824,9 14.2698011,9.76493929 14.2698011,10.5505167 C14.2698011,11.3360942 15.2815848,12 16.7209884,12 Z"/></g></g></g></svg>