<svg xmlns="http://www.w3.org/2000/svg" xmlns:xlink="http://www.w3.org/1999/xlink" width="56" height="56" version="1.1" viewBox="0 0 56 56"><title>1653FB52-0B73-4B62-9301-3B73F7DDD180</title><g id="页面-1" fill="none" fill-rule="evenodd" stroke="none" stroke-width="1"><g id="aix-physical-machine" fill-rule="nonzero"><g id="背景区域" fill="#D8D8D8" opacity="0"><rect id="矩形" width="56" height="56" x="0" y="0"/></g><g id="图形" transform="translate(4.000000, 2.000000)"><polygon id="路径-7" fill="#ABBCC4" points="24 36.5 24 30 34.706 23.192 48 15 48 21.5 34.831 29.533"/><polygon id="路径-7备份-2" fill="#416480" points="0 36.5 0 30 24 15 24 21.5" transform="translate(12.000000, 25.750000) scale(-1, 1) translate(-12.000000, -25.750000)"/><polygon id="路径-7备份-10" fill="#ABBCC4" points="24 52.5 24 38 48 23 48 37.5 34.861 45.514"/><polygon id="路径-7备份-9" fill="#416480" points="0 52.5 0 38 24 23 24 37.5" transform="translate(12.000000, 37.750000) scale(-1, 1) translate(-12.000000, -37.750000)"/><path id="形状" fill="#23CCD1" d="M4.38716648,37.3601178 L6.61653915,37.187209 C7.76065838,38.4441418 8.33271799,39.0726082 8.33271799,39.0726082 C10.5602464,35.984224 14.9306931,31.6082446 18.6205698,35.8076266 C16.9908454,35.0369138 16.1502313,34.608699 14.6069613,34.9526724 C13.0636913,35.2966459 11.5038682,36.5838722 10.9042199,37.5274939 C11.7626167,38.9561061 12.9643722,40.9561632 14.5094864,43.5276651 L12.7086974,43.4430549 C10.8202245,40.3001081 9.87598798,38.7286347 9.87598798,38.7286347 C9.87598798,38.7286347 9.73312676,38.8144744 9.44740433,38.9861537 L9.1052751,40.3583591 L11.3548252,43.3947121 L9.10711934,43.2738345 L8.07704319,41.5594999 L7.33311713,43.3947121 L4.59199556,43.3947121 L4.38716648,37.3601178 Z M6.27440993,38.5594143 L6.27625417,41.4748897 L7.30448608,40.2737489 L6.27440993,38.5594143 Z M11.3328035,37.2699749 L13.7166876,37.3542163 L15.9644577,39.1535299 L16.0490679,37.3527409 L17.849857,37.4373511 L17.5941822,39.9242428 L17.8517012,40.3528264 L22.1412262,43.6085868 L19.2257508,43.610431 L17.0809883,41.9825508 L16.8418667,43.5261897 L15.0925815,43.5272962 L15.4512639,41.211838 L15.1937449,40.7832543 L11.3328035,37.2699749 Z" transform="translate(13.264196, 38.843606) rotate(31.000000) translate(-13.264196, -38.843606)"/><path id="形状结合" fill="#FFF" d="M20,29.75 L22,31 L22,33 L20,31.75 L20,29.75 Z"/><polygon id="路径-8" fill="#EEF3F7" points="24 30 48 15 24 0 0 15"/></g></g></g></svg>