<svg xmlns="http://www.w3.org/2000/svg" xmlns:xlink="http://www.w3.org/1999/xlink" width="42" height="42" version="1.1" viewBox="0 0 42 42"><title>app</title><g id="页面-1" fill="none" fill-rule="evenodd" stroke="none" stroke-width="1"><g id="app"><g id="背景区域" fill="#D8D8D8" fill-rule="nonzero" opacity="0"><rect id="矩形" width="42" height="42" x="0" y="0"/></g><g id="底块" transform="translate(0.909091, 0.424242)"><polygon id="路径-7备份-2" fill="#416480" fill-rule="nonzero" points=".091 39.576 .091 5.576 34.091 5.576 34.091 39.576" transform="translate(17.090909, 22.575758) scale(-1, 1) translate(-17.090909, -22.575758)"/><polygon id="路径-7备份-6" fill="#EEF3F7" fill-rule="nonzero" points=".091 5.576 6.091 .576 40.091 .576 32.291 5.576" transform="translate(20.090909, 3.075758) rotate(180.000000) translate(-20.090909, -3.075758)"/><polygon id="路径-7备份-5" fill="#AFC0C8" fill-rule="nonzero" points="34.091 33.576 34.091 .576 40.091 5.576 40.091 39.576" transform="translate(37.090909, 20.075758) scale(-1, 1) translate(-37.090909, -20.075758)"/><polygon id="路径-7备份-4" stroke="#FFF" points="31.591 8.076 31.591 37.076 2.591 37.076 2.591 8.076" opacity=".25" transform="translate(17.090909, 22.575758) scale(-1, 1) translate(-17.090909, -22.575758)"/><polygon id="路径-7备份-4" stroke="#32526B" points="30.591 9.076 30.591 36.076 3.591 36.076 3.591 9.076" transform="translate(17.090909, 22.575758) scale(-1, 1) translate(-17.090909, -22.575758)"/></g><g id="Icon/应用" transform="translate(8.000000, 13.000000)"><rect id="矩形" width="20" height="20" x="0" y="0" fill="#D8D8D8" fill-rule="nonzero" opacity="0"/><g id="服务节点"><rect id="矩形备份-3" width="20" height="20" x="0" y="0" fill="#D8D8D8" fill-rule="nonzero" opacity="0"/><g id="应用备份" transform="translate(1.000000, 1.000000)"><rect id="矩形1" width="18" height="18" x="0" y="0"/><g id="编组-31" fill-rule="nonzero"><g id="编组-4"><path id="路径" fill="#23CCD1" d="M3.9,-2.7533531e-14 C1.75,-2.7533531e-14 -2.79776202e-14,1.75 -2.79776202e-14,3.9 C-2.79776202e-14,6.05 1.75,7.8 3.9,7.8 L7.35,7.8 C7.6,7.8 7.85,7.6 7.85,7.3 L7.85,3.85 C7.8,1.75 6.05,-2.7533531e-14 3.9,-2.7533531e-14 Z"/><path id="路径" fill="#EFF3F8" d="M13.7,-2.7533531e-14 C15.85,-2.7533531e-14 17.6,1.75 17.6,3.9 C17.6,6.05 15.85,7.8 13.7,7.8 L10.25,7.8 C10,7.8 9.75,7.6 9.75,7.3 L9.75,3.85 C9.8,1.75 11.55,-2.7533531e-14 13.7,-2.7533531e-14 Z"/><path id="路径" fill="#EFF3F8" d="M3.9,17.65 C1.75,17.65 -2.79776202e-14,15.9 -2.79776202e-14,13.75 C-2.79776202e-14,11.6 1.75,9.85 3.9,9.85 L7.35,9.85 C7.6,9.85 7.85,10.05 7.85,10.35 L7.85,13.8 C7.8,15.9 6.05,17.65 3.9,17.65 Z"/><path id="路径" fill="#EFF3F8" d="M13.7,17.65 C15.85,17.65 17.6,15.9 17.6,13.75 C17.6,11.6 15.85,9.85 13.7,9.85 L10.25,9.85 C10,9.85 9.75,10.05 9.75,10.35 L9.75,13.8 C9.8,15.9 11.55,17.65 13.7,17.65 Z"/></g></g></g></g></g></g></g></svg>