<svg xmlns="http://www.w3.org/2000/svg" xmlns:xlink="http://www.w3.org/1999/xlink" width="42" height="42" version="1.1" viewBox="0 0 42 42"><title>business</title><g id="页面-1" fill="none" fill-rule="evenodd" stroke="none" stroke-width="1"><g id="business"><g id="背景区域" fill="#D8D8D8" fill-rule="nonzero" opacity="0"><rect id="矩形" width="42" height="42" x="0" y="0"/></g><g id="底块" transform="translate(0.909091, 0.424242)"><polygon id="路径-7备份-2" fill="#416480" fill-rule="nonzero" points=".091 39.576 .091 5.576 34.091 5.576 34.091 39.576" transform="translate(17.090909, 22.575758) scale(-1, 1) translate(-17.090909, -22.575758)"/><polygon id="路径-7备份-6" fill="#EEF3F7" fill-rule="nonzero" points=".091 5.576 6.091 .576 40.091 .576 32.291 5.576" transform="translate(20.090909, 3.075758) rotate(180.000000) translate(-20.090909, -3.075758)"/><polygon id="路径-7备份-5" fill="#AFC0C8" fill-rule="nonzero" points="34.091 33.576 34.091 .576 40.091 5.576 40.091 39.576" transform="translate(37.090909, 20.075758) scale(-1, 1) translate(-37.090909, -20.075758)"/><polygon id="路径-7备份-4" stroke="#FFF" points="31.591 8.076 31.591 37.076 2.591 37.076 2.591 8.076" opacity=".25" transform="translate(17.090909, 22.575758) scale(-1, 1) translate(-17.090909, -22.575758)"/><polygon id="路径-7备份-4" stroke="#32526B" points="30.591 9.076 30.591 36.076 3.591 36.076 3.591 9.076" transform="translate(17.090909, 22.575758) scale(-1, 1) translate(-17.090909, -22.575758)"/></g><g id="Icon/业务" transform="translate(8.000000, 13.000000)"><rect id="矩形" width="20" height="20" x="0" y="0" fill="#D8D8D8" fill-rule="nonzero" opacity="0"/><g id="服务节点"><rect id="矩形备份-3" width="20" height="20" x="0" y="0" fill="#D8D8D8" fill-rule="nonzero" opacity="0"/><g id="业务" transform="translate(1.000000, 1.000000)"><rect id="矩形" width="18" height="18" x="0" y="0"/><g id="编组-58备份" fill-rule="nonzero" transform="translate(0.000000, 1.000000)"><g id="编组-3"><path id="形状结合" fill="#23CCD1" d="M16.7538462,3 C17.2615385,3 17.6769231,3.41538462 17.6769231,3.92307692 L17.6769231,15.2307692 C17.6769231,15.7384615 17.2615385,16.1538462 16.7538462,16.1538462 L0.923076923,16.1538462 C0.415384615,16.1538462 1.70530257e-13,15.7384615 1.70530257e-13,15.2307692 L1.70530257e-13,3.92307692 C1.70530257e-13,3.41538462 0.415384615,3 0.923076923,3 L16.7538462,3 Z M6.36923077,7.33846154 L3.18461538,7.33846154 L3.18461538,9.36923077 L6.36923077,9.36923077 L6.36923077,7.33846154 Z M14.4923077,7.33846154 L11.3076923,7.33846154 L11.3076923,9.36923077 L14.4923077,9.36923077 L14.4923077,7.33846154 Z"/><path id="路径" fill="#EFF3F8" d="M12.4615385,0 C13.217379,0 13.8387708,0.59439744 13.8821918,1.33967046 L13.8846154,1.42307692 L13.8846154,3 L12.8846154,3 L12.8846154,1.42307692 C12.8846154,1.20933852 12.7214208,1.02970251 12.5141936,1.00333093 L12.4615385,1 L5.21538462,1 C4.98287701,1 4.81912264,1.14083921 4.79530544,1.36526281 L4.79230769,1.42307692 L4.79230769,3 L3.79230769,3 L3.79230769,1.42307692 C3.79230769,0.634218306 4.3749577,0.0434861584 5.13071949,0.00229720225 L5.21538462,0 L12.4615385,0 Z"/><path id="路径" fill="#EFF3F8" d="M0,9.36923077 L0,15.2769231 C0,15.7846154 0.415384615,16.2 0.923076923,16.2 L16.7538462,16.2 C17.2615385,16.2 17.6769231,15.7846154 17.6769231,15.2769231 L17.6769231,9.36923077 L0,9.36923077 Z"/></g></g></g></g></g></g></g></svg>