<svg xmlns="http://www.w3.org/2000/svg" xmlns:xlink="http://www.w3.org/1999/xlink" width="42" height="42" version="1.1" viewBox="0 0 42 42"><title>cloud-backup</title><g id="页面-1" fill="none" fill-rule="evenodd" stroke="none" stroke-width="1"><g id="cloud-backup"><g id="背景区域" fill="#D8D8D8" fill-rule="nonzero" opacity="0"><rect id="矩形" width="42" height="42" x="0" y="0"/></g><g id="底块" transform="translate(0.909091, 0.424242)"><polygon id="路径-7备份-2" fill="#416480" fill-rule="nonzero" points=".091 39.576 .091 5.576 34.091 5.576 34.091 39.576" transform="translate(17.090909, 22.575758) scale(-1, 1) translate(-17.090909, -22.575758)"/><polygon id="路径-7备份-6" fill="#EEF3F7" fill-rule="nonzero" points=".091 5.576 6.091 .576 40.091 .576 32.291 5.576" transform="translate(20.090909, 3.075758) rotate(180.000000) translate(-20.090909, -3.075758)"/><polygon id="路径-7备份-5" fill="#AFC0C8" fill-rule="nonzero" points="34.091 33.576 34.091 .576 40.091 5.576 40.091 39.576" transform="translate(37.090909, 20.075758) scale(-1, 1) translate(-37.090909, -20.075758)"/><polygon id="路径-7备份-4" stroke="#FFF" points="31.591 8.076 31.591 37.076 2.591 37.076 2.591 8.076" opacity=".25" transform="translate(17.090909, 22.575758) scale(-1, 1) translate(-17.090909, -22.575758)"/><polygon id="路径-7备份-4" stroke="#32526B" points="30.591 9.076 30.591 36.076 3.591 36.076 3.591 9.076" transform="translate(17.090909, 22.575758) scale(-1, 1) translate(-17.090909, -22.575758)"/></g><g id="Icon/云备份" transform="translate(8.000000, 13.000000)"><rect id="矩形" width="20" height="20" x="0" y="0" fill="#D8D8D8" fill-rule="nonzero" opacity="0"/><g id="云备份"><rect id="矩形备份-3" width="20" height="20" x="0" y="0" fill="#D8D8D8" fill-rule="nonzero" opacity="0"/><g id="编组" transform="translate(1.000000, 1.000000)"><polygon id="矩形备份-5" points="0 0 17.514 0 17.514 18 11.911 18 0 18"/><path id="路径" fill="#EFF3F8" fill-rule="nonzero" d="M13.921228,14.8655351 L13.9329427,14.8655351 C16.0357358,14.7932943 17.7285135,13.0233946 17.7285135,10.8381104 C17.7285135,8.65282609 16.0357358,6.87690635 13.9270853,6.81670569 L13.921228,6.81670569 C13.7337924,4.51102007 11.8594364,2.705 9.56335036,2.705 C7.14425969,2.705 5.28161846,4.72172241 5.18790066,7.20198997 C5.1820433,7.35851171 5.1351844,7.89429766 5.12932704,8.03877926 L4.94189144,7.95449833 C4.64316596,7.84613712 4.26829477,7.72573579 3.69427325,7.72573579 C1.77891576,7.72573579 0.226714725,9.31503344 0.215,11.2835953 L0.215,11.2956355 C0.215,13.2581773 1.74962894,14.853495 3.65912908,14.8715552 L3.68841589,14.8715552 L13.921228,14.8655351"/><polygon id="形状结合" fill="#23CCD1" fill-rule="nonzero" points="8.972 8.87 11.404 12.37 10.43 12.37 10.431 14.87 7.512 14.87 7.511 12.37 6.539 12.37"/></g></g></g></g></g></svg>