<svg xmlns="http://www.w3.org/2000/svg" xmlns:xlink="http://www.w3.org/1999/xlink" width="42" height="42" version="1.1" viewBox="0 0 42 42"><title>data-encryption</title><g id="页面-1" fill="none" fill-rule="evenodd" stroke="none" stroke-width="1"><g id="data-encryption"><g id="背景区域" fill="#D8D8D8" fill-rule="nonzero" opacity="0"><rect id="矩形" width="42" height="42" x="0" y="0"/></g><g id="底块" transform="translate(0.909091, 0.424242)"><polygon id="路径-7备份-2" fill="#416480" fill-rule="nonzero" points=".091 39.576 .091 5.576 34.091 5.576 34.091 39.576" transform="translate(17.090909, 22.575758) scale(-1, 1) translate(-17.090909, -22.575758)"/><polygon id="路径-7备份-6" fill="#EEF3F7" fill-rule="nonzero" points=".091 5.576 6.091 .576 40.091 .576 32.291 5.576" transform="translate(20.090909, 3.075758) rotate(180.000000) translate(-20.090909, -3.075758)"/><polygon id="路径-7备份-5" fill="#AFC0C8" fill-rule="nonzero" points="34.091 33.576 34.091 .576 40.091 5.576 40.091 39.576" transform="translate(37.090909, 20.075758) scale(-1, 1) translate(-37.090909, -20.075758)"/><polygon id="路径-7备份-4" stroke="#FFF" points="31.591 8.076 31.591 37.076 2.591 37.076 2.591 8.076" opacity=".25" transform="translate(17.090909, 22.575758) scale(-1, 1) translate(-17.090909, -22.575758)"/><polygon id="路径-7备份-4" stroke="#32526B" points="30.591 9.076 30.591 36.076 3.591 36.076 3.591 9.076" transform="translate(17.090909, 22.575758) scale(-1, 1) translate(-17.090909, -22.575758)"/></g><g id="Icon/数据加密" transform="translate(8.000000, 13.000000)"><rect id="矩形" width="20" height="20" x="0" y="0" fill="#D8D8D8" fill-rule="nonzero" opacity="0"/><g id="数据加密"><rect id="矩形备份-3" width="20" height="20" x="0" y="0" fill="#D8D8D8" fill-rule="nonzero" opacity="0"/><g id="编组" transform="translate(1.000000, 1.000000)"><polygon id="矩形备份-23" points="0 0 18 0 18 18 12.242 18 0 18"/><g id="编组-23" fill-rule="nonzero" transform="translate(1.500000, 0.500000)"><g id="编组-17"><rect id="矩形" width="15.111" height="9.444" x="0" y="7.556" fill="#EFF3F8" rx="2"/><path id="形状结合" fill="#23CCD1" d="M7.55555556,9.91666667 C8.20755839,9.91666667 8.73611111,10.4452194 8.73611111,11.0972222 C8.73611111,11.625853 8.38865962,12.073332 7.90966719,12.223749 L7.90972222,13.2222222 C7.90972222,13.4178231 7.7511564,13.5763889 7.55555556,13.5763889 C7.35995471,13.5763889 7.20138889,13.4178231 7.20138889,13.2222222 L7.20138889,13.2222222 L7.20141569,12.2237401 C6.72243784,12.0733145 6.375,11.6258426 6.375,11.0972222 C6.375,10.4452194 6.90355273,9.91666667 7.55555556,9.91666667 Z"/><path id="形状结合" fill="#EFF3F8" d="M7.55555556,0.125 C10.7618754,0.125 13.3611111,2.72423576 13.3611111,5.93055556 C13.3611111,6.65964119 13.2267143,7.35733677 12.9813433,8.00021954 L12.1697635,7.9994643 C12.4533551,7.36795432 12.6111111,6.66767789 12.6111111,5.93055556 C12.6111111,3.13844932 10.3476618,0.875 7.55555556,0.875 C4.76344932,0.875 2.5,3.13844932 2.5,5.93055556 C2.5,6.66767789 2.65775605,7.36795432 2.94134761,7.9994643 L2.12976782,8.00021954 C1.88439685,7.35733677 1.75,6.65964119 1.75,5.93055556 C1.75,2.72423576 4.34923576,0.125 7.55555556,0.125 Z"/></g></g></g></g></g></g></g></svg>