<svg xmlns="http://www.w3.org/2000/svg" xmlns:xlink="http://www.w3.org/1999/xlink" width="42" height="42" version="1.1" viewBox="0 0 42 42"><title>ddos</title><g id="页面-1" fill="none" fill-rule="evenodd" stroke="none" stroke-width="1"><g id="ddos"><g id="背景区域备份-16" fill="#D8D8D8" fill-rule="nonzero" opacity="0"><rect id="矩形" width="42" height="42" x="0" y="0"/></g><g id="底块备份-16" transform="translate(1.000000, 0.000000)"><polygon id="路径-7备份-2" fill="#416480" fill-rule="nonzero" points=".091 39.576 .091 5.576 34.091 5.576 34.091 39.576" transform="translate(17.090909, 22.575758) scale(-1, 1) translate(-17.090909, -22.575758)"/><polygon id="路径-7备份-6" fill="#EEF3F7" fill-rule="nonzero" points=".091 5.576 6.091 .576 40.091 .576 32.291 5.576" transform="translate(20.090909, 3.075758) rotate(180.000000) translate(-20.090909, -3.075758)"/><polygon id="路径-7备份-5" fill="#AFC0C8" fill-rule="nonzero" points="34.091 33.576 34.091 .576 40.091 5.576 40.091 39.576" transform="translate(37.090909, 20.075758) scale(-1, 1) translate(-37.090909, -20.075758)"/><polygon id="路径-7备份-4" stroke="#FFF" points="31.591 8.076 31.591 37.076 2.591 37.076 2.591 8.076" opacity=".25" transform="translate(17.090909, 22.575758) scale(-1, 1) translate(-17.090909, -22.575758)"/><polygon id="路径-7备份-4" stroke="#32526B" points="30.591 9.076 30.591 36.076 3.591 36.076 3.591 9.076" transform="translate(17.090909, 22.575758) scale(-1, 1) translate(-17.090909, -22.575758)"/></g><g id="编组" transform="translate(8.000000, 13.000000)"><polygon id="矩形备份-22" points="0 0 20 0 20 20 13.603 20 0 20"/><g id="编组-16" fill-rule="nonzero" transform="translate(0.000000, 1.111111)"><path id="路径" fill="#FFF" d="M18.8744918,7.3784544 C18.1199618,3.21642512 14.4808923,0.147058824 10.2028721,0.147058824 C5.90901117,0.147058824 2.26067351,3.23882469 1.52367804,7.42082681 C1.48139028,7.66078414 1.64163314,7.889589 1.88159048,7.93187675 C2.12154781,7.9741645 2.35035267,7.81392164 2.39264042,7.57396431 C3.0556238,3.81193587 6.3390508,1.02941176 10.2028721,1.02941176 C14.0524424,1.02941176 17.327532,3.79177987 18.0062905,7.53584971 C18.0497541,7.77559687 18.2793417,7.9347162 18.5190888,7.89125268 C18.758836,7.84778917 18.9179553,7.61820156 18.8744918,7.3784544 Z"/><path id="路径" fill="#FFF" d="M1.67412505,11.1897234 C2.67776134,15.0393771 6.16806714,17.7735978 10.2028721,17.7735978 C14.3036434,17.7735978 17.8354683,14.9501343 18.7753136,11.0147604 C18.8319116,10.77777 18.6856746,10.5397696 18.4486843,10.4831716 C18.2116939,10.4265736 17.9736935,10.5728105 17.9170955,10.8098009 C17.071584,14.3501748 13.8930005,16.8912449 10.2028721,16.8912449 C6.57207565,16.8912449 3.43086814,14.4304992 2.52793864,10.9671272 C2.46647039,10.7313531 2.22550785,10.5900502 1.98973374,10.6515185 C1.75395963,10.7129867 1.61265681,10.9539493 1.67412505,11.1897234 Z"/><circle id="椭圆形" cx="1.86" cy="7.419" r="1.395" fill="#FFF" transform="translate(1.860465, 7.419114) rotate(1.000000) translate(-1.860465, -7.419114)"/><circle id="椭圆形" cx="18.545" cy="10.967" r="1.395" fill="#FFF" transform="translate(18.545279, 10.966659) rotate(1.000000) translate(-18.545279, -10.966659)"/><path id="形状结合" fill="#23CCD1" d="M6.60873481,7.56428181 L10.0187348,9.22028181 L10.0187348,13.3712818 L6.6088064,11.4021888 L6.60873481,7.56428181 Z M14.2617348,7.59528181 L14.2620542,11.4021888 L11.0187348,13.2742818 L11.0187348,9.14328181 L14.2617348,7.59528181 Z M10.4354303,4.77428181 L13.9667348,6.81328181 L10.4367348,8.49828181 L6.93373481,6.79528181 L10.4354303,4.77428181 Z"/></g></g></g></g></svg>