<svg xmlns="http://www.w3.org/2000/svg" xmlns:xlink="http://www.w3.org/1999/xlink" width="42" height="42" version="1.1" viewBox="0 0 42 42"><title>dedicated-line</title><g id="页面-1" fill="none" fill-rule="evenodd" stroke="none" stroke-width="1"><g id="dedicated-line"><g id="背景区域" fill="#D8D8D8" fill-rule="nonzero" opacity="0"><rect id="矩形" width="42" height="42" x="0" y="0"/></g><g id="底块" transform="translate(1.000000, 1.000000)"><polygon id="路径-7备份-2" fill="#416480" fill-rule="nonzero" points="0 39 0 5 34 5 34 39" transform="translate(17.000000, 22.000000) scale(-1, 1) translate(-17.000000, -22.000000)"/><g id="编组" transform="translate(7.000000, 12.000000)"><polygon id="矩形备份-19" points="1.395 1.86 18.14 1.86 18.14 18.605 12.784 18.605 1.395 18.605"/><g id="编组-11" transform="translate(10.071179, 10.071036) rotate(-45.000000) translate(-10.071179, -10.071036) translate(2.571179, 3.571036)"><path id="路径" stroke="#FFF" d="M12.6949384,6.12859097 L12.6949384,6.12859097 C13.9037696,6.12859097 14.8837209,5.14863967 14.8837209,3.93980848 C14.8837209,2.73097729 13.9037696,1.75102599 12.6949384,1.75102599"/><path id="路径" stroke="#FFF" d="M2.18878249,6.12859097 C0.9799513,6.12859097 -1.70530257e-13,7.10854227 -1.70530257e-13,8.31737346 C-1.70530257e-13,9.52620465 0.9799513,10.506156 2.18878249,10.506156 L2.18878249,10.506156"/><line id="直线" x1="5.472" x2="12.695" y1="1.751" y2="1.751" stroke="#FFF" stroke-linecap="round"/><line id="直线" x1="2.189" x2="12.695" y1="6.129" y2="6.129" stroke="#FFF" stroke-linecap="round"/><line id="直线" x1="2.189" x2="9.631" y1="10.506" y2="10.506" stroke="#FFF" stroke-linecap="round"/><circle id="椭圆形" cx="3.502" cy="1.751" r="1.751" stroke="#23CCD1"/><circle id="椭圆形" cx="11.382" cy="10.506" r="1.751" stroke="#23CCD1"/></g></g><polygon id="路径-7备份-6" fill="#EEF3F7" fill-rule="nonzero" points="0 5 6 0 40 0 32.2 5" transform="translate(20.000000, 2.500000) rotate(180.000000) translate(-20.000000, -2.500000)"/><polygon id="路径-7备份-5" fill="#AFC0C8" fill-rule="nonzero" points="34 33 34 0 40 5 40 39" transform="translate(37.000000, 19.500000) scale(-1, 1) translate(-37.000000, -19.500000)"/><polygon id="路径-7备份-4" stroke="#FFF" points="31.5 7.5 31.5 36.5 2.5 36.5 2.5 7.5" opacity=".25" transform="translate(17.000000, 22.000000) scale(-1, 1) translate(-17.000000, -22.000000)"/><polygon id="路径-7备份-4" stroke="#32526B" points="30.5 8.5 30.5 35.5 3.5 35.5 3.5 8.5" transform="translate(17.000000, 22.000000) scale(-1, 1) translate(-17.000000, -22.000000)"/></g></g></g></svg>