<svg xmlns="http://www.w3.org/2000/svg" xmlns:xlink="http://www.w3.org/1999/xlink" width="42" height="42" version="1.1" viewBox="0 0 42 42"><title>disk</title><g id="页面-1" fill="none" fill-rule="evenodd" stroke="none" stroke-width="1"><g id="disk"><g id="背景区域" fill="#D8D8D8" fill-rule="nonzero" opacity="0"><rect id="矩形" width="42" height="42" x="0" y="0"/></g><g id="底块" transform="translate(0.909091, 0.424242)"><polygon id="路径-7备份-2" fill="#416480" fill-rule="nonzero" points=".091 39.576 .091 5.576 34.091 5.576 34.091 39.576" transform="translate(17.090909, 22.575758) scale(-1, 1) translate(-17.090909, -22.575758)"/><polygon id="路径-7备份-6" fill="#EEF3F7" fill-rule="nonzero" points=".091 5.576 6.091 .576 40.091 .576 32.291 5.576" transform="translate(20.090909, 3.075758) rotate(180.000000) translate(-20.090909, -3.075758)"/><polygon id="路径-7备份-5" fill="#AFC0C8" fill-rule="nonzero" points="34.091 33.576 34.091 .576 40.091 5.576 40.091 39.576" transform="translate(37.090909, 20.075758) scale(-1, 1) translate(-37.090909, -20.075758)"/><polygon id="路径-7备份-4" stroke="#FFF" points="31.591 8.076 31.591 37.076 2.591 37.076 2.591 8.076" opacity=".25" transform="translate(17.090909, 22.575758) scale(-1, 1) translate(-17.090909, -22.575758)"/><polygon id="路径-7备份-4" stroke="#32526B" points="30.591 9.076 30.591 36.076 3.591 36.076 3.591 9.076" transform="translate(17.090909, 22.575758) scale(-1, 1) translate(-17.090909, -22.575758)"/></g><g id="Icon/磁盘" transform="translate(8.000000, 13.000000)"><rect id="矩形" width="20" height="20" x="0" y="0" fill="#D8D8D8" fill-rule="nonzero" opacity="0"/><g id="磁盘"><rect id="矩形备份-3" width="20" height="20" x="0" y="0" fill="#D8D8D8" fill-rule="nonzero" opacity="0"/><rect id="矩形备份-15" width="18" height="18" x="1" y="1"/><g id="disk" fill-rule="nonzero" transform="translate(1.000000, 1.000000)"><path id="形状结合" fill="#EFF3F8" d="M4,6 C4,6.55228475 4.44771525,7 5,7 L5,7 L13,7 C13.5522847,7 14,6.55228475 14,6 L14,6 L14,-1.86517468e-13 L17.001,-1.86517468e-13 C17.55,-1.86517468e-13 18,0.440816327 18,0.978612245 L18,12.1577143 L0,12.1577143 L0,0.978612245 C0,0.440816327 0.45,-1.86517468e-13 0.999,-1.86517468e-13 L4,-1.86517468e-13 L4,6 Z"/><path id="形状结合" fill="#23CCD1" d="M13,0 L13,5 C13,5.55228475 12.5522847,6 12,6 L6,6 C5.44771525,6 5,5.55228475 5,5 L5,0 L13,0 Z M11.8,1 L10.2,1 C10.0895431,1 10,1.08954305 10,1.2 L10,1.2 L10,3.8 C10,3.91045695 10.0895431,4 10.2,4 L10.2,4 L11.8,4 C11.9104569,4 12,3.91045695 12,3.8 L12,3.8 L12,1.2 C12,1.08954305 11.9104569,1 11.8,1 L11.8,1 Z"/><path id="路径" fill="#EFF3F8" d="M17.001,18 L0.999,18 C0.45,18 0,17.5201536 0,16.9347409 L0,13 L18,13 L18,16.9347409 C18,17.5201536 17.55,18 17.001,18 Z"/></g></g></g></g></g></svg>