<svg xmlns="http://www.w3.org/2000/svg" xmlns:xlink="http://www.w3.org/1999/xlink" width="42" height="42" version="1.1" viewBox="0 0 42 42"><title>docker</title><g id="页面-1" fill="none" fill-rule="evenodd" stroke="none" stroke-width="1"><g id="docker"><g id="背景区域" fill="#D8D8D8" fill-rule="nonzero" opacity="0"><rect id="矩形" width="42" height="42" x="0" y="0"/></g><g id="底块" transform="translate(0.909091, 0.424242)"><polygon id="路径-7备份-2" fill="#416480" fill-rule="nonzero" points=".091 39.576 .091 5.576 34.091 5.576 34.091 39.576" transform="translate(17.090909, 22.575758) scale(-1, 1) translate(-17.090909, -22.575758)"/><polygon id="路径-7备份-6" fill="#EEF3F7" fill-rule="nonzero" points=".091 5.576 6.091 .576 40.091 .576 32.291 5.576" transform="translate(20.090909, 3.075758) rotate(180.000000) translate(-20.090909, -3.075758)"/><polygon id="路径-7备份-5" fill="#AFC0C8" fill-rule="nonzero" points="34.091 33.576 34.091 .576 40.091 5.576 40.091 39.576" transform="translate(37.090909, 20.075758) scale(-1, 1) translate(-37.090909, -20.075758)"/><polygon id="路径-7备份-4" stroke="#FFF" points="31.591 8.076 31.591 37.076 2.591 37.076 2.591 8.076" opacity=".25" transform="translate(17.090909, 22.575758) scale(-1, 1) translate(-17.090909, -22.575758)"/><polygon id="路径-7备份-4" stroke="#32526B" points="30.591 9.076 30.591 36.076 3.591 36.076 3.591 9.076" transform="translate(17.090909, 22.575758) scale(-1, 1) translate(-17.090909, -22.575758)"/></g><g id="Icon/Docker" fill-rule="nonzero" transform="translate(8.000000, 13.000000)"><rect id="矩形" width="20" height="20" x="0" y="0" fill="#D8D8D8" opacity="0"/><g id="服务节点"><rect id="矩形备份-3" width="20" height="20" x="0" y="0" fill="#D8D8D8" opacity="0"/><g id="编组" transform="translate(0.000000, 3.000000)"><path id="形状结合" fill="#EFF3F8" d="M15.8378378,3.35135135 C15.8378378,3.35135135 17.1891892,4.16216216 17.3513514,5.56756757 C18.2702703,5.2972973 19.1891892,5.45945946 19.9459459,5.89189189 C19.9459459,5.89189189 19.4054054,7.72972973 16.9189189,7.56756757 C16.9189189,7.56756757 15.7297297,11.7837838 10.6486486,13.3513514 C10.6486486,13.3513514 6.97297297,14.4864865 4.32432432,13.4594595 C3.78378378,13.2972973 3.24324324,13.027027 2.75675676,12.6486486 C3.56756757,12.4864865 4.32432432,12.2162162 5.02702703,11.8378378 C5.18918919,11.7837838 5.18918919,11.5675676 5.13513514,11.4054054 C5.08108108,11.2432432 4.86486486,11.2432432 4.7027027,11.2972973 C3.89189189,11.7297297 2.97297297,12 2.05405405,12.0540541 C1.13513514,11.1351351 0.540540541,9.89189189 0.486486486,8.59459459 C0.486486486,8.16216216 0.486486486,7.72972973 0.540540541,7.2972973 L0.540540541,7.2972973 L12.2702703,7.2972973 L13.6756757,7.24324324 C14.3243243,7.24324324 15.027027,7.13513514 15.6216216,6.75675676 C15.6216216,6.75675676 14.3243243,4.97297297 15.8378378,3.35135135 Z M6.05555555,10.3611111 C5.8561194,10.3611111 5.69444444,10.5227861 5.69444444,10.7222222 C5.69444444,10.9216584 5.8561194,11.0833333 6.05555555,11.0833333 C6.25499172,11.0833333 6.41666667,10.9216584 6.41666667,10.7222222 C6.41666667,10.5227861 6.25499172,10.3611111 6.05555555,10.3611111 Z"/><circle id="椭圆形" cx="6.139" cy="10.583" r="1" fill="#23CCD1"/><polygon id="矩形" fill="#EFF3F8" points="2.046 5.277 3.884 5.277 3.884 7.115 2.046 7.115" transform="translate(2.965137, 6.195834) rotate(-89.750005) translate(-2.965137, -6.195834)"/><polygon id="矩形" fill="#EFF3F8" points="4.273 5.288 6.111 5.288 6.111 7.126 4.273 7.126" transform="translate(5.192320, 6.206807) rotate(-89.750005) translate(-5.192320, -6.206807)"/><polygon id="矩形" fill="#EFF3F8" points="6.5 5.299 8.338 5.299 8.338 7.137 6.5 7.137" transform="translate(7.419341, 6.217672) rotate(-89.750005) translate(-7.419341, -6.217672)"/><polygon id="矩形" fill="#EFF3F8" points="8.69 5.272 10.528 5.272 10.528 7.11 8.69 7.11" transform="translate(9.609390, 6.191348) rotate(-89.750005) translate(-9.609390, -6.191348)"/><rect id="矩形" width="1.838" height="1.838" x="4.31" y="2.886" fill="#23CCD1" transform="translate(5.229023, 3.804592) rotate(-89.750005) translate(-5.229023, -3.804592)"/><polygon id="矩形" fill="#23CCD1" points="6.541 2.846 8.379 2.846 8.379 4.684 6.541 4.684" transform="translate(7.460064, 3.765186) rotate(-89.750005) translate(-7.460064, -3.765186)"/><polygon id="矩形" fill="#EFF3F8" points="8.737 2.88 10.574 2.88 10.574 4.717 8.737 4.717" transform="translate(9.655444, 3.798538) rotate(-89.750005) translate(-9.655444, -3.798538)"/><rect id="矩形" width="1.838" height="1.838" x="8.703" y=".378" fill="#23CCD1"/><polygon id="矩形" fill="#23CCD1" points="10.962 5.274 12.8 5.274 12.8 7.112 10.962 7.112" transform="translate(11.881404, 6.193131) rotate(-89.750005) translate(-11.881404, -6.193131)"/></g></g></g></g></g></svg>