<svg xmlns="http://www.w3.org/2000/svg" xmlns:xlink="http://www.w3.org/1999/xlink" width="42" height="42" version="1.1" viewBox="0 0 42 42"><title>f5-pool</title><g id="页面-1" fill="none" fill-rule="evenodd" stroke="none" stroke-width="1"><g id="f5-pool"><g id="背景区域" fill="#D8D8D8" fill-rule="nonzero" opacity="0"><rect id="矩形" width="42" height="42" x="0" y="0"/></g><g id="底块" transform="translate(1.000000, 1.000000)"><polygon id="路径-7备份-2" fill="#416480" fill-rule="nonzero" points="0 39 0 5 34 5 34 39" transform="translate(17.000000, 22.000000) scale(-1, 1) translate(-17.000000, -22.000000)"/><polygon id="路径-7备份-6" fill="#EEF3F7" fill-rule="nonzero" points="0 5 6 0 40 0 32.2 5" transform="translate(20.000000, 2.500000) rotate(180.000000) translate(-20.000000, -2.500000)"/><polygon id="路径-7备份-5" fill="#AFC0C8" fill-rule="nonzero" points="34 33 34 0 40 5 40 39" transform="translate(37.000000, 19.500000) scale(-1, 1) translate(-37.000000, -19.500000)"/><polygon id="路径-7备份-4" stroke="#FFF" points="31.5 7.5 31.5 36.5 2.5 36.5 2.5 7.5" opacity=".25" transform="translate(17.000000, 22.000000) scale(-1, 1) translate(-17.000000, -22.000000)"/><polygon id="路径-7备份-4" stroke="#32526B" points="30.5 8.5 30.5 35.5 3.5 35.5 3.5 8.5" transform="translate(17.000000, 22.000000) scale(-1, 1) translate(-17.000000, -22.000000)"/></g><g transform="translate(8.000000, 13.000000)"><polygon id="矩形备份-17" points="0 0 20 0 20 20 13.603 20 0 20"/><g id="图形" transform="translate(0.555556, 0.555556)"><line id="路径" x1="9.444" x2="9.444" y1="3.444" y2="17.444" stroke="#FFF"/><line id="路径" x1="3" x2="9.444" y1="13" y2="16.444" stroke="#FFF"/><line id="路径备份-3" x1="9.444" x2="16" y1="12.944" y2="16.444" stroke="#FFF" transform="translate(12.722222, 14.694444) scale(-1, 1) translate(-12.722222, -14.694444)"/><line id="路径" x1="9.5" x2="2.221" y1="3.444" y2="12.944" stroke="#FFF"/><line id="路径" x1="17" x2="10" y1="12.944" y2="3.444" stroke="#FFF"/><circle id="椭圆形" cx="9.444" cy="3.444" r="3" fill="#23CCD1" fill-rule="nonzero"/><circle id="椭圆形" cx="9.444" cy="16.444" r="2" fill="#FFF" fill-rule="nonzero"/><circle id="椭圆形" cx="2" cy="13" r="2" fill="#FFF" fill-rule="nonzero"/><circle id="椭圆形" cx="17" cy="13" r="2" fill="#FFF" fill-rule="nonzero"/></g></g></g></g></svg>