<svg xmlns="http://www.w3.org/2000/svg" xmlns:xlink="http://www.w3.org/1999/xlink" width="42" height="42" version="1.1" viewBox="0 0 42 42"><title>haproxy</title><g id="页面-1" fill="none" fill-rule="evenodd" stroke="none" stroke-width="1"><g id="haproxy"><g id="背景区域" fill="#D8D8D8" fill-rule="nonzero" opacity="0"><rect id="矩形" width="42" height="42" x="0" y="0"/></g><g id="底块" transform="translate(1.000000, 1.000000)"><polygon id="路径-7备份-2" fill="#416480" fill-rule="nonzero" points="0 39 0 5 34 5 34 39" transform="translate(17.000000, 22.000000) scale(-1, 1) translate(-17.000000, -22.000000)"/><polygon id="路径-7备份-6" fill="#EEF3F7" fill-rule="nonzero" points="0 5 6 0 40 0 32.2 5" transform="translate(20.000000, 2.500000) rotate(180.000000) translate(-20.000000, -2.500000)"/><polygon id="路径-7备份-5" fill="#AFC0C8" fill-rule="nonzero" points="34 33 34 0 40 5 40 39" transform="translate(37.000000, 19.500000) scale(-1, 1) translate(-37.000000, -19.500000)"/><polygon id="路径-7备份-4" stroke="#FFF" points="31.5 7.5 31.5 36.5 2.5 36.5 2.5 7.5" opacity=".25" transform="translate(17.000000, 22.000000) scale(-1, 1) translate(-17.000000, -22.000000)"/><polygon id="路径-7备份-4" stroke="#32526B" points="30.5 8.5 30.5 35.5 3.5 35.5 3.5 8.5" transform="translate(17.000000, 22.000000) scale(-1, 1) translate(-17.000000, -22.000000)"/></g><g transform="translate(8.000000, 13.000000)"><polygon id="矩形备份-17" points="0 0 20 0 20 20 13.603 20 0 20"/><g id="图形" fill-rule="nonzero" transform="translate(1.000000, 1.000000)"><rect id="矩形" width="4.275" height="4.038" x="6.646" y="11.092" fill="#23CCD1"/><rect id="矩形" width="4.275" height="4.038" x="2.37" y="7.054" fill="#FFF"/><rect id="矩形" width="4.275" height="4.038" x="6.646" y="3.016" fill="#23CCD1"/><rect id="矩形" width="4.275" height="4.038" x="10.921" y="7.054" fill="#FFF"/><rect id="矩形" width="2.141" height="2.022" x="10.921" y=".994" fill="#FFF"/><rect id="矩形" width="2.141" height="2.022" x="4.504" y=".994" fill="#FFF"/><rect id="矩形" width="2.141" height="2.022" x="10.921" y="15.137" fill="#FFF"/><rect id="矩形" width="2.141" height="2.022" x="4.504" y="15.137" fill="#FFF"/><polygon id="路径" fill="#FFF" points="2.37 5.032 2.37 7.054 .229 7.054 .229 5.032"/><polygon id="路径" fill="#FFF" points="2.37 11.092 2.37 13.114 .229 13.114 .229 11.092"/><polygon id="路径" fill="#FFF" points="17.345 5.032 17.345 7.054 15.204 7.054 15.204 5.032"/><polygon id="路径" fill="#FFF" points="17.345 11.092 17.345 13.114 15.204 13.114 15.204 11.092"/></g></g></g></g></svg>