<svg xmlns="http://www.w3.org/2000/svg" xmlns:xlink="http://www.w3.org/1999/xlink" width="54" height="54" version="1.1" viewBox="0 0 54 54"><title>host</title><g id="页面-1" fill="none" fill-rule="evenodd" stroke="none" stroke-width="1"><g id="host" fill-rule="nonzero"><g id="背景区域" fill="#D8D8D8" opacity="0"><rect id="矩形" width="54" height="54" x="0" y="0"/></g><g id="图形" transform="translate(8.000000, 0.000000)"><polygon id="形状结合" fill="#ABBCC4" points="36.845 9.774 36.845 40.296 26.861 46.514 15.967 53.299 15.967 22.99"/><polygon id="形状结合" fill="#416480" points="1 13.516 15.967 22.99 15.967 53.299 1 43.977"/><polygon id="矩形" fill="#FFF" points="3.846 21.455 12.846 26.924 12.846 28.924 3.846 23.455"/><polygon id="矩形备份-23" fill="#23CCD1" points="3.846 27.455 12.846 32.924 12.846 34.924 3.846 29.455"/><path id="椭圆形" fill="#23CCD1" d="M8,43.3392127 C9.65685425,44.3394549 11,43.8471729 11,42.2396701 C11,40.6321673 9.65685425,38.5181723 8,37.5179301 C6.34314575,36.5176879 5,37.0099699 5,38.6174727 C5,40.2249755 6.34314575,42.3389705 8,43.3392127 Z"/><polygon id="形状结合" fill="#EEF3F7" points="21.734 .455 36.71 9.858 15.967 22.99 .968 13.495"/></g></g></g></svg>