<svg xmlns="http://www.w3.org/2000/svg" xmlns:xlink="http://www.w3.org/1999/xlink" width="50" height="50" version="1.1" viewBox="0 0 50 50"><title>idc</title><g id="页面-1" fill="none" fill-rule="evenodd" stroke="none" stroke-width="1"><g id="idc" fill-rule="nonzero"><g id="背景区域" fill="#D8D8D8" opacity="0"><rect id="矩形" width="50" height="50" x="0" y="0"/></g><g id="编组-79" transform="translate(25.500000, 25.500000) scale(-1, 1) translate(-25.500000, -25.500000) translate(3.000000, 2.000000)"><g id="编组-3" transform="translate(18.581238, 0.000000)"><g id="编组-72" transform="translate(0.620890, 0.000000)"><polygon id="形状结合" fill="#416480" points="7.46 37.211 24.737 29.621 24.816 4.366 7.539 11.956"/><g id="编组-2" transform="translate(8.245680, 7.024957)"><polygon id="路径" fill="#EFF3F8" points=".736 6.965 15.107 2.834 15.185 1.516 .814 5.646" transform="translate(7.960537, 4.240309) rotate(-7.000000) translate(-7.960537, -4.240309)"/><polygon id="路径备份-5" fill="#EFF3F8" points=".736 10.249 15.107 6.119 15.185 4.801 .814 8.931" transform="translate(7.960537, 7.525063) rotate(-7.000000) translate(-7.960537, -7.525063)"/><path id="形状" fill="#23CCD1" d="M15.1563454,22.125844 L15.6275272,21.9243408 L15.6275272,21.5885021 L15.1563454,21.7900053 L15.1563454,22.125844 Z M15.1563454,22.7975215 L15.6275272,22.5960183 L15.6275272,22.1930118 L15.1563454,22.394515 L15.1563454,22.7975215 Z M14.3710426,22.4616828 L14.8422243,22.2601795 L14.8422243,21.9243408 L14.3710426,22.125844 L14.3710426,22.4616828 Z M14.3710426,23.1333602 L14.8422243,22.9318569 L14.8422243,22.5288505 L14.3710426,22.7303538 L14.3710426,23.1333602 Z M13.5857397,22.8646892 L14.0569214,22.663186 L14.0569214,22.2601795 L13.5857397,22.4616828 L13.5857397,22.8646892 Z M13.5857397,23.4691989 L14.0569214,23.2676957 L14.0569214,22.9318569 L13.5857397,23.1333602 L13.5857397,23.4691989 Z M12.8004368,23.2005279 L13.2716185,22.9990247 L13.2716185,22.5960183 L12.8004368,22.7975215 L12.8004368,23.2005279 Z M12.8004368,23.8722054 L13.2716185,23.6035344 L13.2716185,23.2676957 L12.8004368,23.4691989 L12.8004368,23.8722054 Z M11.9366037,23.5363667 L12.4077854,23.3348634 L12.4077854,22.9318569 L11.9366037,23.2005279 L11.9366037,23.5363667 Z M11.9366037,24.2080441 L12.4077854,24.0065409 L12.4077854,23.6035344 L11.9366037,23.8050376 L11.9366037,24.2080441 Z M11.1513008,23.8722054 L11.6224825,23.6707021 L11.6224825,23.3348634 L11.1513008,23.5363667 L11.1513008,23.8722054 Z M11.1513008,24.5438828 L11.6224825,24.3423796 L11.6224825,23.9393731 L11.1513008,24.1408764 L11.1513008,24.5438828 Z M10.3659979,24.2752118 L10.8371797,24.0737086 L10.8371797,23.6707021 L10.3659979,23.8722054 L10.3659979,24.2752118 Z M10.3659979,24.8797215 L10.8371797,24.6782183 L10.8371797,24.3423796 L10.3659979,24.5438828 L10.3659979,24.8797215 Z M9.58069506,24.6110505 L10.0518768,24.4095473 L10.0518768,24.0065409 L9.58069506,24.2080441 L9.58069506,24.6110505 Z M9.58069506,25.282728 L10.0518768,25.014057 L10.0518768,24.6782183 L9.58069506,24.8797215 L9.58069506,25.282728 Z M8.7953922,24.9468893 L9.26657389,24.745386 L9.26657389,24.3423796 L8.7953922,24.6110505 L8.7953922,24.9468893 Z M8.7953922,25.6185667 L9.26657389,25.4170635 L9.26657389,25.014057 L8.7953922,25.2155603 L8.7953922,25.6185667 Z M7.93155899,25.282728 L8.48127103,25.0812248 L8.48127103,24.745386 L7.93155899,24.9468893 L7.93155899,25.282728 Z M7.93155899,25.9544054 L8.40274074,25.7529022 L8.48127103,25.3498958 L7.93155899,25.551399 L7.93155899,25.9544054 Z M7.14625613,25.6857345 L7.61743788,25.4170635 L7.61743788,25.0812248 L7.14625613,25.282728 L7.14625613,25.6857345 Z M7.14625613,26.2902441 L7.61743788,26.0887409 L7.61743788,25.6857345 L7.14625613,25.9544054 L7.14625613,26.2902441 Z M6.36095327,26.0215732 L6.83213502,25.8200699 L6.83213502,25.4170635 L6.36095327,25.6185667 L6.36095327,26.0215732 Z M6.36095327,26.6260829 L6.83213502,26.4245796 L6.83213502,26.0887409 L6.36095327,26.2902441 L6.36095327,26.6260829 Z M5.57565042,26.3574119 L6.04683211,26.1559087 L6.04683211,25.7529022 L5.57565042,25.9544054 L5.57565042,26.3574119 Z M5.57565042,27.0290894 L6.04683211,26.8275861 L6.04683211,26.4245796 L5.57565042,26.6260829 L5.57565042,27.0290894 Z M4.79034756,26.6932506 L5.26152925,26.4917474 L5.26152925,26.1559087 L4.79034756,26.3574119 L4.79034756,26.6932506 Z M4.79034756,27.364928 L5.26152925,27.1634248 L5.26152925,26.7604184 L4.79034756,26.9619216 L4.79034756,27.364928 Z M4.00504464,27.0962571 L4.47622639,26.8275861 L4.47622639,26.4917474 L4.00504464,26.6932506 L4.00504464,27.0962571 Z M3.92651435,27.7007668 L4.47622639,27.4992635 L4.47622639,27.0962571 L4.00504464,27.364928 L3.92651435,27.7007668 Z M3.14121149,27.4320958 L3.61239324,27.2305925 L3.61239324,26.8275861 L3.14121149,27.0290894 L3.14121149,27.4320958 Z M3.14121149,28.0366055 L3.61239324,27.8351023 L3.61239324,27.4992635 L3.14121149,27.7007668 L3.14121149,28.0366055 Z M2.35590863,27.7679345 L2.82709033,27.5664313 L2.82709033,27.1634248 L2.35590863,27.364928 L2.35590863,27.7679345 Z M2.35590863,28.439612 L2.82709033,28.2381087 L2.82709033,27.8351023 L2.35590863,28.0366055 L2.35590863,28.439612 Z M1.57060577,28.1037732 L2.04178747,27.90227 L2.04178747,27.5664313 L1.57060577,27.7679345 L1.57060577,28.1037732 Z M1.57060577,28.7754507 L2.04178747,28.5739475 L2.04178747,28.170941 L1.57060577,28.3724442 L1.57060577,28.7754507 Z M0.785302859,28.5067797 L1.25648461,28.2381087 L1.25648461,27.90227 L0.785302859,28.1037732 L0.785302859,28.5067797 Z M0.785302859,29.1112894 L1.25648461,28.9097861 L1.25648461,28.5067797 L0.785302859,28.7754507 L0.785302859,29.1112894 Z M0,28.8426184 L0.471181749,28.6411152 L0.471181749,28.2381087 L0,28.439612 L0,28.8426184 Z M0,29.4471281 L0.471181749,29.2456249 L0.471181749,28.9097861 L0,29.1112894 L0,29.4471281 Z"/></g><polygon id="路径" fill="#ABBCC4" points="0 7.475 .079 32.778 7.225 37.077 7.161 11.902"/><polygon id="路径" fill="#EEF3F7" points=".236 6.985 7.382 11.553 24.58 3.963 16.884 0"/></g><polygon id="路径-2" fill="#FFF" points="7.782 4.366 8.018 3.963 25.216 11.553 25.436 11.902 25.373 37.101 25.137 37.211 25.059 11.956" transform="translate(16.609339, 20.586913) scale(-1, 1) translate(-16.609339, -20.586913)"/><polygon id="路径-3" fill="#FFF" points="7.871 6.985 8.107 7.475 .841 11.964 .621 11.615" transform="translate(4.363982, 9.474696) scale(-1, 1) translate(-4.363982, -9.474696)"/></g><g id="编组-3备份" transform="translate(0.192021, 8.640957)"><g id="编组-72" transform="translate(0.620890, 0.000000)"><polygon id="形状结合" fill="#416480" points="7.46 37.211 24.737 29.621 24.816 4.366 7.539 11.956"/><g id="编组-2" transform="translate(8.245680, 7.024957)"><polygon id="路径" fill="#EFF3F8" points=".736 6.965 15.107 2.834 15.185 1.516 .814 5.646" transform="translate(7.960537, 4.240309) rotate(-7.000000) translate(-7.960537, -4.240309)"/><polygon id="路径备份-5" fill="#EFF3F8" points=".736 10.249 15.107 6.119 15.185 4.801 .814 8.931" transform="translate(7.960537, 7.525063) rotate(-7.000000) translate(-7.960537, -7.525063)"/><path id="形状" fill="#23CCD1" d="M15.1563454,22.125844 L15.6275272,21.9243408 L15.6275272,21.5885021 L15.1563454,21.7900053 L15.1563454,22.125844 Z M15.1563454,22.7975215 L15.6275272,22.5960183 L15.6275272,22.1930118 L15.1563454,22.394515 L15.1563454,22.7975215 Z M14.3710426,22.4616828 L14.8422243,22.2601795 L14.8422243,21.9243408 L14.3710426,22.125844 L14.3710426,22.4616828 Z M14.3710426,23.1333602 L14.8422243,22.9318569 L14.8422243,22.5288505 L14.3710426,22.7303538 L14.3710426,23.1333602 Z M13.5857397,22.8646892 L14.0569214,22.663186 L14.0569214,22.2601795 L13.5857397,22.4616828 L13.5857397,22.8646892 Z M13.5857397,23.4691989 L14.0569214,23.2676957 L14.0569214,22.9318569 L13.5857397,23.1333602 L13.5857397,23.4691989 Z M12.8004368,23.2005279 L13.2716185,22.9990247 L13.2716185,22.5960183 L12.8004368,22.7975215 L12.8004368,23.2005279 Z M12.8004368,23.8722054 L13.2716185,23.6035344 L13.2716185,23.2676957 L12.8004368,23.4691989 L12.8004368,23.8722054 Z M11.9366037,23.5363667 L12.4077854,23.3348634 L12.4077854,22.9318569 L11.9366037,23.2005279 L11.9366037,23.5363667 Z M11.9366037,24.2080441 L12.4077854,24.0065409 L12.4077854,23.6035344 L11.9366037,23.8050376 L11.9366037,24.2080441 Z M11.1513008,23.8722054 L11.6224825,23.6707021 L11.6224825,23.3348634 L11.1513008,23.5363667 L11.1513008,23.8722054 Z M11.1513008,24.5438828 L11.6224825,24.3423796 L11.6224825,23.9393731 L11.1513008,24.1408764 L11.1513008,24.5438828 Z M10.3659979,24.2752118 L10.8371797,24.0737086 L10.8371797,23.6707021 L10.3659979,23.8722054 L10.3659979,24.2752118 Z M10.3659979,24.8797215 L10.8371797,24.6782183 L10.8371797,24.3423796 L10.3659979,24.5438828 L10.3659979,24.8797215 Z M9.58069506,24.6110505 L10.0518768,24.4095473 L10.0518768,24.0065409 L9.58069506,24.2080441 L9.58069506,24.6110505 Z M9.58069506,25.282728 L10.0518768,25.014057 L10.0518768,24.6782183 L9.58069506,24.8797215 L9.58069506,25.282728 Z M8.7953922,24.9468893 L9.26657389,24.745386 L9.26657389,24.3423796 L8.7953922,24.6110505 L8.7953922,24.9468893 Z M8.7953922,25.6185667 L9.26657389,25.4170635 L9.26657389,25.014057 L8.7953922,25.2155603 L8.7953922,25.6185667 Z M7.93155899,25.282728 L8.48127103,25.0812248 L8.48127103,24.745386 L7.93155899,24.9468893 L7.93155899,25.282728 Z M7.93155899,25.9544054 L8.40274074,25.7529022 L8.48127103,25.3498958 L7.93155899,25.551399 L7.93155899,25.9544054 Z M7.14625613,25.6857345 L7.61743788,25.4170635 L7.61743788,25.0812248 L7.14625613,25.282728 L7.14625613,25.6857345 Z M7.14625613,26.2902441 L7.61743788,26.0887409 L7.61743788,25.6857345 L7.14625613,25.9544054 L7.14625613,26.2902441 Z M6.36095327,26.0215732 L6.83213502,25.8200699 L6.83213502,25.4170635 L6.36095327,25.6185667 L6.36095327,26.0215732 Z M6.36095327,26.6260829 L6.83213502,26.4245796 L6.83213502,26.0887409 L6.36095327,26.2902441 L6.36095327,26.6260829 Z M5.57565042,26.3574119 L6.04683211,26.1559087 L6.04683211,25.7529022 L5.57565042,25.9544054 L5.57565042,26.3574119 Z M5.57565042,27.0290894 L6.04683211,26.8275861 L6.04683211,26.4245796 L5.57565042,26.6260829 L5.57565042,27.0290894 Z M4.79034756,26.6932506 L5.26152925,26.4917474 L5.26152925,26.1559087 L4.79034756,26.3574119 L4.79034756,26.6932506 Z M4.79034756,27.364928 L5.26152925,27.1634248 L5.26152925,26.7604184 L4.79034756,26.9619216 L4.79034756,27.364928 Z M4.00504464,27.0962571 L4.47622639,26.8275861 L4.47622639,26.4917474 L4.00504464,26.6932506 L4.00504464,27.0962571 Z M3.92651435,27.7007668 L4.47622639,27.4992635 L4.47622639,27.0962571 L4.00504464,27.364928 L3.92651435,27.7007668 Z M3.14121149,27.4320958 L3.61239324,27.2305925 L3.61239324,26.8275861 L3.14121149,27.0290894 L3.14121149,27.4320958 Z M3.14121149,28.0366055 L3.61239324,27.8351023 L3.61239324,27.4992635 L3.14121149,27.7007668 L3.14121149,28.0366055 Z M2.35590863,27.7679345 L2.82709033,27.5664313 L2.82709033,27.1634248 L2.35590863,27.364928 L2.35590863,27.7679345 Z M2.35590863,28.439612 L2.82709033,28.2381087 L2.82709033,27.8351023 L2.35590863,28.0366055 L2.35590863,28.439612 Z M1.57060577,28.1037732 L2.04178747,27.90227 L2.04178747,27.5664313 L1.57060577,27.7679345 L1.57060577,28.1037732 Z M1.57060577,28.7754507 L2.04178747,28.5739475 L2.04178747,28.170941 L1.57060577,28.3724442 L1.57060577,28.7754507 Z M0.785302859,28.5067797 L1.25648461,28.2381087 L1.25648461,27.90227 L0.785302859,28.1037732 L0.785302859,28.5067797 Z M0.785302859,29.1112894 L1.25648461,28.9097861 L1.25648461,28.5067797 L0.785302859,28.7754507 L0.785302859,29.1112894 Z M0,28.8426184 L0.471181749,28.6411152 L0.471181749,28.2381087 L0,28.439612 L0,28.8426184 Z M0,29.4471281 L0.471181749,29.2456249 L0.471181749,28.9097861 L0,29.1112894 L0,29.4471281 Z"/></g><polygon id="路径" fill="#ABBCC4" points="0 7.475 .079 32.778 7.225 37.077 7.161 11.902"/><polygon id="路径" fill="#EEF3F7" points=".236 6.985 7.382 11.553 24.58 3.963 16.884 0"/></g><polygon id="路径-2" fill="#FFF" points="7.782 4.366 8.018 3.963 25.216 11.553 25.436 11.902 25.373 37.101 25.137 37.211 25.059 11.956" transform="translate(16.609339, 20.586913) scale(-1, 1) translate(-16.609339, -20.586913)"/><polygon id="路径-3" fill="#FFF" points="7.871 6.985 8.107 7.475 .841 11.964 .621 11.615" transform="translate(4.363982, 9.474696) scale(-1, 1) translate(-4.363982, -9.474696)"/></g></g></g></g></svg>