<svg xmlns="http://www.w3.org/2000/svg" xmlns:xlink="http://www.w3.org/1999/xlink" width="42" height="42" version="1.1" viewBox="0 0 42 42"><title>link</title><g id="页面-1" fill="none" fill-rule="evenodd" stroke="none" stroke-width="1"><g id="link"><g id="背景区域备份" fill="#D8D8D8" fill-rule="nonzero" opacity="0"><rect id="矩形" width="42" height="42" x="0" y="0"/></g><g id="底块备份" transform="translate(0.909091, 0.424242)"><polygon id="路径-7备份-2" fill="#416480" fill-rule="nonzero" points=".091 39.576 .091 5.576 34.091 5.576 34.091 39.576" transform="translate(17.090909, 22.575758) scale(-1, 1) translate(-17.090909, -22.575758)"/><g id="编组" transform="translate(7.090909, 12.575758)"><rect id="矩形备份-10" width="20" height="20" x="0" y="0"/><g transform="translate(0.555556, 0.555556)"><line id="路径" x1="5.833" x2="3.056" y1="5.278" y2="15.833" stroke="#FFF" stroke-linecap="round" stroke-width="1.611"/><line id="路径" x1="13.056" x2="5.833" y1="11.389" y2="5.278" stroke="#FFF" stroke-linecap="round" stroke-width="1.611"/><line id="路径" x1="15.833" x2="13.056" y1="3.056" y2="11.389" stroke="#FFF" stroke-linecap="round" stroke-width="1.611"/><circle id="椭圆形" cx="5.833" cy="5.278" r="3.056" fill="#23CCD1" fill-rule="nonzero"/><circle id="椭圆形" cx="3.056" cy="15.833" r="3.056" fill="#23CCD1" fill-rule="nonzero"/><circle id="椭圆形" cx="13.056" cy="11.389" r="3.056" fill="#23CCD1" fill-rule="nonzero"/><circle id="椭圆形" cx="15.833" cy="3.056" r="3.056" fill="#23CCD1" fill-rule="nonzero"/></g></g><polygon id="路径-7备份-6" fill="#EEF3F7" fill-rule="nonzero" points=".091 5.576 6.091 .576 40.091 .576 32.291 5.576" transform="translate(20.090909, 3.075758) rotate(180.000000) translate(-20.090909, -3.075758)"/><polygon id="路径-7备份-5" fill="#AFC0C8" fill-rule="nonzero" points="34.091 33.576 34.091 .576 40.091 5.576 40.091 39.576" transform="translate(37.090909, 20.075758) scale(-1, 1) translate(-37.090909, -20.075758)"/><polygon id="路径-7备份-4" stroke="#FFF" points="31.591 8.076 31.591 37.076 2.591 37.076 2.591 8.076" opacity=".25" transform="translate(17.090909, 22.575758) scale(-1, 1) translate(-17.090909, -22.575758)"/><polygon id="路径-7备份-4" stroke="#32526B" points="30.591 9.076 30.591 36.076 3.591 36.076 3.591 9.076" transform="translate(17.090909, 22.575758) scale(-1, 1) translate(-17.090909, -22.575758)"/></g></g></g></svg>