<svg xmlns="http://www.w3.org/2000/svg" xmlns:xlink="http://www.w3.org/1999/xlink" width="42" height="42" version="1.1" viewBox="0 0 42 42"><title>logstash</title><g id="页面-1" fill="none" fill-rule="evenodd" stroke="none" stroke-width="1"><g id="logstash"><g id="背景区域" fill="#D8D8D8" fill-rule="nonzero" opacity="0"><rect id="矩形" width="42" height="42" x="0" y="0"/></g><g id="底块" transform="translate(1.000000, 1.000000)"><polygon id="路径-7备份-2" fill="#416480" fill-rule="nonzero" points="0 39 0 5 34 5 34 39" transform="translate(17.000000, 22.000000) scale(-1, 1) translate(-17.000000, -22.000000)"/><polygon id="路径-7备份-6" fill="#EEF3F7" fill-rule="nonzero" points="0 5 6 0 40 0 32.2 5" transform="translate(20.000000, 2.500000) rotate(180.000000) translate(-20.000000, -2.500000)"/><polygon id="路径-7备份-5" fill="#AFC0C8" fill-rule="nonzero" points="34 33 34 0 40 5 40 39" transform="translate(37.000000, 19.500000) scale(-1, 1) translate(-37.000000, -19.500000)"/><polygon id="路径-7备份-4" stroke="#FFF" points="31.5 7.5 31.5 36.5 2.5 36.5 2.5 7.5" opacity=".25" transform="translate(17.000000, 22.000000) scale(-1, 1) translate(-17.000000, -22.000000)"/><polygon id="路径-7备份-4" stroke="#32526B" points="30.5 8.5 30.5 35.5 3.5 35.5 3.5 8.5" transform="translate(17.000000, 22.000000) scale(-1, 1) translate(-17.000000, -22.000000)"/></g><g id="Logstash" transform="translate(8.000000, 13.000000)"><polygon id="矩形备份-17" points="0 0 20 0 20 20 13.603 20 0 20"/><g id="图形" transform="translate(2.000000, 2.000000)"><rect id="矩形" width="16" height="16" x="0" y="0"/><rect id="矩形" width="6.649" height="6.649" x="9.262" y="9.339" fill="#FFF" fill-rule="nonzero"/><rect id="矩形" width="7.704" height="6.649" x=".51" y="9.339" fill="#23CCD1" fill-rule="nonzero"/><path id="路径" fill="#FFF" fill-rule="nonzero" d="M8.21333333,9.33925926 L0.50962963,9.33925926 L0.50962963,0.580740741 L0.50962963,0.580740741 C4.76444444,0.580740741 8.21333333,4.02962963 8.21333333,8.28444444 L8.21333333,9.33925926 Z"/></g></g></g></g></svg>