<svg xmlns="http://www.w3.org/2000/svg" xmlns:xlink="http://www.w3.org/1999/xlink" width="42" height="42" version="1.1" viewBox="0 0 42 42"><title>microservices</title><g id="页面-1" fill="none" fill-rule="evenodd" stroke="none" stroke-width="1"><g id="microservices"><g id="背景区域备份-3" fill="#D8D8D8" fill-rule="nonzero" opacity="0"><rect id="矩形" width="42" height="42" x="0" y="0"/></g><g id="底块备份-3" transform="translate(0.909091, 0.424242)"><polygon id="路径-7备份-2" fill="#416480" fill-rule="nonzero" points=".091 39.576 .091 5.576 34.091 5.576 34.091 39.576" transform="translate(17.090909, 22.575758) scale(-1, 1) translate(-17.090909, -22.575758)"/><polygon id="路径-7备份-6" fill="#EEF3F7" fill-rule="nonzero" points=".091 5.576 6.091 .576 40.091 .576 32.291 5.576" transform="translate(20.090909, 3.075758) rotate(180.000000) translate(-20.090909, -3.075758)"/><polygon id="路径-7备份-5" fill="#AFC0C8" fill-rule="nonzero" points="34.091 33.576 34.091 .576 40.091 5.576 40.091 39.576" transform="translate(37.090909, 20.075758) scale(-1, 1) translate(-37.090909, -20.075758)"/><polygon id="路径-7备份-4" stroke="#FFF" points="31.591 8.076 31.591 37.076 2.591 37.076 2.591 8.076" opacity=".25" transform="translate(17.090909, 22.575758) scale(-1, 1) translate(-17.090909, -22.575758)"/><polygon id="路径-7备份-4" stroke="#32526B" points="30.591 9.076 30.591 36.076 3.591 36.076 3.591 9.076" transform="translate(17.090909, 22.575758) scale(-1, 1) translate(-17.090909, -22.575758)"/></g><g id="编组" transform="translate(8.000000, 13.000000)"><rect id="矩形备份-22" width="20" height="20" x="0" y="0" opacity=".446"/><path id="形状结合" fill="#23CCD1" fill-rule="nonzero" d="M11.3164983,0.666666667 C13.5256373,0.666666667 15.3164983,2.45752767 15.3164983,4.66666667 L15.3164983,11.0505051 C15.3164983,13.259644 13.5256373,15.0505051 11.3164983,15.0505051 L4.33333333,15.0505051 C2.12419433,15.0505051 0.333333333,13.259644 0.333333333,11.0505051 L0.333333333,4.66666667 C0.333333333,2.45752767 2.12419433,0.666666667 4.33333333,0.666666667 L11.3164983,0.666666667 Z M11.0070503,4.80867939 C10.3367232,4.20491333 9.28327722,4.24264871 8.6040404,4.92188552 L8.6040404,4.92188552 L7.82491582,5.7010101 L7.04579125,4.92188552 L6.91530078,4.81297472 C6.20113476,4.27154358 5.20903149,4.35781343 4.58855219,4.92188552 C3.86936027,5.64107744 3.80942761,6.77979798 4.46868687,7.4989899 L4.46868687,7.4989899 L7.82491582,10.8552189 L11.1811448,7.4989899 C11.9003367,6.83973064 11.9003367,5.64107744 11.1212121,4.92188552 L11.1212121,4.92188552 L11.0070503,4.80867939 Z"/><path id="路径" fill="#EFF3F8" fill-rule="nonzero" d="M19.6316498,7.31919192 L19.6316498,16.3690236 C19.6316498,17.9872054 18.3131313,19.3057239 16.7548822,19.3057239 L7.70505051,19.3057239 C6.08686869,19.3057239 4.82828283,17.9872054 4.82828283,16.3690236 L4.82828283,16.1292929 L13.5784512,16.1292929 C15.4962963,16.1292929 16.5151515,15.1703704 16.5151515,13.2525253 L16.5151515,4.5023569 L16.7548822,4.5023569 C18.373064,4.44242424 19.6316498,5.7010101 19.6316498,7.31919192 Z"/></g></g></g></svg>