<svg xmlns="http://www.w3.org/2000/svg" xmlns:xlink="http://www.w3.org/1999/xlink" width="42" height="42" version="1.1" viewBox="0 0 42 42"><title>mysql</title><g id="页面-1" fill="none" fill-rule="evenodd" stroke="none" stroke-width="1"><g id="mysql"><g id="背景区域" fill="#D8D8D8" fill-rule="nonzero" opacity="0"><rect id="矩形" width="42" height="42" x="0" y="0"/></g><g id="底块" transform="translate(0.909091, 0.424242)"><polygon id="路径-7备份-2" fill="#416480" fill-rule="nonzero" points=".091 39.576 .091 5.576 34.091 5.576 34.091 39.576" transform="translate(17.090909, 22.575758) scale(-1, 1) translate(-17.090909, -22.575758)"/><polygon id="路径-7备份-6" fill="#EEF3F7" fill-rule="nonzero" points=".091 5.576 6.091 .576 40.091 .576 32.291 5.576" transform="translate(20.090909, 3.075758) rotate(180.000000) translate(-20.090909, -3.075758)"/><polygon id="路径-7备份-5" fill="#AFC0C8" fill-rule="nonzero" points="34.091 33.576 34.091 .576 40.091 5.576 40.091 39.576" transform="translate(37.090909, 20.075758) scale(-1, 1) translate(-37.090909, -20.075758)"/><polygon id="路径-7备份-4" stroke="#FFF" points="31.591 8.076 31.591 37.076 2.591 37.076 2.591 8.076" opacity=".25" transform="translate(17.090909, 22.575758) scale(-1, 1) translate(-17.090909, -22.575758)"/><polygon id="路径-7备份-4" stroke="#32526B" points="30.591 9.076 30.591 36.076 3.591 36.076 3.591 9.076" transform="translate(17.090909, 22.575758) scale(-1, 1) translate(-17.090909, -22.575758)"/></g><g id="Icon/MySQL" fill-rule="nonzero" transform="translate(8.000000, 13.000000)"><rect id="矩形" width="20" height="20" x="0" y="0" fill="#D8D8D8" opacity="0"/><g id="服务节点"><rect id="矩形备份-3" width="20" height="20" x="0" y="0" fill="#D8D8D8" opacity="0"/><g id="MysQL备份" transform="translate(0.000000, 2.000000)"><path id="形状结合" fill="#EFF3F8" d="M11.0259931,0.716305815 C11.6108666,0.79985918 12.0286335,1.30117937 12.0286335,1.88605292 C12.0286335,2.05315965 11.9450801,2.22026639 11.8615267,2.30381975 C10.9424397,3.3900135 11.7779734,3.64067359 11.7779734,3.64067359 C13.0312738,4.39265388 14.1174676,5.31174089 14.9530012,6.481488 C15.9556416,7.90189521 16.6240685,9.57296251 16.8747286,11.3275832 C17.7102623,11.4946899 18.4622426,11.8289034 19.1306695,12.4137769 C20.1333099,13.3328639 19.9662031,13.7506308 19.9662031,13.7506308 C19.7997768,14.6711577 18.3460615,14.2099851 18.3460615,14.2099851 L18.2107373,14.1625627 L18.2107373,14.1625627 L17.9432283,14.0629917 C17.5846666,13.9316836 17.2061094,13.8212662 16.6580007,13.9126738 C15.9043513,14.0383594 15.6791947,14.5763729 15.4160307,14.9766071 C15.1528667,15.3768412 14.7858945,15.5888048 14.451681,15.5888048 C13.4490407,15.4216981 13.8668075,14.2519509 13.8668075,14.2519509 C14.2010209,13.4999707 14.6187878,12.8315437 15.120108,12.2466702 C14.6187878,11.5782433 14.0339142,10.9098163 13.4490407,10.3249428 C12.7806137,9.65651587 11.9450801,9.15519568 11.0259931,8.90453559 C10.2740128,8.73742886 9.52203251,8.57032213 8.77005222,8.57032213 C8.60294549,8.57032213 8.3522854,8.65387549 8.3522854,8.90453559 L8.3522854,9.48940914 L8.3522854,9.48940914 C8.1016253,10.3249428 7.01543156,10.1578361 7.01543156,10.1578361 C6.34700464,10.0742827 5.76213108,9.74006924 5.26081089,9.23874905 C5.09370416,9.07164232 4.84304407,8.98808895 4.59238397,9.15519568 L1.83512292,10.4084962 C0.581822449,11.0769231 0.164055624,10.2413894 0.164055624,10.2413894 C-0.00305110603,9.65651587 0.164055624,8.98808895 0.748929179,8.57032213 C0.498269084,6.481488 2.58710321,4.97752743 2.58710321,4.97752743 C4.34172387,3.30646013 7.85096521,2.63803321 7.85096521,2.63803321 L8.3522854,2.22026639 C8.85360559,1.217626 9.93979933,0.63275245 11.0259931,0.716305815 Z M3.13043478,7.65217391 C2.79426146,7.65217391 2.52173913,7.92469624 2.52173913,8.26086957 C2.52173913,8.59704289 2.79426146,8.86956522 3.13043478,8.86956522 C3.46660811,8.86956522 3.73913043,8.59704289 3.73913043,8.26086957 C3.73913043,7.92469624 3.46660811,7.65217391 3.13043478,7.65217391 Z"/><circle id="椭圆形" cx="3.13" cy="8.261" r="1" fill="#23CCD1"/></g></g></g></g></g></svg>