<svg xmlns="http://www.w3.org/2000/svg" xmlns:xlink="http://www.w3.org/1999/xlink" width="42" height="42" version="1.1" viewBox="0 0 42 42"><title>oracle</title><g id="页面-1" fill="none" fill-rule="evenodd" stroke="none" stroke-width="1"><g id="oracle"><g id="背景区域" fill="#D8D8D8" fill-rule="nonzero" opacity="0"><rect id="矩形" width="42" height="42" x="0" y="0"/></g><g id="底块" transform="translate(0.909091, 0.424242)"><polygon id="路径-7备份-2" fill="#416480" fill-rule="nonzero" points=".091 39.576 .091 5.576 34.091 5.576 34.091 39.576" transform="translate(17.090909, 22.575758) scale(-1, 1) translate(-17.090909, -22.575758)"/><polygon id="路径-7备份-6" fill="#EEF3F7" fill-rule="nonzero" points=".091 5.576 6.091 .576 40.091 .576 32.291 5.576" transform="translate(20.090909, 3.075758) rotate(180.000000) translate(-20.090909, -3.075758)"/><polygon id="路径-7备份-5" fill="#AFC0C8" fill-rule="nonzero" points="34.091 33.576 34.091 .576 40.091 5.576 40.091 39.576" transform="translate(37.090909, 20.075758) scale(-1, 1) translate(-37.090909, -20.075758)"/><polygon id="路径-7备份-4" stroke="#FFF" points="31.591 8.076 31.591 37.076 2.591 37.076 2.591 8.076" opacity=".25" transform="translate(17.090909, 22.575758) scale(-1, 1) translate(-17.090909, -22.575758)"/><polygon id="路径-7备份-4" stroke="#32526B" points="30.591 9.076 30.591 36.076 3.591 36.076 3.591 9.076" transform="translate(17.090909, 22.575758) scale(-1, 1) translate(-17.090909, -22.575758)"/></g><g id="Icon/oracle" fill-rule="nonzero" transform="translate(8.000000, 13.000000)"><rect id="矩形" width="20" height="20" x="0" y="0" fill="#D8D8D8" opacity="0"/><g id="服务节点"><rect id="矩形备份-3" width="20" height="20" x="0" y="0" fill="#D8D8D8" opacity="0"/><g id="Oracle" transform="translate(1.000000, 1.000000)"><path id="路径" fill="#EFF3F8" d="M7.65297297,6.69081081 C11.4054054,6.69081081 14.3881081,5.53621622 15.1097297,3.99675676 L15.1097297,3.41945946 C15.1097297,1.59135135 11.7421622,0.1 7.65297297,0.1 C3.56378378,0.1 0.244324324,1.54324324 0.244324324,3.41945946 L0.244324324,3.94864865 C0.965945946,5.63243243 3.90054054,6.69081081 7.65297297,6.69081081 Z"/><path id="路径" fill="#EFF3F8" d="M9.62540541,7.46054054 C8.95189189,7.55675676 8.27837838,7.55675676 7.65297297,7.55675676 C3.90054054,7.55675676 0.821621622,6.35405405 0.196216216,4.76648649 L0.196216216,7.36432432 C0.917837838,8.90378378 3.94864865,10.0583784 7.60486486,10.0583784 L7.74918919,10.0583784 C8.13405405,9.04810811 8.75945946,8.13405405 9.62540541,7.46054054 Z"/><path id="路径" fill="#EFF3F8" d="M15.0616216,4.8627027 C14.7248649,5.53621622 14.1475676,6.06540541 13.4740541,6.35405405 C14.0032432,6.40216216 14.5324324,6.54648649 15.0616216,6.73891892 L15.0616216,4.8627027 Z"/><path id="路径" fill="#EFF3F8" d="M7.50864865,11.0686486 C3.90054054,11.0205405 0.917837838,9.86594595 0.244324324,8.37459459 L0.244324324,10.8762162 C0.917837838,12.4156757 3.99675676,13.5702703 7.65297297,13.5702703 L7.70108108,13.5702703 C7.41243243,12.7524324 7.36432432,11.8864865 7.50864865,11.0686486 Z"/><path id="路径" fill="#EFF3F8" d="M8.03783784,14.4843243 L7.65297297,14.4843243 C3.99675676,14.4843243 0.917837838,13.3297297 0.244324324,11.7902703 L0.244324324,14.1956757 C0.244324324,16.0718919 3.56378378,17.6113514 7.70108108,17.6113514 C8.85567568,17.6113514 9.96216216,17.5151351 11.0686486,17.2264865 C9.76972973,16.6972973 8.66324324,15.7351351 8.03783784,14.4843243 Z"/><path id="路径" fill="#23CCD1" d="M12.6562162,12.3194595 C12.6562162,12.9448649 13.0410811,13.4740541 13.5702703,13.4740541 C14.0994595,13.4740541 14.4843243,12.9448649 14.4843243,12.3194595 C14.4843243,11.6940541 14.0994595,11.1648649 13.5702703,11.1648649 C13.0410811,11.1648649 12.6562162,11.6940541 12.6562162,12.3194595 Z"/><path id="形状" fill="#23CCD1" d="M13.5702703,8.27837838 C11.3091892,8.27837838 9.52918919,10.1064865 9.52918919,12.3194595 C9.52918919,14.5805405 11.3572973,16.3605405 13.5702703,16.3605405 C15.8313514,16.3605405 17.6113514,14.5324324 17.6113514,12.3194595 C17.6594595,10.1064865 15.7832432,8.27837838 13.5702703,8.27837838 Z M13.5702703,15.2059459 C12.2232432,15.2059459 11.212973,13.9551351 11.212973,12.3194595 C11.212973,10.6837838 12.2713514,9.43297297 13.5702703,9.43297297 C14.8691892,9.43297297 15.9275676,10.6837838 15.9275676,12.3194595 C15.9275676,13.907027 14.8691892,15.2059459 13.5702703,15.2059459 Z"/></g></g></g></g></g></svg>