<svg xmlns="http://www.w3.org/2000/svg" xmlns:xlink="http://www.w3.org/1999/xlink" width="42" height="42" version="1.1" viewBox="0 0 42 42"><title>os-image</title><g id="页面-1" fill="none" fill-rule="evenodd" stroke="none" stroke-width="1"><g id="os-image"><g id="背景区域备份-5" fill="#D8D8D8" fill-rule="nonzero" opacity="0"><rect id="矩形" width="42" height="42" x="0" y="0"/></g><g id="底块备份-5" transform="translate(1.000000, 0.000000)"><polygon id="路径-7备份-2" fill="#416480" fill-rule="nonzero" points=".091 39.576 .091 5.576 34.091 5.576 34.091 39.576" transform="translate(17.090909, 22.575758) scale(-1, 1) translate(-17.090909, -22.575758)"/><polygon id="路径-7备份-6" fill="#EEF3F7" fill-rule="nonzero" points=".091 5.576 6.091 .576 40.091 .576 32.291 5.576" transform="translate(20.090909, 3.075758) rotate(180.000000) translate(-20.090909, -3.075758)"/><polygon id="路径-7备份-5" fill="#AFC0C8" fill-rule="nonzero" points="34.091 33.576 34.091 .576 40.091 5.576 40.091 39.576" transform="translate(37.090909, 20.075758) scale(-1, 1) translate(-37.090909, -20.075758)"/><polygon id="路径-7备份-4" stroke="#FFF" points="31.591 8.076 31.591 37.076 2.591 37.076 2.591 8.076" opacity=".25" transform="translate(17.090909, 22.575758) scale(-1, 1) translate(-17.090909, -22.575758)"/><polygon id="路径-7备份-4" stroke="#32526B" points="30.591 9.076 30.591 36.076 3.591 36.076 3.591 9.076" transform="translate(17.090909, 22.575758) scale(-1, 1) translate(-17.090909, -22.575758)"/></g><g id="编组" transform="translate(8.000000, 13.000000)"><rect id="矩形备份-22" width="20" height="20" x="0" y="0" opacity=".446"/><path id="形状" fill="#EFF3F8" fill-rule="nonzero" d="M19.6756757,14.5555556 C17.8660419,11.253324 16.028204,8.01008079 14.1621622,4.82582583 C14.015279,4.57518124 13.8888768,4.50863247 13.7427737,4.4577634 C13.655293,4.427305 13.4025331,4.43261991 13.3160303,4.4577634 C13.050006,4.5350879 12.9189189,4.72264837 12.9189189,5.04204204 L12.9189189,14.9339339 C12.9189189,15.3663664 13.1891892,15.6366366 13.5675676,15.6366366 L19.1891892,15.6366366 C19.3015351,15.6366366 19.4732666,15.6118564 19.5675676,15.5285285 C19.7663197,15.3529038 19.9273433,14.9614497 19.6756757,14.5555556 Z M14.1621622,14.2852853 L14.1621622,7.74474474 L17.8918919,14.2852853 L14.1621622,14.2852853 Z"/><path id="路径" fill="#EFF3F8" fill-rule="nonzero" d="M10.0540541,19.2042042 C9.62162162,19.2042042 9.35135135,18.9339339 9.35135135,18.5015015 L9.35135135,1.69069069 C9.35135135,1.36636637 9.62162162,0.987987988 10,0.987987988 L10.0540541,0.987987988 C10.4864865,0.987987988 10.7567568,1.25825826 10.7567568,1.69069069 L10.7567568,18.5015015 C10.7567568,18.9339339 10.4864865,19.2042042 10.0540541,19.2042042 L10.0540541,19.2042042 Z"/><path id="路径" fill="#23CCD1" fill-rule="nonzero" d="M6.59459459,15.6906907 C6.59459459,15.6906907 4.7027027,15.6906907 0.918918919,15.6906907 C0.864864865,15.6906907 0.654222643,15.6906907 0.540540541,15.6366366 C0.251036029,15.4989818 0.162162162,14.987988 0.324324324,14.6636637 L5.94594595,4.93393393 C6.07826027,4.74132348 6.20679151,4.62216856 6.33153967,4.57646917 C6.44985537,4.53312621 6.5686695,4.51609385 6.74752725,4.55530482 C6.926385,4.59451578 7.13513514,4.76755045 7.13513514,5.04204204 L7.13513514,15.042042 C7.13513514,15.5259473 6.97297297,15.6906907 6.59459459,15.6906907 Z"/></g></g></g></svg>