<svg xmlns="http://www.w3.org/2000/svg" xmlns:xlink="http://www.w3.org/1999/xlink" width="42" height="42" version="1.1" viewBox="0 0 42 42"><title>pc</title><g id="页面-1" fill="none" fill-rule="evenodd" stroke="none" stroke-width="1"><g id="pc"><g id="背景区域" fill="#D8D8D8" fill-rule="nonzero" opacity="0"><rect id="矩形" width="42" height="42" x="0" y="0"/></g><g id="底块" transform="translate(0.909091, 0.424242)"><polygon id="路径-7备份-2" fill="#416480" fill-rule="nonzero" points=".091 39.576 .091 5.576 34.091 5.576 34.091 39.576" transform="translate(17.090909, 22.575758) scale(-1, 1) translate(-17.090909, -22.575758)"/><g id="编组" fill="#EFF3F8" fill-rule="nonzero" transform="translate(7.090909, 13.575758)"><path id="路径" d="M13.7777778,17.5555556 L6.14814815,17.5555556 C5.55555556,17.4814815 5.18518519,16.962963 5.25925926,16.4444444 C5.18518519,15.8518519 5.62962963,15.4074074 6.14814815,15.3333333 L13.7777778,15.3333333 C14.3703704,15.4074074 14.7407407,15.9259259 14.6666667,16.4444444 C14.7407407,16.962963 14.2962963,17.4814815 13.7777778,17.5555556"/><path id="路径" d="M0.37037037,12.0740741 C0.37037037,13.3333333 1.40740741,14.2962963 2.66666667,14.2962963 L17.2592593,14.2962963 C18.5185185,14.2962963 19.5555556,13.3333333 19.6296296,12.0740741 L19.6296296,11.037037 L0.37037037,11.037037 L0.37037037,12.0740741 Z"/><path id="路径" d="M19.6296296,2.51851852 C19.5555556,1.33333333 18.5185185,0.37037037 17.3333333,0.444444444 L2.74074074,0.444444444 C1.55555556,0.37037037 0.444444444,1.33333333 0.37037037,2.51851852 L0.37037037,10.2222222 L19.6296296,10.2222222 L19.6296296,2.51851852 Z"/></g><polygon id="路径-7备份-6" fill="#EEF3F7" fill-rule="nonzero" points=".091 5.576 6.091 .576 40.091 .576 32.291 5.576" transform="translate(20.090909, 3.075758) rotate(180.000000) translate(-20.090909, -3.075758)"/><polygon id="路径-7备份-5" fill="#AFC0C8" fill-rule="nonzero" points="34.091 33.576 34.091 .576 40.091 5.576 40.091 39.576" transform="translate(37.090909, 20.075758) scale(-1, 1) translate(-37.090909, -20.075758)"/><polygon id="路径-7备份-4" stroke="#FFF" points="31.591 8.076 31.591 37.076 2.591 37.076 2.591 8.076" opacity=".25" transform="translate(17.090909, 22.575758) scale(-1, 1) translate(-17.090909, -22.575758)"/><polygon id="路径-7备份-4" stroke="#32526B" points="30.591 9.076 30.591 36.076 3.591 36.076 3.591 9.076" transform="translate(17.090909, 22.575758) scale(-1, 1) translate(-17.090909, -22.575758)"/></g></g></g></svg>