<svg xmlns="http://www.w3.org/2000/svg" xmlns:xlink="http://www.w3.org/1999/xlink" width="56" height="56" version="1.1" viewBox="0 0 56 56"><title>rack</title><g id="页面-1" fill="none" fill-rule="evenodd" stroke="none" stroke-width="1"><g id="rack" fill-rule="nonzero"><g id="背景区域" fill="#D8D8D8" opacity="0"><rect id="矩形" width="56" height="56" x="0" y="0"/></g><g id="图形" transform="translate(4.000000, 1.000000)"><polygon id="路径-7" fill="#ABBCC4" points="23.967 37.299 23.967 30.99 34.706 24.192 47.934 15.818 47.934 22.373 34.831 30.533"/><polygon id="路径-7备份-2" fill="#416480" points="0 37.299 0 30.99 23.967 15.818 23.967 22.373" transform="translate(11.983471, 26.558470) scale(-1, 1) translate(-11.983471, -26.558470)"/><polygon id="路径-7备份-8" fill="#ABBCC4" points="23.967 45.299 23.967 38.99 34.84 32.107 47.934 23.818 47.934 30.373 34.994 38.431"/><polygon id="路径-7备份-7" fill="#416480" points="0 45.299 0 38.99 23.967 23.818 23.967 30.373" transform="translate(11.983471, 34.558470) scale(-1, 1) translate(-11.983471, -34.558470)"/><polygon id="路径-7备份-10" fill="#ABBCC4" points="23.967 53.299 23.967 46.99 47.934 31.818 47.934 38.373 34.861 46.514"/><polygon id="路径-7备份-9" fill="#416480" points="0 53.299 0 46.99 23.967 31.818 23.967 38.373" transform="translate(11.983471, 42.558470) scale(-1, 1) translate(-11.983471, -42.558470)"/><polygon id="矩形" fill="#EEF3F7" points="17.846 29.455 21.846 31.924 21.846 33.924 17.846 31.455"/><polygon id="矩形备份-23" fill="#23CCD1" points="17.846 37.455 21.846 39.924 21.846 41.924 17.846 39.455"/><polygon id="矩形备份-24" fill="#EEF3F7" points="17.846 45.455 21.846 47.924 21.846 49.924 17.846 47.455"/><polygon id="路径-8" fill="#EEF3F7" points="23.967 30.99 47.934 15.818 23.967 .163 0 15.818"/><polygon id="路径-4备份" fill="#EEF3F7" points="23.967 29.527 45.537 15.773 23.967 1.582 2.397 15.773"/></g></g></g></svg>