<svg xmlns="http://www.w3.org/2000/svg" xmlns:xlink="http://www.w3.org/1999/xlink" width="50" height="50" version="1.1" viewBox="0 0 50 50"><title>storage-switch</title><g id="页面-1" fill="none" fill-rule="evenodd" stroke="none" stroke-width="1"><g id="storage-switch" fill-rule="nonzero"><g id="背景区域" fill="#D8D8D8" opacity="0"><rect id="矩形" width="50" height="50" x="0" y="0"/></g><g id="图形" transform="translate(1.000000, 5.000000)"><polygon id="路径-7" fill="#ABBCC4" points="23.967 39.299 23.967 30.99 47.934 15.818 47.934 24.373"/><polygon id="路径-7备份-2" fill="#D9E3EC" points="0 39.299 0 30.99 23.967 15.818 23.967 24.373" transform="translate(11.983471, 27.558470) scale(-1, 1) translate(-11.983471, -27.558470)"/><polygon id="路径-4" fill="#416480" points="23.967 30.99 47.934 15.818 23.967 .163 0 15.818"/><polygon id="路径-4备份" fill="#416480" stroke="#BAC9D1" stroke-width=".6" points="23.967 1.941 44.985 15.769 23.967 29.171 2.949 15.769"/></g><g id="编组-10" transform="translate(24.970948, 18.998732) rotate(5.000000) translate(-24.970948, -18.998732) translate(12.970948, 11.998732)"><path id="路径" fill="#EFF3F8" d="M4.00322009,5.40846965 C4.25052327,5.40846965 4.46691354,5.5017063 4.7103526,5.54443976 C5.03880213,1.94699438 7.78418219,-1.18423789e-14 11.5555556,-1.18423789e-14 C15.1298592,-1.18423789e-14 18.3931734,1.65187449 18.9766543,4.9773149 C19.2239575,4.93840155 19.4790533,4.90350256 19.7378844,4.90350256 C22.0911286,4.90350256 24,6.76435064 24,9.06418793 C24,11.3640252 22.0949928,13.2248733 19.7378844,13.2287582 L4.00322009,13.2287582 C1.78908388,13.2287582 0,11.4728013 0,9.31670385 C0,7.16060639 1.78528417,5.40846965 4.00322009,5.40846965 Z"/><g id="编组-9" fill="#23CCD1" transform="translate(8.888889, 2.666667)"><polygon id="路径-32备份-4" points="1.202 5.946 2.616 4.975 2.439 9.393 3.489 9.393 3.656 5.011 4.737 6.07 5.497 5.279 3.207 3.474 .59 4.904" transform="translate(3.043091, 6.433576) rotate(-92.000000) translate(-3.043091, -6.433576)"/><polygon id="路径-32备份-5" points="2.014 2.201 3.201 1.319 3.273 5.476 4.323 5.476 4.242 1.301 5.262 2.118 6.022 1.627 3.774 -.649 1.301 1.71" transform="translate(3.661898, 2.413669) rotate(91.000000) translate(-3.661898, -2.413669)"/></g></g></g></g></svg>