<svg xmlns="http://www.w3.org/2000/svg" xmlns:xlink="http://www.w3.org/1999/xlink" width="42" height="42" version="1.1" viewBox="0 0 42 42"><title>storage-resource-group</title><g id="页面-1" fill="none" fill-rule="evenodd" stroke="none" stroke-width="1"><g id="storage-resource-group"><g id="背景区域" fill="#D8D8D8" fill-rule="nonzero" opacity="0"><rect id="矩形" width="42" height="42" x="0" y="0"/></g><g id="底块" transform="translate(0.909091, 0.424242)"><polygon id="路径-7备份-2" fill="#416480" fill-rule="nonzero" points=".091 39.576 .091 5.576 34.091 5.576 34.091 39.576" transform="translate(17.090909, 22.575758) scale(-1, 1) translate(-17.090909, -22.575758)"/><g id="编组" transform="translate(7.090909, 12.575758)"><polygon id="矩形备份-15" points="0 0 20 0 20 20 13.603 20 0 20"/><g id="编组-63" fill="#23CCD1" fill-rule="nonzero" transform="translate(6.388889, 6.111111)"><g id="编组-8"><path id="形状结合" d="M7.217666,5.92876647 C7.49773999,6.19897311 7.65625,6.50675081 7.65625,6.83333333 C7.65625,7.90722035 5.94234006,8.77777778 3.828125,8.77777778 C1.71390994,8.77777778 0,7.90722035 0,6.83333333 C0,6.5065492 0.158705777,6.19859312 0.439102834,5.9282661 C1.23525509,6.49191221 2.46752677,6.82716049 3.828125,6.82716049 C5.15879467,6.82716049 6.3667212,6.50649865 7.16372066,5.96662497 L7.217666,5.92876647 Z"/><path id="形状结合" d="M7.18833148,3.45657009 C7.48664661,3.73337523 7.65625,4.05107162 7.65625,4.38888889 C7.65625,5.4627759 5.94234006,6.33333333 3.828125,6.33333333 C1.71390994,6.33333333 0,5.4627759 0,4.38888889 C0,4.05114673 0.169527975,3.7335165 0.467719557,3.45675473 C1.24697908,4.03574256 2.47300114,4.38271605 3.828125,4.38271605 C5.13284696,4.38271605 6.31789204,4.06107293 7.09993331,3.52090487 L7.18833148,3.45657009 Z"/><ellipse id="椭圆形" cx="3.828" cy="1.944" rx="3.746" ry="1.944"/></g></g><g id="编组-42" fill="#EFF3F8" fill-rule="nonzero" transform="translate(0.555556, 0.000000)"><path id="椭圆形" d="M9.73063973,1.30050505 C14.7025971,1.30050505 18.733165,5.3310729 18.733165,10.3030303 C18.733165,15.2749877 14.7025971,19.3055556 9.73063973,19.3055556 C4.75868232,19.3055556 0.728114478,15.2749877 0.728114478,10.3030303 C0.728114478,5.3310729 4.75868232,1.30050505 9.73063973,1.30050505 Z M9.73063973,2.13383838 C5.21891962,2.13383838 1.56144781,5.79131019 1.56144781,10.3030303 C1.56144781,14.8147504 5.21891962,18.4722222 9.73063973,18.4722222 C14.2423598,18.4722222 17.8998316,14.8147504 17.8998316,10.3030303 C17.8998316,5.79131019 14.2423598,2.13383838 9.73063973,2.13383838 Z"/><circle id="椭圆形" cx="9.731" cy="1.717" r="1.717"/><circle id="椭圆形" cx="1.717" cy="13.737" r="1.717"/><circle id="椭圆形" cx="17.172" cy="14.31" r="1.717"/></g></g><polygon id="路径-7备份-6" fill="#EEF3F7" fill-rule="nonzero" points=".091 5.576 6.091 .576 40.091 .576 32.291 5.576" transform="translate(20.090909, 3.075758) rotate(180.000000) translate(-20.090909, -3.075758)"/><polygon id="路径-7备份-5" fill="#AFC0C8" fill-rule="nonzero" points="34.091 33.576 34.091 .576 40.091 5.576 40.091 39.576" transform="translate(37.090909, 20.075758) scale(-1, 1) translate(-37.090909, -20.075758)"/><polygon id="路径-7备份-4" stroke="#FFF" points="31.591 8.076 31.591 37.076 2.591 37.076 2.591 8.076" opacity=".25" transform="translate(17.090909, 22.575758) scale(-1, 1) translate(-17.090909, -22.575758)"/><polygon id="路径-7备份-4" stroke="#32526B" points="30.591 9.076 30.591 36.076 3.591 36.076 3.591 9.076" transform="translate(17.090909, 22.575758) scale(-1, 1) translate(-17.090909, -22.575758)"/></g></g></g></svg>