<svg xmlns="http://www.w3.org/2000/svg" xmlns:xlink="http://www.w3.org/1999/xlink" width="42" height="42" version="1.1" viewBox="0 0 42 42"><title>storage-pool</title><g id="页面-1" fill="none" fill-rule="evenodd" stroke="none" stroke-width="1"><g id="storage-pool"><g id="背景区域" fill="#D8D8D8" fill-rule="nonzero" opacity="0"><rect id="矩形" width="42" height="42" x="0" y="0"/></g><g id="底块" transform="translate(0.909091, 0.424242)"><polygon id="路径-7备份-2" fill="#416480" fill-rule="nonzero" points=".091 39.576 .091 5.576 34.091 5.576 34.091 39.576" transform="translate(17.090909, 22.575758) scale(-1, 1) translate(-17.090909, -22.575758)"/><polygon id="路径-7备份-6" fill="#EEF3F7" fill-rule="nonzero" points=".091 5.576 6.091 .576 40.091 .576 32.291 5.576" transform="translate(20.090909, 3.075758) rotate(180.000000) translate(-20.090909, -3.075758)"/><polygon id="路径-7备份-5" fill="#AFC0C8" fill-rule="nonzero" points="34.091 33.576 34.091 .576 40.091 5.576 40.091 39.576" transform="translate(37.090909, 20.075758) scale(-1, 1) translate(-37.090909, -20.075758)"/><polygon id="路径-7备份-4" stroke="#FFF" points="31.591 8.076 31.591 37.076 2.591 37.076 2.591 8.076" opacity=".25" transform="translate(17.090909, 22.575758) scale(-1, 1) translate(-17.090909, -22.575758)"/><polygon id="路径-7备份-4" stroke="#32526B" points="30.591 9.076 30.591 36.076 3.591 36.076 3.591 9.076" transform="translate(17.090909, 22.575758) scale(-1, 1) translate(-17.090909, -22.575758)"/></g><g id="Icon/储存POOL" transform="translate(8.000000, 13.000000)"><rect id="矩形" width="20" height="20" x="0" y="0" fill="#D8D8D8" fill-rule="nonzero" opacity="0"/><g id="储存POOL"><rect id="矩形备份-3" width="20" height="20" x="0" y="0" fill="#D8D8D8" fill-rule="nonzero" opacity="0"/><g id="编组" transform="translate(1.000000, 1.000000)"><polygon id="矩形备份-14" points="0 0 18 0 18 18 12.242 18 0 18"/><g id="编组-6" fill-rule="nonzero"><path id="形状结合" fill="#EFF3F8" d="M14.21,0 C14.675,0 15.08,0.331530139 15.185,0.803709428 L17.8703706,13 L16.3892113,13 L14.2256961,3.18006182 C14.1448533,2.81684699 13.8540296,2.5519882 13.5059382,2.50683383 L13.3999455,2.5 L4.64698939,2.5 C4.24893527,2.5 3.90593118,2.78477589 3.82123881,3.18006182 L3.82123881,3.18006182 L1.6122113,13 L0.159211302,13 L2.9,0.803709428 C3,0.336553323 3.405,0 3.875,0 L14.21,0 Z"/><path id="形状结合" fill="#EFF3F8" d="M17,12.405 C17.55,12.405 18,12.855 18,13.405 L18,17 C18,17.55 17.555,18 17,18 L1,18 C0.45,18 0,17.55 0,17 L0,13.405 C0,12.855 0.45,12.405 1,12.405 L6.32624597,12.4048024 C6.11996711,12.7194115 6,13.0956959 6,13.5 C6,14.6045695 6.8954305,15.5 8,15.5 L8,15.5 L10,15.5 C11.1045695,15.5 12,14.6045695 12,13.5 C12,13.0956959 11.8800329,12.7194115 11.673754,12.4048024 L17,12.405 Z"/><path id="直线-3" fill="#23CCD1" d="M11.5,5.25 C11.9142136,5.25 12.25,5.58578644 12.25,6 C12.25,6.37969577 11.9678461,6.69349096 11.6017706,6.74315338 L11.5,6.75 L6.5,6.75 C6.08578644,6.75 5.75,6.41421356 5.75,6 C5.75,5.62030423 6.03215388,5.30650904 6.39822944,5.25684662 L6.5,5.25 L11.5,5.25 Z"/><path id="直线-3" fill="#23CCD1" d="M12.5,7.25 C12.9142136,7.25 13.25,7.58578644 13.25,8 C13.25,8.37969577 12.9678461,8.69349096 12.6017706,8.74315338 L12.5,8.75 L5.5,8.75 C5.08578644,8.75 4.75,8.41421356 4.75,8 C4.75,7.62030423 5.03215388,7.30650904 5.39822944,7.25684662 L5.5,7.25 L12.5,7.25 Z"/></g></g></g></g></g></g></svg>