<svg xmlns="http://www.w3.org/2000/svg" xmlns:xlink="http://www.w3.org/1999/xlink" width="42" height="42" version="1.1" viewBox="0 0 42 42"><title>user</title><g id="页面-1" fill="none" fill-rule="evenodd" stroke="none" stroke-width="1"><g id="user"><g id="背景区域" fill="#D8D8D8" fill-rule="nonzero" opacity="0"><rect id="矩形" width="42" height="42" x="0" y="0"/></g><g id="底块" transform="translate(0.909091, 0.424242)"><polygon id="路径-7备份-2" fill="#416480" fill-rule="nonzero" points=".091 39.576 .091 5.576 34.091 5.576 34.091 39.576" transform="translate(17.090909, 22.575758) scale(-1, 1) translate(-17.090909, -22.575758)"/><polygon id="路径-7备份-6" fill="#EEF3F7" fill-rule="nonzero" points=".091 5.576 6.091 .576 40.091 .576 32.291 5.576" transform="translate(20.090909, 3.075758) rotate(180.000000) translate(-20.090909, -3.075758)"/><polygon id="路径-7备份-5" fill="#AFC0C8" fill-rule="nonzero" points="34.091 33.576 34.091 .576 40.091 5.576 40.091 39.576" transform="translate(37.090909, 20.075758) scale(-1, 1) translate(-37.090909, -20.075758)"/><polygon id="路径-7备份-4" stroke="#FFF" points="31.591 8.076 31.591 37.076 2.591 37.076 2.591 8.076" opacity=".25" transform="translate(17.090909, 22.575758) scale(-1, 1) translate(-17.090909, -22.575758)"/><polygon id="路径-7备份-4" stroke="#32526B" points="30.591 9.076 30.591 36.076 3.591 36.076 3.591 9.076" transform="translate(17.090909, 22.575758) scale(-1, 1) translate(-17.090909, -22.575758)"/></g><g id="Icon/用户" fill-rule="nonzero" transform="translate(8.000000, 13.000000)"><rect id="矩形" width="19.333" height="19.333" x="0" y="0" fill="#D8D8D8" opacity="0"/><g id="形状" transform="translate(2.282407, 0.000000)"><path id="路径" fill="#EFF3F8" d="M12.6246667,9.889 C12.0185435,9.53699805 11.292275,9.45630155 10.6236667,9.66666667 C8.8114258,10.1177511 6.91624087,10.1177511 5.104,9.66666667 C4.43539164,9.45630155 3.70912314,9.53699805 3.103,9.889 C1.2478936,10.9360167 0.0720924346,12.8737077 1.24344979e-14,15.0026667 C1.24344979e-14,18.56 3.51866667,18.5793333 7.86866667,18.5793333 C12.2186667,18.5793333 15.7276667,18.5793333 15.7276667,15.0026667 C15.6555742,12.8737077 14.4797731,10.9360167 12.6246667,9.889 Z"/><circle id="椭圆形" cx="7.869" cy="4.292" r="4.292" fill="#23CCD1"/></g></g></g></g></svg>