<svg xmlns="http://www.w3.org/2000/svg" xmlns:xlink="http://www.w3.org/1999/xlink" width="42" height="42" version="1.1" viewBox="0 0 42 42"><title>user-group</title><g id="页面-1" fill="none" fill-rule="evenodd" stroke="none" stroke-width="1"><g id="user-group"><g id="背景区域备份-3" fill="#D8D8D8" fill-rule="nonzero" opacity="0"><rect id="矩形" width="42" height="42" x="0" y="0"/></g><g id="底块备份-3" transform="translate(0.909091, 0.424242)"><polygon id="路径-7备份-2" fill="#416480" fill-rule="nonzero" points=".091 39.576 .091 5.576 34.091 5.576 34.091 39.576" transform="translate(17.090909, 22.575758) scale(-1, 1) translate(-17.090909, -22.575758)"/><polygon id="路径-7备份-6" fill="#EEF3F7" fill-rule="nonzero" points=".091 5.576 6.091 .576 40.091 .576 32.291 5.576" transform="translate(20.090909, 3.075758) rotate(180.000000) translate(-20.090909, -3.075758)"/><polygon id="路径-7备份-5" fill="#AFC0C8" fill-rule="nonzero" points="34.091 33.576 34.091 .576 40.091 5.576 40.091 39.576" transform="translate(37.090909, 20.075758) scale(-1, 1) translate(-37.090909, -20.075758)"/><polygon id="路径-7备份-4" stroke="#FFF" points="31.591 8.076 31.591 37.076 2.591 37.076 2.591 8.076" opacity=".25" transform="translate(17.090909, 22.575758) scale(-1, 1) translate(-17.090909, -22.575758)"/><polygon id="路径-7备份-4" stroke="#32526B" points="30.591 9.076 30.591 36.076 3.591 36.076 3.591 9.076" transform="translate(17.090909, 22.575758) scale(-1, 1) translate(-17.090909, -22.575758)"/></g><g id="编组" transform="translate(8.000000, 13.000000)"><g id="用户组备份"><rect id="矩形" width="20" height="20" x="0" y="0"/></g><g id="编组-57备份" fill-rule="nonzero" transform="translate(0.000000, 1.111111)"><g id="编组-2"><path id="形状结合" fill="#EFF3F8" d="M14.7576995,9.99823028 L15.6315789,10 C17.6315789,10 19.2631579,11.5862573 19.3157895,13.5818713 L19.3157895,15.628655 C19.3157895,16.0537562 19.0018686,16.4352573 18.5396114,16.4914344 L18.4210526,16.498538 L17.789,16.4982303 L17.7894737,14.6856725 C17.7894737,12.6247495 16.5437103,10.8370892 14.7576995,9.99823028 Z"/><path id="形状结合" fill="#EFF3F8" d="M13.5,1 C15.4329966,1 17,2.56700338 17,4.5 C17,6.43299662 15.4329966,8 13.5,8 C13.1196243,8 12.7534208,7.93932173 12.410541,7.82711668 C13.2682362,6.89135393 13.7894737,5.65551138 13.7894737,4.29824561 C13.7894737,3.09354973 13.3788342,1.98451306 12.6878079,1.09584439 C12.947126,1.03294625 13.2197155,1 13.5,1 Z"/><path id="形状结合" fill="#23CCD1" d="M12.4736842,10.4897661 C14.8421053,10.4897661 16.7894737,12.3830409 16.7894737,14.6856725 L16.7894737,14.6856725 L16.7894737,17.0906433 C16.7894737,17.6535088 16.3157895,18.0628655 15.7368421,18.1140351 L15.7368421,18.1140351 L1.05263158,18.1140351 C0.473684211,18.1140351 -1.58095759e-13,17.6535088 -1.58095759e-13,17.0906433 L-1.58095759e-13,17.0906433 L-1.58095759e-13,14.6856725 C-1.58095759e-13,12.3830409 1.94736842,10.4897661 4.31578947,10.4897661 L4.31578947,10.4897661 L12.4736842,10.4897661 Z M13.7894737,13.0657895 L11.2105263,13.0657895 L11.1087558,13.0726361 C10.7426802,13.1222985 10.4605263,13.4360937 10.4605263,13.8157895 C10.4605263,14.230003 10.7963128,14.5657895 11.2105263,14.5657895 L11.2105263,14.5657895 L13.7894737,14.5657895 L13.8912442,14.5589429 C14.2573198,14.5092804 14.5394737,14.1954852 14.5394737,13.8157895 C14.5394737,13.4015759 14.2036872,13.0657895 13.7894737,13.0657895 L13.7894737,13.0657895 Z"/><ellipse id="椭圆形" cx="8.368" cy="4.298" fill="#23CCD1" rx="4.421" ry="4.298"/></g></g></g></g></g></svg>