<svg xmlns="http://www.w3.org/2000/svg" xmlns:xlink="http://www.w3.org/1999/xlink" width="42" height="42" version="1.1" viewBox="0 0 42 42"><title>vpn</title><g id="页面-1" fill="none" fill-rule="evenodd" stroke="none" stroke-width="1"><g id="vpn"><g id="背景区域" fill="#D8D8D8" fill-rule="nonzero" opacity="0"><rect id="矩形" width="42" height="42" x="0" y="0"/></g><g id="底块" transform="translate(0.909091, 0.424242)"><polygon id="路径-7备份-2" fill="#416480" fill-rule="nonzero" points=".091 39.576 .091 5.576 34.091 5.576 34.091 39.576" transform="translate(17.090909, 22.575758) scale(-1, 1) translate(-17.090909, -22.575758)"/><polygon id="路径-7备份-6" fill="#EEF3F7" fill-rule="nonzero" points=".091 5.576 6.091 .576 40.091 .576 32.291 5.576" transform="translate(20.090909, 3.075758) rotate(180.000000) translate(-20.090909, -3.075758)"/><polygon id="路径-7备份-5" fill="#AFC0C8" fill-rule="nonzero" points="34.091 33.576 34.091 .576 40.091 5.576 40.091 39.576" transform="translate(37.090909, 20.075758) scale(-1, 1) translate(-37.090909, -20.075758)"/><polygon id="路径-7备份-4" stroke="#FFF" points="31.591 8.076 31.591 37.076 2.591 37.076 2.591 8.076" opacity=".25" transform="translate(17.090909, 22.575758) scale(-1, 1) translate(-17.090909, -22.575758)"/><polygon id="路径-7备份-4" stroke="#32526B" points="30.591 9.076 30.591 36.076 3.591 36.076 3.591 9.076" transform="translate(17.090909, 22.575758) scale(-1, 1) translate(-17.090909, -22.575758)"/></g><g id="Icon/vpn" transform="translate(8.000000, 13.000000)"><rect id="矩形" width="20" height="20" x="0" y="0" fill="#D8D8D8" fill-rule="nonzero" opacity="0"/><g id="vpn"><rect id="矩形备份-3" width="20" height="20" x="0" y="0" fill="#D8D8D8" fill-rule="nonzero" opacity="0"/><g id="VPN" transform="translate(1.000000, 1.000000)"><rect id="矩形备份-22" width="18" height="18" x="0" y="0" opacity=".446"/><path id="路径" fill="#EFF3F8" fill-rule="nonzero" d="M0.344324324,4.14432432 L2.22054054,4.14432432 C2.22054054,4.14432432 3.03837838,9.48432432 3.27891892,10.6389189 C3.51945946,9.62864865 4.3372973,4.14432432 4.3372973,4.14432432 L6.1172973,4.14432432 L4.14486486,14.0545946 L2.31675676,14.0545946 L0.344324324,4.14432432 Z"/><path id="形状" fill="#23CCD1" fill-rule="nonzero" d="M8.95567568,4.14432432 L6.55027027,4.14432432 L6.55027027,14.0545946 L8.28216216,14.0545946 L8.28216216,10.7351351 L9.05189189,10.7351351 C10.447027,10.7351351 11.6016216,9.72486486 11.6016216,7.31945946 C11.5535135,4.86594595 10.3989189,4.14432432 8.95567568,4.14432432 Z M9.14810811,9.09945946 L8.33027027,9.09945946 L8.33027027,5.68378378 L9.05189189,5.68378378 C9.72540541,5.68378378 9.96594595,6.30918919 9.96594595,7.31945946 C10.0140541,8.37783784 9.82162162,9.09945946 9.14810811,9.09945946 Z"/><polygon id="路径" fill="#EFF3F8" fill-rule="nonzero" points="11.938 4.144 14.151 4.144 16.028 10.879 16.028 4.144 17.663 4.144 17.663 14.055 15.21 14.055 13.574 7.897 13.574 14.055 11.938 14.055"/></g></g></g></g></g></svg>