<svg xmlns="http://www.w3.org/2000/svg" xmlns:xlink="http://www.w3.org/1999/xlink" width="56" height="56" version="1.1" viewBox="0 0 56 56"><title>821630A0-AE55-4EE7-90E1-01D154F0DC66</title><g id="页面-1" fill="none" fill-rule="evenodd" stroke="none" stroke-width="1"><g id="win-physical-machine" fill-rule="nonzero"><g id="背景区域" fill="#D8D8D8" opacity="0"><rect id="矩形" width="56" height="56" x="0" y="0"/></g><g id="图形" transform="translate(4.000000, 2.000000)"><polygon id="路径-7" fill="#ABBCC4" points="24 36.5 24 30 34.706 23.192 48 15 48 21.5 34.831 29.533"/><polygon id="路径-7备份-2" fill="#416480" points="0 36.5 0 30 24 15 24 21.5" transform="translate(12.000000, 25.750000) scale(-1, 1) translate(-12.000000, -25.750000)"/><polygon id="路径-7备份-10" fill="#ABBCC4" points="24 52.5 24 38 48 23 48 37.5 34.861 45.514"/><polygon id="路径-7备份-9" fill="#416480" points="0 52.5 0 38 24 23 24 37.5" transform="translate(12.000000, 37.750000) scale(-1, 1) translate(-12.000000, -37.750000)"/><g id="Windows备份" fill="#23CCD1" transform="translate(11.922172, 38.067725) rotate(27.000000) translate(-11.922172, -38.067725) translate(4.922172, 32.934391)"><polygon id="路径" points=".002 1.519 1.278 4.022 5.125 4.377 3.43 1.05"/><polygon id="路径" points="8.308 .345 3.943 .959 5.668 4.414 10.596 4.836"/><polygon id="路径" points="1.477 4.413 2.871 7.149 7.095 8.244 5.315 4.751"/><polygon id="路径" points="5.858 4.789 7.702 8.406 13.16 9.867 10.787 5.21"/></g><path id="形状结合" fill="#FFF" d="M20,29.75 L22,31 L22,33 L20,31.75 L20,29.75 Z"/><polygon id="路径-8" fill="#EEF3F7" points="24 30 48 15 24 0 0 15"/></g></g></g></svg>