<svg xmlns="http://www.w3.org/2000/svg" xmlns:xlink="http://www.w3.org/1999/xlink" width="36" height="36" version="1.1" viewBox="0 0 36 36"><title>切片</title><desc>Created with Sketch.</desc><defs><linearGradient id="linearGradient-1" x1="50%" x2="50%" y1="0%" y2="100%"><stop offset="0%" stop-color="#FFF"/><stop offset="100%" stop-color="#FFF" stop-opacity=".8"/></linearGradient><path id="path-2" d="M17.9285714,1 C23.9642548,1 28.8571429,5.91042532 28.8571429,11.9677419 C28.8571429,18.0250585 18.8129362,35 17.9285714,35 C17.0442066,35 7,18.0250585 7,11.9677419 C7,5.91042532 11.8928881,1 17.9285714,1 Z M17.9285714,7.07142857 C15.2460455,7.07142857 13.0714286,9.2460455 13.0714286,11.9285714 C13.0714286,14.6110974 15.2460455,16.7857143 17.9285714,16.7857143 C20.6110974,16.7857143 22.7857143,14.6110974 22.7857143,11.9285714 C22.7857143,9.2460455 20.6110974,7.07142857 17.9285714,7.07142857 Z"/><filter id="filter-3" width="164.1%" height="141.2%" x="-32%" y="-14.7%" filterUnits="objectBoundingBox"><feOffset dx="0" dy="2" in="SourceAlpha" result="shadowOffsetOuter1"/><feGaussianBlur in="shadowOffsetOuter1" result="shadowBlurOuter1" stdDeviation="2"/><feColorMatrix in="shadowBlurOuter1" type="matrix" values="0 0 0 0 0 0 0 0 0 0 0 0 0 0 0 0 0 0 0.06 0"/></filter></defs><g id="终版" fill="none" fill-rule="evenodd" stroke="none" stroke-width="1"><g id="位置变更设备数"><g id="形状结合"><use fill="#000" fill-opacity="1" filter="url(#filter-3)" xlink:href="#path-2"/><use fill="url(#linearGradient-1)" fill-rule="evenodd" xlink:href="#path-2"/></g><rect id="矩形" width="36" height="36" x="0" y="0" fill="#D8D8D8" stroke="#979797" opacity="0"/></g></g></svg>