<svg xmlns="http://www.w3.org/2000/svg" xmlns:xlink="http://www.w3.org/1999/xlink" width="36" height="36" version="1.1" viewBox="0 0 36 36"><title>切片</title><desc>Created with Sketch.</desc><defs><linearGradient id="linearGradient-1" x1="50%" x2="50%" y1="0%" y2="100%"><stop offset="0%" stop-color="#FFF"/><stop offset="100%" stop-color="#FFF" stop-opacity=".8"/></linearGradient><path id="path-2" d="M18,5.4375 L31.6832579,21.1875 L24.8407421,21.1875 L24.841629,34.6875 L11.158371,34.6875 L11.1577421,21.1875 L4.31674208,21.1875 L18,5.4375 Z"/><filter id="filter-3" width="151.2%" height="147.9%" x="-25.6%" y="-17.1%" filterUnits="objectBoundingBox"><feOffset dx="0" dy="2" in="SourceAlpha" result="shadowOffsetOuter1"/><feGaussianBlur in="shadowOffsetOuter1" result="shadowBlurOuter1" stdDeviation="2"/><feColorMatrix in="shadowBlurOuter1" type="matrix" values="0 0 0 0 0 0 0 0 0 0 0 0 0 0 0 0 0 0 0.06 0"/></filter><linearGradient id="linearGradient-4" x1="50%" x2="50%" y1="0%" y2="100%"><stop offset="0%" stop-color="#FFF"/><stop offset="100%" stop-color="#FFF" stop-opacity=".8"/></linearGradient><path id="path-5" d="M29.4027149,1 C29.9974831,1 30.479638,1.47569745 30.479638,2.0625 C30.479638,2.60738808 30.0639024,3.05647636 29.5283069,3.11785179 L29.4027149,3.125 L6.59728507,3.125 C6.00251688,3.125 5.52036199,2.64930255 5.52036199,2.0625 C5.52036199,1.51761192 5.93609758,1.06852364 6.47169309,1.00714821 L6.59728507,1 L29.4027149,1 Z"/><filter id="filter-6" width="156.1%" height="758.8%" x="-28%" y="-235.3%" filterUnits="objectBoundingBox"><feOffset dx="0" dy="2" in="SourceAlpha" result="shadowOffsetOuter1"/><feGaussianBlur in="shadowOffsetOuter1" result="shadowBlurOuter1" stdDeviation="2"/><feColorMatrix in="shadowBlurOuter1" type="matrix" values="0 0 0 0 0 0 0 0 0 0 0 0 0 0 0 0 0 0 0.06 0"/></filter></defs><g id="终版" fill="none" fill-rule="evenodd" stroke="none" stroke-width="1"><g id="下线设备数"><g id="形状结合备份-3" transform="translate(18.000000, 20.062500) rotate(-180.000000) translate(-18.000000, -20.062500)"><use fill="#000" fill-opacity="1" filter="url(#filter-3)" xlink:href="#path-2"/><use fill="url(#linearGradient-1)" fill-rule="evenodd" xlink:href="#path-2"/></g><rect id="矩形" width="36" height="36" x="0" y="0" fill="#D8D8D8" opacity="0"/><g id="直线-7备份-4"><use fill="#000" fill-opacity="1" filter="url(#filter-6)" xlink:href="#path-5"/><use fill="url(#linearGradient-4)" fill-rule="evenodd" xlink:href="#path-5"/></g></g></g></svg>