<svg xmlns="http://www.w3.org/2000/svg" xmlns:xlink="http://www.w3.org/1999/xlink" width="36" height="36" version="1.1" viewBox="0 0 36 36"><title>切片</title><desc>Created with Sketch.</desc><defs><linearGradient id="linearGradient-1" x1="50%" x2="50%" y1="0%" y2="100%"><stop offset="0%" stop-color="#FFF"/><stop offset="100%" stop-color="#FFF" stop-opacity=".8"/></linearGradient><path id="path-2" d="M18,0.998217469 L31.6832579,16.7201426 L24.8407421,16.7192175 L24.841629,30.1960784 L11.158371,30.1960784 L11.1577421,16.7192175 L4.31674208,16.7201426 L18,0.998217469 Z"/><filter id="filter-3" width="151.2%" height="147.9%" x="-25.6%" y="-17.1%" filterUnits="objectBoundingBox"><feOffset dx="0" dy="2" in="SourceAlpha" result="shadowOffsetOuter1"/><feGaussianBlur in="shadowOffsetOuter1" result="shadowBlurOuter1" stdDeviation="2"/><feColorMatrix in="shadowBlurOuter1" type="matrix" values="0 0 0 0 0 0 0 0 0 0 0 0 0 0 0 0 0 0 0.06 0"/></filter><linearGradient id="linearGradient-4" x1="50%" x2="50%" y1="0%" y2="100%"><stop offset="0%" stop-color="#FFF"/><stop offset="100%" stop-color="#FFF" stop-opacity=".8"/></linearGradient><path id="path-5" d="M29.4027149,32.5044563 C29.9974831,32.5044563 30.479638,32.9793058 30.479638,33.5650624 C30.479638,34.1089792 30.0639024,34.557267 29.5283069,34.618533 L29.4027149,34.6256684 L6.59728507,34.6256684 C6.00251688,34.6256684 5.52036199,34.1508189 5.52036199,33.5650624 C5.52036199,33.0211456 5.93609758,32.5728578 6.47169309,32.5115918 L6.59728507,32.5044563 L29.4027149,32.5044563 Z"/><filter id="filter-6" width="156.1%" height="760%" x="-28%" y="-235.7%" filterUnits="objectBoundingBox"><feOffset dx="0" dy="2" in="SourceAlpha" result="shadowOffsetOuter1"/><feGaussianBlur in="shadowOffsetOuter1" result="shadowBlurOuter1" stdDeviation="2"/><feColorMatrix in="shadowBlurOuter1" type="matrix" values="0 0 0 0 0 0 0 0 0 0 0 0 0 0 0 0 0 0 0.06 0"/></filter></defs><g id="终版" fill="none" fill-rule="evenodd" stroke="none" stroke-width="1"><g id="上线设备数"><g id="形状结合备份-4" transform="translate(18.000000, 15.597148) rotate(-360.000000) translate(-18.000000, -15.597148)"><use fill="#000" fill-opacity="1" filter="url(#filter-3)" xlink:href="#path-2"/><use fill="url(#linearGradient-1)" fill-rule="evenodd" xlink:href="#path-2"/></g><rect id="矩形" width="36" height="36" x="0" y="0" fill="#D8D8D8" opacity="0"/><g id="直线-7备份-3"><use fill="#000" fill-opacity="1" filter="url(#filter-6)" xlink:href="#path-5"/><use fill="url(#linearGradient-4)" fill-rule="evenodd" xlink:href="#path-5"/></g></g></g></svg>