<svg xmlns="http://www.w3.org/2000/svg" xmlns:xlink="http://www.w3.org/1999/xlink" width="36" height="36" version="1.1" viewBox="0 0 36 36"><title>切片</title><desc>Created with Sketch.</desc><defs><linearGradient id="linearGradient-1" x1="50%" x2="50%" y1="0%" y2="100%"><stop offset="0%" stop-color="#FFF"/><stop offset="100%" stop-color="#FFF" stop-opacity=".8"/></linearGradient><path id="path-2" d="M18,1 C19.0098113,1 19.8371159,1.78140408 19.910239,2.77253747 L19.915493,2.91549296 L19.915,16.084 L33.084507,16.084507 C34.1424046,16.084507 35,16.9421025 35,18 C35,19.0098113 34.2185959,19.8371159 33.2274625,19.910239 L33.084507,19.915493 L19.915,19.915 L19.915493,33.084507 C19.915493,34.1424046 19.0578975,35 18,35 C16.9901887,35 16.1628841,34.2185959 16.089761,33.2274625 L16.084507,33.084507 L16.084,19.915 L2.91549296,19.915493 C1.85759541,19.915493 1,19.0578975 1,18 C1,16.9901887 1.78140408,16.1628841 2.77253747,16.089761 L2.91549296,16.084507 L16.084,16.084 L16.084507,2.91549296 C16.084507,1.85759541 16.9421025,1 18,1 Z"/><filter id="filter-3" width="141.2%" height="141.2%" x="-20.6%" y="-14.7%" filterUnits="objectBoundingBox"><feOffset dx="0" dy="2" in="SourceAlpha" result="shadowOffsetOuter1"/><feGaussianBlur in="shadowOffsetOuter1" result="shadowBlurOuter1" stdDeviation="2"/><feColorMatrix in="shadowBlurOuter1" type="matrix" values="0 0 0 0 0 0 0 0 0 0 0 0 0 0 0 0 0 0 0.06 0"/></filter></defs><g id="终版" fill="none" fill-rule="evenodd" stroke="none" stroke-width="1"><g id="入库设备数"><g id="形状结合"><use fill="#000" fill-opacity="1" filter="url(#filter-3)" xlink:href="#path-2"/><use fill="url(#linearGradient-1)" fill-rule="evenodd" xlink:href="#path-2"/></g><rect id="矩形" width="36" height="36" x="0" y="0" fill="#D8D8D8" opacity="0"/></g></g></svg>